# MagicaVoxel @ Ephtracy

# group
o lod1

# material
mtllib wallWithWindow2-2-lod1.mtl
usemtl palette

# normals
vn 1 0 0
vn -1 0 0
vn 0 0 -1
vn 0 0 1
vn 0 -1 0
vn 0 1 0

# texcoords
vt 0.00585938 0.5
vt 0.00976563 0.5
vt 0.705078 0.5
vt 0.962891 0.5

# verts
v 8 0 -0.3
v 8 0 0.3
v 8 1.6 0.1
v 8 1.6 0.3
v 8 2.8 0.1
v 8 2.8 0.3
v 8 4.8 0.1
v 8 4.8 0.3
v 8 6 0.1
v 8 6 0.3
v 8 8 0.1
v 8 8 0.3
v 8 9.2 0.1
v 8 9.2 0.3
v 8 11.2 0.2
v 8 11.2 0.3
v 8 12.4 0.2
v 8 12.4 0.3
v 8 14.4 0.1
v 8 14.4 0.3
v 8 15.6 0.1
v 8 15.6 0.3
v 8 16 -0.3
v 8 16 0.3
v -1.9 4.8 0.1
v -1.9 4.8 0.2
v -1.9 10.9 0.1
v -1.9 10.9 0.2
v -5.7 4.8 0.1
v -5.7 4.8 0.3
v -5.7 8.5 0.1
v -5.7 8.5 0.2
v -5.7 8.7 0.1
v -5.7 8.7 0.2
v -5.7 10.9 0.1
v -5.7 10.9 0.3
v 6.1 4.8 0.1
v 6.1 4.8 0.3
v 6.1 10.9 0.1
v 6.1 10.9 0.3
v -2.1 4.8 0.1
v -2.1 4.8 0.2
v -2.1 8.5 0.1
v -2.1 8.5 0.2
v -2.1 8.7 0.1
v -2.1 8.7 0.2
v -2.1 10.9 0.1
v -2.1 10.9 0.2
v -8 0 -0.3
v -8 0 0.1
v -8 0 0.3
v -8 1.2 0.1
v -8 1.2 0.3
v -8 1.6 0.1
v -8 1.6 0.3
v -8 2.8 0.1
v -8 2.8 0.3
v -8 3.2 0.1
v -8 3.2 0.3
v -8 4.4 0.1
v -8 4.4 0.3
v -8 4.8 0.1
v -8 4.8 0.3
v -8 6 0.1
v -8 6 0.3
v -8 6.4 0.1
v -8 6.4 0.3
v -8 7.6 0.1
v -8 7.6 0.3
v -8 8 0.1
v -8 8 0.3
v -8 9.2 0.1
v -8 9.2 0.3
v -8 9.6 0.1
v -8 9.6 0.3
v -8 10.8 0.1
v -8 10.8 0.3
v -8 11.2 0.1
v -8 11.2 0.3
v -8 12.4 0.1
v -8 12.4 0.3
v -8 12.8 0.1
v -8 12.8 0.3
v -8 14 0.1
v -8 14 0.3
v -8 14.4 0.1
v -8 14.4 0.3
v -8 15.6 0.1
v -8 15.6 0.3
v -8 16 -0.3
v -8 16 0.3
v 8 0 -0.3
v 8 16 -0.3
v -8 0 -0.3
v -8 16 -0.3
v 6.1 4.8 0.1
v 6.1 10.9 0.1
v -1.9 4.8 0.1
v -1.9 10.9 0.1
v -2.1 4.8 0.1
v -2.1 8.5 0.1
v -2.1 8.7 0.1
v -2.1 10.9 0.1
v -5.7 4.8 0.1
v -5.7 8.5 0.1
v -5.7 8.7 0.1
v -5.7 10.9 0.1
v -1.9 4.8 0.2
v -1.9 10.9 0.2
v -2.1 4.8 0.2
v -2.1 8.5 0.2
v -2.1 8.7 0.2
v -2.1 10.9 0.2
v -5.7 8.5 0.2
v -5.7 8.7 0.2
v 8 0 0.3
v 8 1.6 0.3
v 8 2.8 0.3
v 8 4.8 0.3
v 8 6 0.3
v 8 8 0.3
v 8 9.2 0.3
v 8 11.2 0.3
v 8 12.4 0.3
v 8 14.4 0.3
v 8 15.6 0.3
v 8 16 0.3
v 7.6 0 0.3
v 7.6 1.2 0.3
v 7.6 3.2 0.3
v 7.6 4.4 0.3
v 7.6 6.4 0.3
v 7.6 7.6 0.3
v 7.6 9.6 0.3
v 7.6 10.8 0.3
v 7.6 12.8 0.3
v 7.6 14 0.3
v 7.2 1.6 0.3
v 7.2 2.8 0.3
v 7.2 4.8 0.3
v 7.2 6 0.3
v 7.2 8 0.3
v 7.2 9.2 0.3
v 7.2 11.2 0.3
v 7.2 12.4 0.3
v 7.2 14.4 0.3
v 7.2 15.6 0.3
v 6.8 1.6 0.3
v 6.8 2.8 0.3
v 6.8 4.8 0.3
v 6.8 6 0.3
v 6.8 8 0.3
v 6.8 9.2 0.3
v 6.8 11.2 0.3
v 6.8 12.4 0.3
v 6.8 14.4 0.3
v 6.8 15.6 0.3
v 6.4 4.5 0.3
v 6.4 4.8 0.3
v 6.4 6 0.3
v 6.4 6.4 0.3
v 6.4 7.6 0.3
v 6.4 8 0.3
v 6.4 9.2 0.3
v 6.4 9.6 0.3
v 6.4 10.8 0.3
v 6.4 11.2 0.3
v 6.1 4.8 0.3
v 6.1 10.9 0.3
v 6 0 0.3
v 6 1.2 0.3
v 6 3.2 0.3
v 6 4.4 0.3
v 6 12.8 0.3
v 6 14 0.3
v 5.6 0 0.3
v 5.6 1.2 0.3
v 5.6 3.2 0.3
v 5.6 4.4 0.3
v 5.6 12.8 0.3
v 5.6 14 0.3
v 4.8 1.6 0.3
v 4.8 2.8 0.3
v 4.8 11.2 0.3
v 4.8 12.4 0.3
v 4.8 14.4 0.3
v 4.8 15.6 0.3
v 4.4 1.6 0.3
v 4.4 2.8 0.3
v 4.4 11.2 0.3
v 4.4 12.4 0.3
v 4.4 14.4 0.3
v 4.4 15.6 0.3
v 3.6 0 0.3
v 3.6 1.2 0.3
v 3.6 3.2 0.3
v 3.6 4.4 0.3
v 3.6 12.8 0.3
v 3.6 14 0.3
v 3.2 0 0.3
v 3.2 1.2 0.3
v 3.2 3.2 0.3
v 3.2 4.4 0.3
v 3.2 12.8 0.3
v 3.2 14 0.3
v 2.4 1.6 0.3
v 2.4 2.8 0.3
v 2.4 11.2 0.3
v 2.4 12.4 0.3
v 2.4 14.4 0.3
v 2.4 15.6 0.3
v 2 1.6 0.3
v 2 2.8 0.3
v 2 11.2 0.3
v 2 12.4 0.3
v 2 14.4 0.3
v 2 15.6 0.3
v 1.2 0 0.3
v 1.2 1.2 0.3
v 1.2 3.2 0.3
v 1.2 4.4 0.3
v 1.2 12.8 0.3
v 1.2 14 0.3
v 0.8 0 0.3
v 0.8 1.2 0.3
v 0.8 3.2 0.3
v 0.8 4.4 0.3
v 0.8 12.8 0.3
v 0.8 14 0.3
v 0 1.6 0.3
v 0 2.8 0.3
v 0 11.2 0.3
v 0 12.4 0.3
v 0 14.4 0.3
v 0 15.6 0.3
v -0.4 1.6 0.3
v -0.4 2.8 0.3
v -0.4 11.2 0.3
v -0.4 12.4 0.3
v -0.4 14.4 0.3
v -0.4 15.6 0.3
v -1.2 0 0.3
v -1.2 1.2 0.3
v -1.2 3.2 0.3
v -1.2 4.4 0.3
v -1.2 12.8 0.3
v -1.2 14 0.3
v -1.6 0 0.3
v -1.6 1.2 0.3
v -1.6 3.2 0.3
v -1.6 4.4 0.3
v -1.6 12.8 0.3
v -1.6 14 0.3
v -2.4 1.6 0.3
v -2.4 2.8 0.3
v -2.4 11.2 0.3
v -2.4 12.4 0.3
v -2.4 14.4 0.3
v -2.4 15.6 0.3
v -2.8 1.6 0.3
v -2.8 2.8 0.3
v -2.8 11.2 0.3
v -2.8 12.4 0.3
v -2.8 14.4 0.3
v -2.8 15.6 0.3
v -3.6 0 0.3
v -3.6 1.2 0.3
v -3.6 3.2 0.3
v -3.6 4.4 0.3
v -3.6 12.8 0.3
v -3.6 14 0.3
v -4 0 0.3
v -4 1.2 0.3
v -4 3.2 0.3
v -4 4.4 0.3
v -4 12.8 0.3
v -4 14 0.3
v -4.8 1.6 0.3
v -4.8 2.8 0.3
v -4.8 11.2 0.3
v -4.8 12.4 0.3
v -4.8 14.4 0.3
v -4.8 15.6 0.3
v -5.2 1.6 0.3
v -5.2 2.8 0.3
v -5.2 11.2 0.3
v -5.2 12.4 0.3
v -5.2 14.4 0.3
v -5.2 15.6 0.3
v -5.7 4.8 0.3
v -5.7 10.9 0.3
v -6 0 0.3
v -6 1.2 0.3
v -6 3.2 0.3
v -6 4.4 0.3
v -6 4.5 0.3
v -6 4.8 0.3
v -6 6 0.3
v -6 8 0.3
v -6 9.2 0.3
v -6 11.2 0.3
v -6 12.8 0.3
v -6 14 0.3
v -6.4 0 0.3
v -6.4 1.2 0.3
v -6.4 3.2 0.3
v -6.4 4.4 0.3
v -6.4 6.4 0.3
v -6.4 7.6 0.3
v -6.4 9.6 0.3
v -6.4 10.8 0.3
v -6.4 12.8 0.3
v -6.4 14 0.3
v -7.2 1.6 0.3
v -7.2 2.8 0.3
v -7.2 4.8 0.3
v -7.2 6 0.3
v -7.2 8 0.3
v -7.2 9.2 0.3
v -7.2 11.2 0.3
v -7.2 12.4 0.3
v -7.2 14.4 0.3
v -7.2 15.6 0.3
v -7.6 1.6 0.3
v -7.6 2.8 0.3
v -7.6 4.8 0.3
v -7.6 6 0.3
v -7.6 8 0.3
v -7.6 9.2 0.3
v -7.6 11.2 0.3
v -7.6 12.4 0.3
v -7.6 14.4 0.3
v -7.6 15.6 0.3
v -8 0 0.3
v -8 1.2 0.3
v -8 1.6 0.3
v -8 2.8 0.3
v -8 3.2 0.3
v -8 4.4 0.3
v -8 4.8 0.3
v -8 6 0.3
v -8 6.4 0.3
v -8 7.6 0.3
v -8 8 0.3
v -8 9.2 0.3
v -8 9.6 0.3
v -8 10.8 0.3
v -8 11.2 0.3
v -8 12.4 0.3
v -8 12.8 0.3
v -8 14 0.3
v -8 14.4 0.3
v -8 15.6 0.3
v -8 16 0.3
v 8 0 -0.3
v -8 0 -0.3
v 7.6 0 0.1
v 6 0 0.1
v 5.6 0 0.1
v 3.6 0 0.1
v 3.2 0 0.1
v 1.2 0 0.1
v 0.8 0 0.1
v -1.2 0 0.1
v -1.6 0 0.1
v -3.6 0 0.1
v -4 0 0.1
v -6 0 0.1
v -6.4 0 0.1
v -8 0 0.1
v 8 0 0.3
v 7.6 0 0.3
v 6 0 0.3
v 5.6 0 0.3
v 3.6 0 0.3
v 3.2 0 0.3
v 1.2 0 0.3
v 0.8 0 0.3
v -1.2 0 0.3
v -1.6 0 0.3
v -3.6 0 0.3
v -4 0 0.3
v -6 0 0.3
v -6.4 0 0.3
v -8 0 0.3
v -2.1 8.5 0.1
v -5.7 8.5 0.1
v -2.1 8.5 0.2
v -5.7 8.5 0.2
v 6.1 10.9 0.1
v -1.9 10.9 0.1
v -2.1 10.9 0.1
v -5.7 10.9 0.1
v -1.9 10.9 0.2
v -2.1 10.9 0.2
v 6.1 10.9 0.3
v -5.7 10.9 0.3
v 6.1 4.8 0.1
v -1.9 4.8 0.1
v -2.1 4.8 0.1
v -5.7 4.8 0.1
v -1.9 4.8 0.2
v -2.1 4.8 0.2
v 6.1 4.8 0.3
v -5.7 4.8 0.3
v -2.1 8.7 0.1
v -5.7 8.7 0.1
v -2.1 8.7 0.2
v -5.7 8.7 0.2
v 8 16 -0.3
v -8 16 -0.3
v 8 16 0.3
v -8 16 0.3

# faces
f 3/1/1 2/1/1 1/1/1
f 4/1/1 2/1/1 3/1/1
f 5/1/1 3/1/1 1/1/1
f 5/2/1 4/2/1 3/2/1
f 6/2/1 4/2/1 5/2/1
f 7/1/1 5/1/1 1/1/1
f 7/1/1 6/1/1 5/1/1
f 8/1/1 6/1/1 7/1/1
f 9/1/1 7/1/1 1/1/1
f 9/2/1 8/2/1 7/2/1
f 10/2/1 8/2/1 9/2/1
f 11/1/1 9/1/1 1/1/1
f 11/1/1 10/1/1 9/1/1
f 12/1/1 10/1/1 11/1/1
f 13/1/1 11/1/1 1/1/1
f 13/2/1 12/2/1 11/2/1
f 14/2/1 12/2/1 13/2/1
f 15/1/1 14/1/1 13/1/1
f 16/1/1 14/1/1 15/1/1
f 17/1/1 15/1/1 13/1/1
f 17/2/1 16/2/1 15/2/1
f 18/2/1 16/2/1 17/2/1
f 19/1/1 13/1/1 1/1/1
f 19/1/1 17/1/1 13/1/1
f 19/1/1 18/1/1 17/1/1
f 20/1/1 18/1/1 19/1/1
f 21/1/1 19/1/1 1/1/1
f 21/2/1 20/2/1 19/2/1
f 22/2/1 20/2/1 21/2/1
f 23/1/1 21/1/1 1/1/1
f 23/1/1 22/1/1 21/1/1
f 24/1/1 22/1/1 23/1/1
f 27/4/1 26/4/1 25/4/1
f 28/4/1 26/4/1 27/4/1
f 31/4/1 30/4/1 29/4/1
f 32/4/1 30/4/1 31/4/1
f 34/4/1 30/4/1 32/4/1
f 35/4/1 34/4/1 33/4/1
f 36/4/1 30/4/1 34/4/1
f 36/4/1 34/4/1 35/4/1
f 37/4/2 38/4/2 39/4/2
f 39/4/2 38/4/2 40/4/2
f 41/4/2 42/4/2 43/4/2
f 43/4/2 42/4/2 44/4/2
f 45/4/2 46/4/2 47/4/2
f 47/4/2 46/4/2 48/4/2
f 49/1/2 50/1/2 52/1/2
f 50/2/2 51/2/2 52/2/2
f 52/2/2 51/2/2 53/2/2
f 49/1/2 52/1/2 54/1/2
f 52/1/2 53/1/2 54/1/2
f 54/1/2 53/1/2 55/1/2
f 49/1/2 54/1/2 56/1/2
f 54/2/2 55/2/2 56/2/2
f 56/2/2 55/2/2 57/2/2
f 49/1/2 56/1/2 58/1/2
f 56/1/2 57/1/2 58/1/2
f 58/1/2 57/1/2 59/1/2
f 49/1/2 58/1/2 60/1/2
f 58/2/2 59/2/2 60/2/2
f 60/2/2 59/2/2 61/2/2
f 49/1/2 60/1/2 62/1/2
f 60/1/2 61/1/2 62/1/2
f 62/1/2 61/1/2 63/1/2
f 49/1/2 62/1/2 64/1/2
f 62/2/2 63/2/2 64/2/2
f 64/2/2 63/2/2 65/2/2
f 49/1/2 64/1/2 66/1/2
f 64/1/2 65/1/2 66/1/2
f 66/1/2 65/1/2 67/1/2
f 49/1/2 66/1/2 68/1/2
f 66/2/2 67/2/2 68/2/2
f 68/2/2 67/2/2 69/2/2
f 49/1/2 68/1/2 70/1/2
f 68/1/2 69/1/2 70/1/2
f 70/1/2 69/1/2 71/1/2
f 49/1/2 70/1/2 72/1/2
f 70/2/2 71/2/2 72/2/2
f 72/2/2 71/2/2 73/2/2
f 49/1/2 72/1/2 74/1/2
f 72/1/2 73/1/2 74/1/2
f 74/1/2 73/1/2 75/1/2
f 49/1/2 74/1/2 76/1/2
f 74/2/2 75/2/2 76/2/2
f 76/2/2 75/2/2 77/2/2
f 49/1/2 76/1/2 78/1/2
f 76/1/2 77/1/2 78/1/2
f 78/1/2 77/1/2 79/1/2
f 49/1/2 78/1/2 80/1/2
f 78/2/2 79/2/2 80/2/2
f 80/2/2 79/2/2 81/2/2
f 49/1/2 80/1/2 82/1/2
f 80/1/2 81/1/2 82/1/2
f 82/1/2 81/1/2 83/1/2
f 49/1/2 82/1/2 84/1/2
f 82/2/2 83/2/2 84/2/2
f 84/2/2 83/2/2 85/2/2
f 49/1/2 84/1/2 86/1/2
f 84/1/2 85/1/2 86/1/2
f 86/1/2 85/1/2 87/1/2
f 49/1/2 86/1/2 88/1/2
f 86/2/2 87/2/2 88/2/2
f 88/2/2 87/2/2 89/2/2
f 49/1/2 88/1/2 90/1/2
f 88/1/2 89/1/2 90/1/2
f 90/1/2 89/1/2 91/1/2
f 94/1/3 93/1/3 92/1/3
f 95/1/3 93/1/3 94/1/3
f 96/3/4 97/3/4 98/3/4
f 98/3/4 97/3/4 99/3/4
f 100/3/4 101/3/4 104/3/4
f 104/3/4 101/3/4 105/3/4
f 102/3/4 103/3/4 106/3/4
f 106/3/4 103/3/4 107/3/4
f 108/4/4 109/4/4 110/4/4
f 110/4/4 109/4/4 111/4/4
f 111/4/4 109/4/4 112/4/4
f 112/4/4 109/4/4 113/4/4
f 111/4/4 112/4/4 114/4/4
f 114/4/4 112/4/4 115/4/4
f 116/1/4 117/1/4 128/1/4
f 128/1/4 117/1/4 129/1/4
f 118/1/4 119/1/4 130/1/4
f 130/1/4 119/1/4 131/1/4
f 120/1/4 121/1/4 132/1/4
f 132/1/4 121/1/4 133/1/4
f 122/1/4 123/1/4 134/1/4
f 134/1/4 123/1/4 135/1/4
f 124/1/4 125/1/4 136/1/4
f 136/1/4 125/1/4 137/1/4
f 117/2/4 118/2/4 138/2/4
f 129/1/4 117/1/4 138/1/4
f 118/1/4 130/1/4 139/1/4
f 138/2/4 118/2/4 139/2/4
f 119/2/4 120/2/4 140/2/4
f 131/1/4 119/1/4 140/1/4
f 120/1/4 132/1/4 141/1/4
f 140/2/4 120/2/4 141/2/4
f 121/2/4 122/2/4 142/2/4
f 133/1/4 121/1/4 142/1/4
f 122/1/4 134/1/4 143/1/4
f 142/2/4 122/2/4 143/2/4
f 123/2/4 124/2/4 144/2/4
f 135/1/4 123/1/4 144/1/4
f 124/1/4 136/1/4 145/1/4
f 144/2/4 124/2/4 145/2/4
f 137/1/4 125/1/4 146/1/4
f 125/2/4 126/2/4 146/2/4
f 126/1/4 127/1/4 147/1/4
f 146/2/4 126/2/4 147/2/4
f 138/1/4 139/1/4 148/1/4
f 129/1/4 138/1/4 148/1/4
f 139/1/4 130/1/4 149/1/4
f 148/1/4 139/1/4 149/1/4
f 140/1/4 141/1/4 150/1/4
f 131/1/4 140/1/4 150/1/4
f 141/1/4 132/1/4 151/1/4
f 150/1/4 141/1/4 151/1/4
f 142/1/4 143/1/4 152/1/4
f 133/1/4 142/1/4 152/1/4
f 143/1/4 134/1/4 153/1/4
f 152/1/4 143/1/4 153/1/4
f 144/1/4 145/1/4 154/1/4
f 135/1/4 144/1/4 154/1/4
f 145/1/4 136/1/4 155/1/4
f 154/1/4 145/1/4 155/1/4
f 137/1/4 146/1/4 156/1/4
f 146/1/4 147/1/4 156/1/4
f 147/1/4 127/1/4 157/1/4
f 156/1/4 147/1/4 157/1/4
f 131/1/4 150/1/4 158/1/4
f 150/2/4 151/2/4 159/2/4
f 158/1/4 150/1/4 159/1/4
f 151/1/4 132/1/4 160/1/4
f 159/2/4 151/2/4 160/2/4
f 132/2/4 133/2/4 161/2/4
f 160/1/4 132/1/4 161/1/4
f 133/1/4 152/1/4 162/1/4
f 161/2/4 133/2/4 162/2/4
f 152/2/4 153/2/4 163/2/4
f 162/1/4 152/1/4 163/1/4
f 153/1/4 134/1/4 164/1/4
f 163/2/4 153/2/4 164/2/4
f 134/2/4 135/2/4 165/2/4
f 164/1/4 134/1/4 165/1/4
f 135/1/4 154/1/4 166/1/4
f 165/2/4 135/2/4 166/2/4
f 154/2/4 155/2/4 167/2/4
f 166/1/4 154/1/4 167/1/4
f 164/4/4 165/4/4 168/4/4
f 160/4/4 161/4/4 168/4/4
f 166/4/4 167/4/4 168/4/4
f 158/4/4 159/4/4 168/4/4
f 161/4/4 162/4/4 168/4/4
f 163/4/4 164/4/4 168/4/4
f 162/4/4 163/4/4 168/4/4
f 159/4/4 160/4/4 168/4/4
f 165/4/4 166/4/4 168/4/4
f 168/4/4 167/4/4 169/4/4
f 128/2/4 129/2/4 170/2/4
f 129/1/4 148/1/4 171/1/4
f 170/2/4 129/2/4 171/2/4
f 149/1/4 130/1/4 172/1/4
f 130/2/4 131/2/4 172/2/4
f 131/1/4 158/1/4 173/1/4
f 172/2/4 131/2/4 173/2/4
f 155/1/4 136/1/4 174/1/4
f 136/2/4 137/2/4 174/2/4
f 137/1/4 156/1/4 175/1/4
f 174/2/4 137/2/4 175/2/4
f 170/1/4 171/1/4 176/1/4
f 171/1/4 148/1/4 177/1/4
f 176/1/4 171/1/4 177/1/4
f 172/1/4 173/1/4 178/1/4
f 149/1/4 172/1/4 178/1/4
f 173/1/4 158/1/4 179/1/4
f 178/1/4 173/1/4 179/1/4
f 155/1/4 174/1/4 180/1/4
f 174/1/4 175/1/4 180/1/4
f 175/1/4 156/1/4 181/1/4
f 180/1/4 175/1/4 181/1/4
f 177/1/4 148/1/4 182/1/4
f 148/2/4 149/2/4 182/2/4
f 149/1/4 178/1/4 183/1/4
f 182/2/4 149/2/4 183/2/4
f 167/2/4 155/2/4 184/2/4
f 169/4/4 167/4/4 184/4/4
f 155/1/4 180/1/4 185/1/4
f 184/2/4 155/2/4 185/2/4
f 181/1/4 156/1/4 186/1/4
f 156/2/4 157/2/4 186/2/4
f 157/1/4 127/1/4 187/1/4
f 186/2/4 157/2/4 187/2/4
f 177/1/4 182/1/4 188/1/4
f 182/1/4 183/1/4 188/1/4
f 183/1/4 178/1/4 189/1/4
f 188/1/4 183/1/4 189/1/4
f 184/1/4 185/1/4 190/1/4
f 169/4/4 184/4/4 190/4/4
f 185/1/4 180/1/4 191/1/4
f 190/1/4 185/1/4 191/1/4
f 181/1/4 186/1/4 192/1/4
f 186/1/4 187/1/4 192/1/4
f 187/1/4 127/1/4 193/1/4
f 192/1/4 187/1/4 193/1/4
f 176/2/4 177/2/4 194/2/4
f 177/1/4 188/1/4 195/1/4
f 194/2/4 177/2/4 195/2/4
f 189/1/4 178/1/4 196/1/4
f 178/2/4 179/2/4 196/2/4
f 179/1/4 158/1/4 197/1/4
f 196/2/4 179/2/4 197/2/4
f 191/1/4 180/1/4 198/1/4
f 180/2/4 181/2/4 198/2/4
f 181/1/4 192/1/4 199/1/4
f 198/2/4 181/2/4 199/2/4
f 194/1/4 195/1/4 200/1/4
f 195/1/4 188/1/4 201/1/4
f 200/1/4 195/1/4 201/1/4
f 189/1/4 196/1/4 202/1/4
f 196/1/4 197/1/4 202/1/4
f 197/1/4 158/1/4 203/1/4
f 202/1/4 197/1/4 203/1/4
f 191/1/4 198/1/4 204/1/4
f 198/1/4 199/1/4 204/1/4
f 199/1/4 192/1/4 205/1/4
f 204/1/4 199/1/4 205/1/4
f 201/1/4 188/1/4 206/1/4
f 188/2/4 189/2/4 206/2/4
f 189/1/4 202/1/4 207/1/4
f 206/2/4 189/2/4 207/2/4
f 169/4/4 190/4/4 208/4/4
f 190/2/4 191/2/4 208/2/4
f 191/1/4 204/1/4 209/1/4
f 208/2/4 191/2/4 209/2/4
f 205/1/4 192/1/4 210/1/4
f 192/2/4 193/2/4 210/2/4
f 193/1/4 127/1/4 211/1/4
f 210/2/4 193/2/4 211/2/4
f 201/1/4 206/1/4 212/1/4
f 206/1/4 207/1/4 212/1/4
f 207/1/4 202/1/4 213/1/4
f 212/1/4 207/1/4 213/1/4
f 169/4/4 208/4/4 214/4/4
f 208/1/4 209/1/4 214/1/4
f 209/1/4 204/1/4 215/1/4
f 214/1/4 209/1/4 215/1/4
f 205/1/4 210/1/4 216/1/4
f 210/1/4 211/1/4 216/1/4
f 211/1/4 127/1/4 217/1/4
f 216/1/4 211/1/4 217/1/4
f 200/2/4 201/2/4 218/2/4
f 201/1/4 212/1/4 219/1/4
f 218/2/4 201/2/4 219/2/4
f 213/1/4 202/1/4 220/1/4
f 202/2/4 203/2/4 220/2/4
f 203/1/4 158/1/4 221/1/4
f 220/2/4 203/2/4 221/2/4
f 215/1/4 204/1/4 222/1/4
f 204/2/4 205/2/4 222/2/4
f 205/1/4 216/1/4 223/1/4
f 222/2/4 205/2/4 223/2/4
f 218/1/4 219/1/4 224/1/4
f 219/1/4 212/1/4 225/1/4
f 224/1/4 219/1/4 225/1/4
f 213/1/4 220/1/4 226/1/4
f 220/1/4 221/1/4 226/1/4
f 221/1/4 158/1/4 227/1/4
f 226/1/4 221/1/4 227/1/4
f 215/1/4 222/1/4 228/1/4
f 222/1/4 223/1/4 228/1/4
f 223/1/4 216/1/4 229/1/4
f 228/1/4 223/1/4 229/1/4
f 225/1/4 212/1/4 230/1/4
f 212/2/4 213/2/4 230/2/4
f 213/1/4 226/1/4 231/1/4
f 230/2/4 213/2/4 231/2/4
f 169/4/4 214/4/4 232/4/4
f 214/2/4 215/2/4 232/2/4
f 215/1/4 228/1/4 233/1/4
f 232/2/4 215/2/4 233/2/4
f 229/1/4 216/1/4 234/1/4
f 216/2/4 217/2/4 234/2/4
f 217/1/4 127/1/4 235/1/4
f 234/2/4 217/2/4 235/2/4
f 225/1/4 230/1/4 236/1/4
f 230/1/4 231/1/4 236/1/4
f 231/1/4 226/1/4 237/1/4
f 236/1/4 231/1/4 237/1/4
f 169/4/4 232/4/4 238/4/4
f 232/1/4 233/1/4 238/1/4
f 233/1/4 228/1/4 239/1/4
f 238/1/4 233/1/4 239/1/4
f 229/1/4 234/1/4 240/1/4
f 234/1/4 235/1/4 240/1/4
f 235/1/4 127/1/4 241/1/4
f 240/1/4 235/1/4 241/1/4
f 224/2/4 225/2/4 242/2/4
f 225/1/4 236/1/4 243/1/4
f 242/2/4 225/2/4 243/2/4
f 237/1/4 226/1/4 244/1/4
f 226/2/4 227/2/4 244/2/4
f 227/1/4 158/1/4 245/1/4
f 244/2/4 227/2/4 245/2/4
f 239/1/4 228/1/4 246/1/4
f 228/2/4 229/2/4 246/2/4
f 229/1/4 240/1/4 247/1/4
f 246/2/4 229/2/4 247/2/4
f 242/1/4 243/1/4 248/1/4
f 243/1/4 236/1/4 249/1/4
f 248/1/4 243/1/4 249/1/4
f 237/1/4 244/1/4 250/1/4
f 244/1/4 245/1/4 250/1/4
f 245/1/4 158/1/4 251/1/4
f 250/1/4 245/1/4 251/1/4
f 239/1/4 246/1/4 252/1/4
f 246/1/4 247/1/4 252/1/4
f 247/1/4 240/1/4 253/1/4
f 252/1/4 247/1/4 253/1/4
f 249/1/4 236/1/4 254/1/4
f 236/2/4 237/2/4 254/2/4
f 237/1/4 250/1/4 255/1/4
f 254/2/4 237/2/4 255/2/4
f 169/4/4 238/4/4 256/4/4
f 238/2/4 239/2/4 256/2/4
f 239/1/4 252/1/4 257/1/4
f 256/2/4 239/2/4 257/2/4
f 253/1/4 240/1/4 258/1/4
f 240/2/4 241/2/4 258/2/4
f 241/1/4 127/1/4 259/1/4
f 258/2/4 241/2/4 259/2/4
f 249/1/4 254/1/4 260/1/4
f 254/1/4 255/1/4 260/1/4
f 255/1/4 250/1/4 261/1/4
f 260/1/4 255/1/4 261/1/4
f 169/4/4 256/4/4 262/4/4
f 256/1/4 257/1/4 262/1/4
f 257/1/4 252/1/4 263/1/4
f 262/1/4 257/1/4 263/1/4
f 258/1/4 259/1/4 264/1/4
f 253/1/4 258/1/4 264/1/4
f 259/1/4 127/1/4 265/1/4
f 264/1/4 259/1/4 265/1/4
f 248/2/4 249/2/4 266/2/4
f 249/1/4 260/1/4 267/1/4
f 266/2/4 249/2/4 267/2/4
f 261/1/4 250/1/4 268/1/4
f 250/2/4 251/2/4 268/2/4
f 251/1/4 158/1/4 269/1/4
f 268/2/4 251/2/4 269/2/4
f 263/1/4 252/1/4 270/1/4
f 252/2/4 253/2/4 270/2/4
f 253/1/4 264/1/4 271/1/4
f 270/2/4 253/2/4 271/2/4
f 266/1/4 267/1/4 272/1/4
f 267/1/4 260/1/4 273/1/4
f 272/1/4 267/1/4 273/1/4
f 261/1/4 268/1/4 274/1/4
f 268/1/4 269/1/4 274/1/4
f 269/1/4 158/1/4 275/1/4
f 274/1/4 269/1/4 275/1/4
f 263/1/4 270/1/4 276/1/4
f 270/1/4 271/1/4 276/1/4
f 271/1/4 264/1/4 277/1/4
f 276/1/4 271/1/4 277/1/4
f 273/1/4 260/1/4 278/1/4
f 260/2/4 261/2/4 278/2/4
f 261/1/4 274/1/4 279/1/4
f 278/2/4 261/2/4 279/2/4
f 169/4/4 262/4/4 280/4/4
f 262/2/4 263/2/4 280/2/4
f 263/1/4 276/1/4 281/1/4
f 280/2/4 263/2/4 281/2/4
f 277/1/4 264/1/4 282/1/4
f 264/2/4 265/2/4 282/2/4
f 265/1/4 127/1/4 283/1/4
f 282/2/4 265/2/4 283/2/4
f 273/1/4 278/1/4 284/1/4
f 278/1/4 279/1/4 284/1/4
f 279/1/4 274/1/4 285/1/4
f 284/1/4 279/1/4 285/1/4
f 169/4/4 280/4/4 286/4/4
f 280/1/4 281/1/4 286/1/4
f 281/1/4 276/1/4 287/1/4
f 286/1/4 281/1/4 287/1/4
f 282/1/4 283/1/4 288/1/4
f 277/1/4 282/1/4 288/1/4
f 283/1/4 127/1/4 289/1/4
f 288/1/4 283/1/4 289/1/4
f 158/4/4 168/4/4 290/4/4
f 169/4/4 286/4/4 291/4/4
f 272/2/4 273/2/4 292/2/4
f 273/1/4 284/1/4 293/1/4
f 292/2/4 273/2/4 293/2/4
f 285/1/4 274/1/4 294/1/4
f 274/2/4 275/2/4 294/2/4
f 275/1/4 158/1/4 295/1/4
f 294/2/4 275/2/4 295/2/4
f 158/4/4 290/4/4 296/4/4
f 295/1/4 158/1/4 296/1/4
f 290/4/4 291/4/4 296/4/4
f 296/4/4 291/4/4 297/4/4
f 297/4/4 291/4/4 298/4/4
f 298/4/4 291/4/4 299/4/4
f 299/4/4 291/4/4 300/4/4
f 286/2/4 287/2/4 301/2/4
f 300/4/4 291/4/4 301/4/4
f 291/4/4 286/4/4 301/4/4
f 287/1/4 276/1/4 302/1/4
f 276/2/4 277/2/4 302/2/4
f 277/1/4 288/1/4 303/1/4
f 302/2/4 277/2/4 303/2/4
f 292/1/4 293/1/4 304/1/4
f 293/1/4 284/1/4 305/1/4
f 304/1/4 293/1/4 305/1/4
f 294/1/4 295/1/4 306/1/4
f 285/1/4 294/1/4 306/1/4
f 295/1/4 296/1/4 306/1/4
f 296/1/4 297/1/4 306/1/4
f 306/1/4 297/1/4 307/1/4
f 298/1/4 299/1/4 308/1/4
f 308/1/4 299/1/4 309/1/4
f 300/1/4 301/1/4 310/1/4
f 310/1/4 301/1/4 311/1/4
f 287/1/4 302/1/4 312/1/4
f 302/1/4 303/1/4 312/1/4
f 303/1/4 288/1/4 313/1/4
f 312/1/4 303/1/4 313/1/4
f 305/1/4 284/1/4 314/1/4
f 284/2/4 285/2/4 314/2/4
f 285/1/4 306/1/4 315/1/4
f 314/2/4 285/2/4 315/2/4
f 307/1/4 297/1/4 316/1/4
f 297/2/4 298/2/4 316/2/4
f 298/1/4 308/1/4 317/1/4
f 316/2/4 298/2/4 317/2/4
f 299/2/4 300/2/4 318/2/4
f 309/1/4 299/1/4 318/1/4
f 300/1/4 310/1/4 319/1/4
f 318/2/4 300/2/4 319/2/4
f 311/1/4 301/1/4 320/1/4
f 301/2/4 287/2/4 320/2/4
f 287/1/4 312/1/4 321/1/4
f 320/2/4 287/2/4 321/2/4
f 313/1/4 288/1/4 322/1/4
f 288/2/4 289/2/4 322/2/4
f 289/1/4 127/1/4 323/1/4
f 322/2/4 289/2/4 323/2/4
f 314/1/4 315/1/4 324/1/4
f 305/1/4 314/1/4 324/1/4
f 315/1/4 306/1/4 325/1/4
f 324/1/4 315/1/4 325/1/4
f 316/1/4 317/1/4 326/1/4
f 307/1/4 316/1/4 326/1/4
f 317/1/4 308/1/4 327/1/4
f 326/1/4 317/1/4 327/1/4
f 318/1/4 319/1/4 328/1/4
f 309/1/4 318/1/4 328/1/4
f 319/1/4 310/1/4 329/1/4
f 328/1/4 319/1/4 329/1/4
f 311/1/4 320/1/4 330/1/4
f 320/1/4 321/1/4 330/1/4
f 321/1/4 312/1/4 331/1/4
f 330/1/4 321/1/4 331/1/4
f 313/1/4 322/1/4 332/1/4
f 322/1/4 323/1/4 332/1/4
f 323/1/4 127/1/4 333/1/4
f 332/1/4 323/1/4 333/1/4
f 304/2/4 305/2/4 334/2/4
f 305/1/4 324/1/4 335/1/4
f 334/2/4 305/2/4 335/2/4
f 324/2/4 325/2/4 336/2/4
f 335/1/4 324/1/4 336/1/4
f 325/1/4 306/1/4 337/1/4
f 336/2/4 325/2/4 337/2/4
f 306/2/4 307/2/4 338/2/4
f 337/1/4 306/1/4 338/1/4
f 307/1/4 326/1/4 339/1/4
f 338/2/4 307/2/4 339/2/4
f 326/2/4 327/2/4 340/2/4
f 339/1/4 326/1/4 340/1/4
f 327/1/4 308/1/4 341/1/4
f 340/2/4 327/2/4 341/2/4
f 308/2/4 309/2/4 342/2/4
f 341/1/4 308/1/4 342/1/4
f 309/1/4 328/1/4 343/1/4
f 342/2/4 309/2/4 343/2/4
f 328/2/4 329/2/4 344/2/4
f 343/1/4 328/1/4 344/1/4
f 329/1/4 310/1/4 345/1/4
f 344/2/4 329/2/4 345/2/4
f 310/2/4 311/2/4 346/2/4
f 345/1/4 310/1/4 346/1/4
f 311/1/4 330/1/4 347/1/4
f 346/2/4 311/2/4 347/2/4
f 330/2/4 331/2/4 348/2/4
f 347/1/4 330/1/4 348/1/4
f 331/1/4 312/1/4 349/1/4
f 348/2/4 331/2/4 349/2/4
f 312/2/4 313/2/4 350/2/4
f 349/1/4 312/1/4 350/1/4
f 313/1/4 332/1/4 351/1/4
f 350/2/4 313/2/4 351/2/4
f 332/2/4 333/2/4 352/2/4
f 351/1/4 332/1/4 352/1/4
f 333/1/4 127/1/4 353/1/4
f 352/2/4 333/2/4 353/2/4
f 353/1/4 127/1/4 354/1/4
f 357/1/5 356/1/5 355/1/5
f 358/1/5 356/1/5 357/1/5
f 359/1/5 356/1/5 358/1/5
f 360/1/5 356/1/5 359/1/5
f 361/1/5 356/1/5 360/1/5
f 362/1/5 356/1/5 361/1/5
f 363/1/5 356/1/5 362/1/5
f 364/1/5 356/1/5 363/1/5
f 365/1/5 356/1/5 364/1/5
f 366/1/5 356/1/5 365/1/5
f 367/1/5 356/1/5 366/1/5
f 368/1/5 356/1/5 367/1/5
f 369/1/5 356/1/5 368/1/5
f 370/1/5 356/1/5 369/1/5
f 371/1/5 357/1/5 355/1/5
f 372/2/5 358/2/5 357/2/5
f 372/1/5 357/1/5 371/1/5
f 373/1/5 359/1/5 358/1/5
f 373/2/5 358/2/5 372/2/5
f 374/2/5 360/2/5 359/2/5
f 374/1/5 359/1/5 373/1/5
f 375/1/5 361/1/5 360/1/5
f 375/2/5 360/2/5 374/2/5
f 376/2/5 362/2/5 361/2/5
f 376/1/5 361/1/5 375/1/5
f 377/1/5 363/1/5 362/1/5
f 377/2/5 362/2/5 376/2/5
f 378/2/5 364/2/5 363/2/5
f 378/1/5 363/1/5 377/1/5
f 379/1/5 365/1/5 364/1/5
f 379/2/5 364/2/5 378/2/5
f 380/2/5 366/2/5 365/2/5
f 380/1/5 365/1/5 379/1/5
f 381/1/5 367/1/5 366/1/5
f 381/2/5 366/2/5 380/2/5
f 382/2/5 368/2/5 367/2/5
f 382/1/5 367/1/5 381/1/5
f 383/1/5 369/1/5 368/1/5
f 383/2/5 368/2/5 382/2/5
f 384/2/5 370/2/5 369/2/5
f 384/1/5 369/1/5 383/1/5
f 385/2/5 370/2/5 384/2/5
f 388/4/5 387/4/5 386/4/5
f 389/4/5 387/4/5 388/4/5
f 394/4/5 391/4/5 390/4/5
f 395/4/5 393/4/5 392/4/5
f 396/4/5 394/4/5 390/4/5
f 396/4/5 395/4/5 394/4/5
f 397/4/5 393/4/5 395/4/5
f 397/4/5 395/4/5 396/4/5
f 398/4/6 399/4/6 402/4/6
f 400/4/6 401/4/6 403/4/6
f 398/4/6 402/4/6 404/4/6
f 402/4/6 403/4/6 404/4/6
f 403/4/6 401/4/6 405/4/6
f 404/4/6 403/4/6 405/4/6
f 406/4/6 407/4/6 408/4/6
f 408/4/6 407/4/6 409/4/6
f 410/1/6 411/1/6 412/1/6
f 412/1/6 411/1/6 413/1/6
