# MagicaVoxel @ Ephtracy

# group
o lod2

# material
mtllib wallWithWindow2-1-lod2.mtl
usemtl palette

# normals
vn 1 0 0
vn -1 0 0
vn 0 0 -1
vn 0 0 1
vn 0 -1 0
vn 0 1 0

# texcoords
vt 0.00585938 0.5
vt 0.00976563 0.5
vt 0.705078 0.5
vt 0.962891 0.5

# verts
v 8 0 -0.3
v 8 0 0.3
v 8 16 -0.3
v 8 16 0.3
v -8 0 -0.3
v -8 0 0.3
v -8 16 -0.3
v -8 16 0.3
v 8 0 -0.3
v 8 16 -0.3
v -8 0 -0.3
v -8 16 -0.3
v 8 0 0.3
v 8 16 0.3
v 7.9 0.1 0.3
v 7.9 1.2 0.3
v 7.9 1.6 0.3
v 7.9 2.8 0.3
v 7.9 3.2 0.3
v 7.9 4.4 0.3
v 7.9 4.8 0.3
v 7.9 6 0.3
v 7.9 6.4 0.3
v 7.9 7.6 0.3
v 7.9 8 0.3
v 7.9 9.2 0.3
v 7.9 9.6 0.3
v 7.9 10.8 0.3
v 7.9 11.2 0.3
v 7.9 12.4 0.3
v 7.9 12.8 0.3
v 7.9 14 0.3
v 7.9 14.4 0.3
v 7.9 15.6 0.3
v 6.4 4.5 0.3
v 6.4 4.8 0.3
v 6.4 6 0.3
v 6.4 6.4 0.3
v 6.4 7.6 0.3
v 6.4 8 0.3
v 6.4 9.2 0.3
v 6.4 9.6 0.3
v 6.4 10.8 0.3
v 6.4 11.2 0.3
v 6.1 4.8 0.3
v 6.1 10.9 0.3
v -1.9 4.8 0.3
v -1.9 10.9 0.3
v -2.1 4.8 0.3
v -2.1 8.5 0.3
v -2.1 8.7 0.3
v -2.1 10.9 0.3
v -5.7 4.8 0.3
v -5.7 8.5 0.3
v -5.7 8.7 0.3
v -5.7 10.9 0.3
v -6 4.5 0.3
v -6 4.8 0.3
v -6 6 0.3
v -6 6.4 0.3
v -6 7.6 0.3
v -6 8 0.3
v -6 9.2 0.3
v -6 9.6 0.3
v -6 10.8 0.3
v -6 11.2 0.3
v -7.9 0.1 0.3
v -7.9 1.2 0.3
v -7.9 1.6 0.3
v -7.9 2.8 0.3
v -7.9 3.2 0.3
v -7.9 4.4 0.3
v -7.9 4.8 0.3
v -7.9 6 0.3
v -7.9 6.4 0.3
v -7.9 7.6 0.3
v -7.9 8 0.3
v -7.9 9.2 0.3
v -7.9 9.6 0.3
v -7.9 10.8 0.3
v -7.9 11.2 0.3
v -7.9 12.4 0.3
v -7.9 12.8 0.3
v -7.9 14 0.3
v -7.9 14.4 0.3
v -7.9 15.6 0.3
v -8 0 0.3
v -8 16 0.3
v 8 0 -0.3
v -8 0 -0.3
v 8 0 0.3
v -8 0 0.3
v 8 16 -0.3
v -8 16 -0.3
v 8 16 0.3
v -8 16 0.3

# faces
f 3/1/1 2/1/1 1/1/1
f 4/1/1 2/1/1 3/1/1
f 5/1/2 6/1/2 7/1/2
f 7/1/2 6/1/2 8/1/2
f 11/1/3 10/1/3 9/1/3
f 12/1/3 10/1/3 11/1/3
f 13/1/4 14/1/4 15/1/4
f 15/1/4 14/1/4 16/1/4
f 16/1/4 14/1/4 17/1/4
f 17/1/4 14/1/4 18/1/4
f 18/1/4 14/1/4 19/1/4
f 19/1/4 14/1/4 20/1/4
f 20/1/4 14/1/4 21/1/4
f 21/1/4 14/1/4 22/1/4
f 22/1/4 14/1/4 23/1/4
f 23/1/4 14/1/4 24/1/4
f 24/1/4 14/1/4 25/1/4
f 25/1/4 14/1/4 26/1/4
f 26/1/4 14/1/4 27/1/4
f 27/1/4 14/1/4 28/1/4
f 28/1/4 14/1/4 29/1/4
f 29/1/4 14/1/4 30/1/4
f 30/1/4 14/1/4 31/1/4
f 31/1/4 14/1/4 32/1/4
f 32/1/4 14/1/4 33/1/4
f 33/1/4 14/1/4 34/1/4
f 20/1/4 21/1/4 35/1/4
f 21/2/4 22/2/4 36/2/4
f 35/1/4 21/1/4 36/1/4
f 22/1/4 23/1/4 37/1/4
f 36/2/4 22/2/4 37/2/4
f 23/2/4 24/2/4 38/2/4
f 37/1/4 23/1/4 38/1/4
f 24/1/4 25/1/4 39/1/4
f 38/2/4 24/2/4 39/2/4
f 25/2/4 26/2/4 40/2/4
f 39/1/4 25/1/4 40/1/4
f 26/1/4 27/1/4 41/1/4
f 40/2/4 26/2/4 41/2/4
f 27/2/4 28/2/4 42/2/4
f 41/1/4 27/1/4 42/1/4
f 28/1/4 29/1/4 43/1/4
f 42/2/4 28/2/4 43/2/4
f 29/2/4 30/2/4 44/2/4
f 43/1/4 29/1/4 44/1/4
f 35/4/4 36/4/4 45/4/4
f 36/4/4 37/4/4 45/4/4
f 43/4/4 44/4/4 45/4/4
f 37/4/4 38/4/4 45/4/4
f 38/4/4 39/4/4 45/4/4
f 39/4/4 40/4/4 45/4/4
f 40/4/4 41/4/4 45/4/4
f 42/4/4 43/4/4 45/4/4
f 41/4/4 42/4/4 45/4/4
f 45/4/4 44/4/4 46/4/4
f 35/4/4 45/4/4 47/4/4
f 45/3/4 46/3/4 47/3/4
f 46/4/4 44/4/4 48/4/4
f 47/3/4 46/3/4 48/3/4
f 35/4/4 47/4/4 49/4/4
f 47/4/4 48/4/4 49/4/4
f 49/4/4 48/4/4 50/4/4
f 50/4/4 48/4/4 51/4/4
f 48/4/4 44/4/4 52/4/4
f 51/4/4 48/4/4 52/4/4
f 35/4/4 49/4/4 53/4/4
f 49/3/4 50/3/4 53/3/4
f 50/4/4 51/4/4 54/4/4
f 53/3/4 50/3/4 54/3/4
f 51/3/4 52/3/4 55/3/4
f 54/4/4 51/4/4 55/4/4
f 52/4/4 44/4/4 56/4/4
f 55/3/4 52/3/4 56/3/4
f 20/1/4 35/1/4 57/1/4
f 35/4/4 53/4/4 57/4/4
f 55/4/4 56/4/4 57/4/4
f 53/4/4 54/4/4 57/4/4
f 54/4/4 55/4/4 57/4/4
f 57/4/4 56/4/4 58/4/4
f 58/4/4 56/4/4 59/4/4
f 59/4/4 56/4/4 60/4/4
f 60/4/4 56/4/4 61/4/4
f 61/4/4 56/4/4 62/4/4
f 62/4/4 56/4/4 63/4/4
f 63/4/4 56/4/4 64/4/4
f 64/4/4 56/4/4 65/4/4
f 56/4/4 44/4/4 66/4/4
f 65/4/4 56/4/4 66/4/4
f 44/2/4 30/2/4 66/2/4
f 13/1/4 15/1/4 67/1/4
f 15/2/4 16/2/4 67/2/4
f 16/1/4 17/1/4 68/1/4
f 67/2/4 16/2/4 68/2/4
f 17/2/4 18/2/4 69/2/4
f 68/1/4 17/1/4 69/1/4
f 18/1/4 19/1/4 70/1/4
f 69/2/4 18/2/4 70/2/4
f 19/2/4 20/2/4 71/2/4
f 70/1/4 19/1/4 71/1/4
f 20/1/4 57/1/4 72/1/4
f 71/2/4 20/2/4 72/2/4
f 57/1/4 58/1/4 72/1/4
f 58/2/4 59/2/4 73/2/4
f 72/1/4 58/1/4 73/1/4
f 59/1/4 60/1/4 74/1/4
f 73/2/4 59/2/4 74/2/4
f 60/2/4 61/2/4 75/2/4
f 74/1/4 60/1/4 75/1/4
f 61/1/4 62/1/4 76/1/4
f 75/2/4 61/2/4 76/2/4
f 62/2/4 63/2/4 77/2/4
f 76/1/4 62/1/4 77/1/4
f 63/1/4 64/1/4 78/1/4
f 77/2/4 63/2/4 78/2/4
f 64/2/4 65/2/4 79/2/4
f 78/1/4 64/1/4 79/1/4
f 65/1/4 66/1/4 80/1/4
f 79/2/4 65/2/4 80/2/4
f 66/2/4 30/2/4 81/2/4
f 80/1/4 66/1/4 81/1/4
f 30/1/4 31/1/4 82/1/4
f 81/2/4 30/2/4 82/2/4
f 31/2/4 32/2/4 83/2/4
f 82/1/4 31/1/4 83/1/4
f 32/1/4 33/1/4 84/1/4
f 83/2/4 32/2/4 84/2/4
f 33/2/4 34/2/4 85/2/4
f 84/1/4 33/1/4 85/1/4
f 34/1/4 14/1/4 86/1/4
f 85/2/4 34/2/4 86/2/4
f 79/1/4 80/1/4 87/1/4
f 78/1/4 79/1/4 87/1/4
f 85/1/4 86/1/4 87/1/4
f 74/1/4 75/1/4 87/1/4
f 73/1/4 74/1/4 87/1/4
f 72/1/4 73/1/4 87/1/4
f 71/1/4 72/1/4 87/1/4
f 75/1/4 76/1/4 87/1/4
f 70/1/4 71/1/4 87/1/4
f 80/1/4 81/1/4 87/1/4
f 81/1/4 82/1/4 87/1/4
f 82/1/4 83/1/4 87/1/4
f 83/1/4 84/1/4 87/1/4
f 76/1/4 77/1/4 87/1/4
f 77/1/4 78/1/4 87/1/4
f 84/1/4 85/1/4 87/1/4
f 69/1/4 70/1/4 87/1/4
f 68/1/4 69/1/4 87/1/4
f 67/1/4 68/1/4 87/1/4
f 13/1/4 67/1/4 87/1/4
f 86/1/4 14/1/4 88/1/4
f 87/1/4 86/1/4 88/1/4
f 91/1/5 90/1/5 89/1/5
f 92/1/5 90/1/5 91/1/5
f 93/1/6 94/1/6 95/1/6
f 95/1/6 94/1/6 96/1/6
