# MagicaVoxel @ Ephtracy

# group
o lod2

# material
mtllib bush1-0-lod2.mtl
usemtl palette

# normals
vn -1 0 0
vn 1 0 0
vn 0 0 1
vn 0 0 -1
vn 0 -1 0
vn 0 1 0

# texcoords
vt 0.537109 0.5
vt 0.892578 0.5
vt 0.896484 0.5
vt 0.900391 0.5

# verts
v -4.4 0.9 2.2
v -4.4 0.9 -1.9
v -4.4 2.9 2.2
v -4.4 2.9 -1.9
v -3.8 0.4 2.7
v -3.8 0.4 -2.4
v -3.8 0.9 2.2
v -3.8 0.9 -1.9
v -3.8 2.9 2.2
v -3.8 2.9 -1.9
v -3.8 3.3 2.7
v -3.8 3.3 -2.4
v -3.3 -0.1 3.1
v -3.3 -0.1 -3.1
v -3.3 0.4 2.7
v -3.3 0.4 -2.4
v -3.3 3.3 2.7
v -3.3 3.3 -2.4
v -3.3 3.8 3.1
v -3.3 3.8 -3.1
v -2.9 0.3 -3.1
v -2.9 0.3 -3.3
v -2.9 0.3 -3.6
v -2.9 3.3 -3.1
v -2.9 3.3 -3.3
v -2.9 3.3 -3.6
v -2.7 0.5 3.7
v -2.7 0.5 3.4
v -2.7 0.5 3.2
v -2.7 0.5 3.1
v -2.7 3.3 3.7
v -2.7 3.3 3.4
v -2.7 3.3 3.2
v -2.7 3.3 3.1
v -2.6 -0.7 2.5
v -2.6 -0.7 -2.6
v -2.6 -0.1 2.5
v -2.6 -0.1 -2.6
v -2.3 0.9 -3.6
v -2.3 0.9 -4.2
v -2.3 2.9 -3.6
v -2.3 2.9 -4.2
v -2.3 3.8 2.5
v -2.3 3.8 -2.5
v -2.3 4.2 2.5
v -2.3 4.2 -2.5
v -2.2 1 4.2
v -2.2 1 3.7
v -2.2 2.9 4.2
v -2.2 2.9 3.7
v -2 -1.3 1.9
v -2 -1.3 -2
v -2 -0.7 1.9
v -2 -0.7 -2
v -1.6 4.2 1.8
v -1.6 4.2 -1.9
v -1.6 4.4 1.8
v -1.6 4.4 -1.9
v -1.6 4.6 1.8
v -1.6 4.6 -1.9
v -1.1 4.6 1.2
v -1.1 4.6 -1.4
v -1.1 4.9 1.2
v -1.1 4.9 -1.4
v 1.7 4.6 1.2
v 1.7 4.6 -1.4
v 1.7 4.9 1.2
v 1.7 4.9 -1.4
v 2.1 -1.3 1.9
v 2.1 -1.3 -2
v 2.1 -0.7 1.9
v 2.1 -0.7 -2
v 2.2 0.9 -3.6
v 2.2 0.9 -4.2
v 2.2 2.9 -3.6
v 2.2 2.9 -4.2
v 2.2 4.2 1.8
v 2.2 4.2 -1.9
v 2.2 4.4 1.8
v 2.2 4.4 -1.9
v 2.2 4.6 1.8
v 2.2 4.6 -1.9
v 2.4 1 4.2
v 2.4 1 3.7
v 2.4 2.9 4.2
v 2.4 2.9 3.7
v 2.7 -0.7 2.5
v 2.7 -0.7 -2.6
v 2.7 -0.1 2.5
v 2.7 -0.1 -2.6
v 2.8 0.3 -3.1
v 2.8 0.3 -3.3
v 2.8 0.3 -3.6
v 2.8 3.3 -3.1
v 2.8 3.3 -3.3
v 2.8 3.3 -3.6
v 2.8 3.8 2.5
v 2.8 3.8 -2.5
v 2.8 4.2 2.5
v 2.8 4.2 -2.5
v 2.9 0.5 3.7
v 2.9 0.5 3.4
v 2.9 0.5 3.2
v 2.9 0.5 3.1
v 2.9 3.3 3.7
v 2.9 3.3 3.4
v 2.9 3.3 3.2
v 2.9 3.3 3.1
v 3.4 -0.1 3.1
v 3.4 -0.1 -3.1
v 3.4 0.5 2.5
v 3.4 0.5 -2.5
v 3.4 3.3 2.5
v 3.4 3.3 -2.5
v 3.4 3.8 3.1
v 3.4 3.8 -3.1
v 3.9 0.5 2.5
v 3.9 0.5 -2.5
v 3.9 1 2
v 3.9 1 -2
v 3.9 2.9 2
v 3.9 2.9 -2
v 3.9 3.3 2.5
v 3.9 3.3 -2.5
v 4.4 1 2
v 4.4 1 -2
v 4.4 2.9 2
v 4.4 2.9 -2
v -2.2 1 4.2
v -2.2 2.9 4.2
v 2.4 1 4.2
v 2.4 2.9 4.2
v -2.7 0.5 3.7
v -2.7 3.3 3.7
v -2.2 1 3.7
v -2.2 2.9 3.7
v 2.4 1 3.7
v 2.4 2.9 3.7
v 2.9 0.5 3.7
v 2.9 3.3 3.7
v -3.3 -0.1 3.1
v -3.3 3.8 3.1
v -2.7 0.5 3.1
v -2.7 3.3 3.1
v 2.9 0.5 3.1
v 2.9 3.3 3.1
v 3.4 -0.1 3.1
v 3.4 3.8 3.1
v -3.8 0.4 2.7
v -3.8 3.3 2.7
v -3.6 0.4 2.7
v -3.6 3.3 2.7
v -3.4 0.4 2.7
v -3.4 3.3 2.7
v -3.3 0.4 2.7
v -3.3 3.3 2.7
v -2.6 -0.7 2.5
v -2.6 -0.1 2.5
v -2.3 3.8 2.5
v -2.3 4.2 2.5
v 2.7 -0.7 2.5
v 2.7 -0.1 2.5
v 2.8 3.8 2.5
v 2.8 4.2 2.5
v 3.4 0.5 2.5
v 3.4 3.3 2.5
v 3.5 0.5 2.5
v 3.5 3.3 2.5
v 3.9 0.5 2.5
v 3.9 3.3 2.5
v -4.4 0.9 2.2
v -4.4 2.9 2.2
v -3.8 0.9 2.2
v -3.8 2.9 2.2
v 3.9 1 2
v 3.9 2.9 2
v 4.4 1 2
v 4.4 2.9 2
v -2 -1.3 1.9
v -2 -0.7 1.9
v 2.1 -1.3 1.9
v 2.1 -0.7 1.9
v -1.6 4.2 1.8
v -1.6 4.4 1.8
v -1.6 4.6 1.8
v 2.2 4.2 1.8
v 2.2 4.4 1.8
v 2.2 4.6 1.8
v -1.1 4.6 1.2
v -1.1 4.9 1.2
v 1.7 4.6 1.2
v 1.7 4.9 1.2
v -1.1 4.6 -1.4
v -1.1 4.9 -1.4
v 1.7 4.6 -1.4
v 1.7 4.9 -1.4
v -4.4 0.9 -1.9
v -4.4 2.9 -1.9
v -3.8 0.9 -1.9
v -3.8 2.9 -1.9
v -1.6 4.2 -1.9
v -1.6 4.4 -1.9
v -1.6 4.6 -1.9
v 2.2 4.2 -1.9
v 2.2 4.4 -1.9
v 2.2 4.6 -1.9
v -2 -1.3 -2
v -2 -0.7 -2
v 2.1 -1.3 -2
v 2.1 -0.7 -2
v 3.9 1 -2
v 3.9 2.9 -2
v 4.4 1 -2
v 4.4 2.9 -2
v -3.8 0.4 -2.4
v -3.8 3.3 -2.4
v -3.6 0.4 -2.4
v -3.6 3.3 -2.4
v -3.4 0.4 -2.4
v -3.4 3.3 -2.4
v -3.3 0.4 -2.4
v -3.3 3.3 -2.4
v -2.3 3.8 -2.5
v -2.3 4.2 -2.5
v 2.8 3.8 -2.5
v 2.8 4.2 -2.5
v 3.4 0.5 -2.5
v 3.4 3.3 -2.5
v 3.5 0.5 -2.5
v 3.5 3.3 -2.5
v 3.9 0.5 -2.5
v 3.9 3.3 -2.5
v -2.6 -0.7 -2.6
v -2.6 -0.1 -2.6
v 2.7 -0.7 -2.6
v 2.7 -0.1 -2.6
v -3.3 -0.1 -3.1
v -3.3 3.8 -3.1
v -2.9 0.3 -3.1
v -2.9 3.3 -3.1
v 2.8 0.3 -3.1
v 2.8 3.3 -3.1
v 3.4 -0.1 -3.1
v 3.4 3.8 -3.1
v -2.9 0.3 -3.6
v -2.9 3.3 -3.6
v -2.3 0.9 -3.6
v -2.3 2.9 -3.6
v 2.2 0.9 -3.6
v 2.2 2.9 -3.6
v 2.8 0.3 -3.6
v 2.8 3.3 -3.6
v -2.3 0.9 -4.2
v -2.3 2.9 -4.2
v 2.2 0.9 -4.2
v 2.2 2.9 -4.2
v -2 -1.3 1.9
v 2.1 -1.3 1.9
v -2 -1.3 -2
v 2.1 -1.3 -2
v -2.6 -0.7 2.5
v 2.7 -0.7 2.5
v -2 -0.7 1.9
v 2.1 -0.7 1.9
v -2 -0.7 -2
v 2.1 -0.7 -2
v -2.6 -0.7 -2.6
v 2.7 -0.7 -2.6
v -3.3 -0.1 3.1
v 3.4 -0.1 3.1
v -2.6 -0.1 2.5
v 2.7 -0.1 2.5
v -2.6 -0.1 -2.6
v 2.7 -0.1 -2.6
v -3.3 -0.1 -3.1
v 3.4 -0.1 -3.1
v -2.9 0.3 -3.1
v 2.8 0.3 -3.1
v -2.9 0.3 -3.3
v 2.8 0.3 -3.3
v -2.9 0.3 -3.6
v 2.8 0.3 -3.6
v -3.8 0.4 2.7
v -3.6 0.4 2.7
v -3.4 0.4 2.7
v -3.3 0.4 2.7
v -3.8 0.4 -2.4
v -3.6 0.4 -2.4
v -3.4 0.4 -2.4
v -3.3 0.4 -2.4
v -2.7 0.5 3.7
v 2.9 0.5 3.7
v -2.7 0.5 3.4
v 2.9 0.5 3.4
v -2.7 0.5 3.2
v 2.9 0.5 3.2
v -2.7 0.5 3.1
v 2.9 0.5 3.1
v 3.4 0.5 2.5
v 3.5 0.5 2.5
v 3.9 0.5 2.5
v 3.4 0.5 -2.5
v 3.5 0.5 -2.5
v 3.9 0.5 -2.5
v -4.4 0.9 2.2
v -3.8 0.9 2.2
v -4.4 0.9 -1.9
v -3.8 0.9 -1.9
v -2.3 0.9 -3.6
v 2.2 0.9 -3.6
v -2.3 0.9 -4.2
v 2.2 0.9 -4.2
v -2.2 1 4.2
v 2.4 1 4.2
v -2.2 1 3.7
v 2.4 1 3.7
v 3.9 1 2
v 4.4 1 2
v 3.9 1 -2
v 4.4 1 -2
v -2.2 2.9 4.2
v 2.4 2.9 4.2
v -2.2 2.9 3.7
v 2.4 2.9 3.7
v -4.4 2.9 2.2
v -3.8 2.9 2.2
v 3.9 2.9 2
v 4.4 2.9 2
v -4.4 2.9 -1.9
v -3.8 2.9 -1.9
v 3.9 2.9 -2
v 4.4 2.9 -2
v -2.3 2.9 -3.6
v 2.2 2.9 -3.6
v -2.3 2.9 -4.2
v 2.2 2.9 -4.2
v -2.7 3.3 3.7
v 2.9 3.3 3.7
v -2.7 3.3 3.4
v 2.9 3.3 3.4
v -2.7 3.3 3.2
v 2.9 3.3 3.2
v -2.7 3.3 3.1
v 2.9 3.3 3.1
v -3.8 3.3 2.7
v -3.6 3.3 2.7
v -3.4 3.3 2.7
v -3.3 3.3 2.7
v 3.4 3.3 2.5
v 3.5 3.3 2.5
v 3.9 3.3 2.5
v -3.8 3.3 -2.4
v -3.6 3.3 -2.4
v -3.4 3.3 -2.4
v -3.3 3.3 -2.4
v 3.4 3.3 -2.5
v 3.5 3.3 -2.5
v 3.9 3.3 -2.5
v -2.9 3.3 -3.1
v 2.8 3.3 -3.1
v -2.9 3.3 -3.3
v 2.8 3.3 -3.3
v -2.9 3.3 -3.6
v 2.8 3.3 -3.6
v -3.3 3.8 3.1
v 3.4 3.8 3.1
v -2.3 3.8 2.5
v 2.8 3.8 2.5
v -2.3 3.8 -2.5
v 2.8 3.8 -2.5
v -3.3 3.8 -3.1
v 3.4 3.8 -3.1
v -2.3 4.2 2.5
v 2.8 4.2 2.5
v -1.6 4.2 1.8
v 2.2 4.2 1.8
v -1.6 4.2 -1.9
v 2.2 4.2 -1.9
v -2.3 4.2 -2.5
v 2.8 4.2 -2.5
v -1.6 4.6 1.8
v 2.2 4.6 1.8
v -1.1 4.6 1.2
v 1.7 4.6 1.2
v -1.1 4.6 -1.4
v 1.7 4.6 -1.4
v -1.6 4.6 -1.9
v 2.2 4.6 -1.9
v -1.1 4.9 1.2
v 1.7 4.9 1.2
v -1.1 4.9 -1.4
v 1.7 4.9 -1.4

# faces
f 3/2/1 2/2/1 1/2/1
f 4/2/1 2/2/1 3/2/1
f 7/3/1 6/3/1 5/3/1
f 8/3/1 6/3/1 7/3/1
f 9/3/1 7/3/1 5/3/1
f 10/3/1 6/3/1 8/3/1
f 11/3/1 9/3/1 5/3/1
f 11/3/1 10/3/1 9/3/1
f 12/3/1 6/3/1 10/3/1
f 12/3/1 10/3/1 11/3/1
f 15/4/1 14/4/1 13/4/1
f 16/4/1 14/4/1 15/4/1
f 17/4/1 15/4/1 13/4/1
f 18/4/1 14/4/1 16/4/1
f 19/4/1 17/4/1 13/4/1
f 19/4/1 18/4/1 17/4/1
f 20/4/1 14/4/1 18/4/1
f 20/4/1 18/4/1 19/4/1
f 24/1/1 22/1/1 21/1/1
f 25/3/1 23/3/1 22/3/1
f 25/1/1 22/1/1 24/1/1
f 26/3/1 23/3/1 25/3/1
f 31/3/1 28/3/1 27/3/1
f 32/1/1 29/1/1 28/1/1
f 32/3/1 28/3/1 31/3/1
f 33/3/1 30/3/1 29/3/1
f 33/1/1 29/1/1 32/1/1
f 34/3/1 30/3/1 33/3/1
f 37/3/1 36/3/1 35/3/1
f 38/3/1 36/3/1 37/3/1
f 41/2/1 40/2/1 39/2/1
f 42/2/1 40/2/1 41/2/1
f 45/3/1 44/3/1 43/3/1
f 46/3/1 44/3/1 45/3/1
f 49/2/1 48/2/1 47/2/1
f 50/2/1 48/2/1 49/2/1
f 53/1/1 52/1/1 51/1/1
f 54/1/1 52/1/1 53/1/1
f 57/1/1 56/1/1 55/1/1
f 58/1/1 56/1/1 57/1/1
f 59/3/1 58/3/1 57/3/1
f 60/3/1 58/3/1 59/3/1
f 63/2/1 62/2/1 61/2/1
f 64/2/1 62/2/1 63/2/1
f 65/2/2 66/2/2 67/2/2
f 67/2/2 66/2/2 68/2/2
f 69/1/2 70/1/2 71/1/2
f 71/1/2 70/1/2 72/1/2
f 73/2/2 74/2/2 75/2/2
f 75/2/2 74/2/2 76/2/2
f 77/1/2 78/1/2 79/1/2
f 79/1/2 78/1/2 80/1/2
f 79/3/2 80/3/2 81/3/2
f 81/3/2 80/3/2 82/3/2
f 83/2/2 84/2/2 85/2/2
f 85/2/2 84/2/2 86/2/2
f 87/3/2 88/3/2 89/3/2
f 89/3/2 88/3/2 90/3/2
f 91/1/2 92/1/2 94/1/2
f 92/3/2 93/3/2 95/3/2
f 94/1/2 92/1/2 95/1/2
f 95/3/2 93/3/2 96/3/2
f 97/3/2 98/3/2 99/3/2
f 99/3/2 98/3/2 100/3/2
f 101/3/2 102/3/2 105/3/2
f 102/1/2 103/1/2 106/1/2
f 105/3/2 102/3/2 106/3/2
f 103/3/2 104/3/2 107/3/2
f 106/1/2 103/1/2 107/1/2
f 107/3/2 104/3/2 108/3/2
f 109/4/2 110/4/2 111/4/2
f 111/4/2 110/4/2 112/4/2
f 109/4/2 111/4/2 113/4/2
f 112/4/2 110/4/2 114/4/2
f 109/4/2 113/4/2 115/4/2
f 113/4/2 114/4/2 115/4/2
f 114/4/2 110/4/2 116/4/2
f 115/4/2 114/4/2 116/4/2
f 117/1/2 118/1/2 119/1/2
f 119/1/2 118/1/2 120/1/2
f 117/1/2 119/1/2 121/1/2
f 120/1/2 118/1/2 122/1/2
f 117/1/2 121/1/2 123/1/2
f 121/1/2 122/1/2 123/1/2
f 122/1/2 118/1/2 124/1/2
f 123/1/2 122/1/2 124/1/2
f 125/2/2 126/2/2 127/2/2
f 127/2/2 126/2/2 128/2/2
f 131/2/3 130/2/3 129/2/3
f 132/2/3 130/2/3 131/2/3
f 135/3/3 134/3/3 133/3/3
f 136/3/3 134/3/3 135/3/3
f 137/3/3 135/3/3 133/3/3
f 138/3/3 134/3/3 136/3/3
f 139/3/3 137/3/3 133/3/3
f 139/3/3 138/3/3 137/3/3
f 140/3/3 134/3/3 138/3/3
f 140/3/3 138/3/3 139/3/3
f 143/4/3 142/4/3 141/4/3
f 144/4/3 142/4/3 143/4/3
f 145/4/3 143/4/3 141/4/3
f 146/4/3 142/4/3 144/4/3
f 147/4/3 145/4/3 141/4/3
f 147/4/3 146/4/3 145/4/3
f 148/4/3 142/4/3 146/4/3
f 148/4/3 146/4/3 147/4/3
f 151/3/3 150/3/3 149/3/3
f 152/3/3 150/3/3 151/3/3
f 153/1/3 152/1/3 151/1/3
f 154/1/3 152/1/3 153/1/3
f 155/3/3 154/3/3 153/3/3
f 156/3/3 154/3/3 155/3/3
f 161/3/3 158/3/3 157/3/3
f 162/3/3 158/3/3 161/3/3
f 163/3/3 160/3/3 159/3/3
f 164/3/3 160/3/3 163/3/3
f 167/3/3 166/3/3 165/3/3
f 168/3/3 166/3/3 167/3/3
f 169/1/3 168/1/3 167/1/3
f 170/1/3 168/1/3 169/1/3
f 173/2/3 172/2/3 171/2/3
f 174/2/3 172/2/3 173/2/3
f 177/2/3 176/2/3 175/2/3
f 178/2/3 176/2/3 177/2/3
f 181/1/3 180/1/3 179/1/3
f 182/1/3 180/1/3 181/1/3
f 186/1/3 184/1/3 183/1/3
f 187/3/3 185/3/3 184/3/3
f 187/1/3 184/1/3 186/1/3
f 188/3/3 185/3/3 187/3/3
f 191/2/3 190/2/3 189/2/3
f 192/2/3 190/2/3 191/2/3
f 193/2/4 194/2/4 195/2/4
f 195/2/4 194/2/4 196/2/4
f 197/2/4 198/2/4 199/2/4
f 199/2/4 198/2/4 200/2/4
f 201/1/4 202/1/4 204/1/4
f 202/3/4 203/3/4 205/3/4
f 204/1/4 202/1/4 205/1/4
f 205/3/4 203/3/4 206/3/4
f 207/1/4 208/1/4 209/1/4
f 209/1/4 208/1/4 210/1/4
f 211/2/4 212/2/4 213/2/4
f 213/2/4 212/2/4 214/2/4
f 215/3/4 216/3/4 217/3/4
f 217/3/4 216/3/4 218/3/4
f 217/1/4 218/1/4 219/1/4
f 219/1/4 218/1/4 220/1/4
f 219/3/4 220/3/4 221/3/4
f 221/3/4 220/3/4 222/3/4
f 223/3/4 224/3/4 225/3/4
f 225/3/4 224/3/4 226/3/4
f 227/3/4 228/3/4 229/3/4
f 229/3/4 228/3/4 230/3/4
f 229/1/4 230/1/4 231/1/4
f 231/1/4 230/1/4 232/1/4
f 233/3/4 234/3/4 235/3/4
f 235/3/4 234/3/4 236/3/4
f 237/4/4 238/4/4 239/4/4
f 239/4/4 238/4/4 240/4/4
f 237/4/4 239/4/4 241/4/4
f 240/4/4 238/4/4 242/4/4
f 237/4/4 241/4/4 243/4/4
f 241/4/4 242/4/4 243/4/4
f 242/4/4 238/4/4 244/4/4
f 243/4/4 242/4/4 244/4/4
f 245/3/4 246/3/4 247/3/4
f 247/3/4 246/3/4 248/3/4
f 245/3/4 247/3/4 249/3/4
f 248/3/4 246/3/4 250/3/4
f 245/3/4 249/3/4 251/3/4
f 249/3/4 250/3/4 251/3/4
f 250/3/4 246/3/4 252/3/4
f 251/3/4 250/3/4 252/3/4
f 253/2/4 254/2/4 255/2/4
f 255/2/4 254/2/4 256/2/4
f 259/1/5 258/1/5 257/1/5
f 260/1/5 258/1/5 259/1/5
f 263/3/5 262/3/5 261/3/5
f 264/3/5 262/3/5 263/3/5
f 265/3/5 263/3/5 261/3/5
f 266/3/5 262/3/5 264/3/5
f 267/3/5 265/3/5 261/3/5
f 267/3/5 266/3/5 265/3/5
f 268/3/5 262/3/5 266/3/5
f 268/3/5 266/3/5 267/3/5
f 271/4/5 270/4/5 269/4/5
f 272/4/5 270/4/5 271/4/5
f 273/4/5 271/4/5 269/4/5
f 274/4/5 270/4/5 272/4/5
f 275/4/5 273/4/5 269/4/5
f 275/4/5 274/4/5 273/4/5
f 276/4/5 270/4/5 274/4/5
f 276/4/5 274/4/5 275/4/5
f 279/1/5 278/1/5 277/1/5
f 280/1/5 278/1/5 279/1/5
f 281/3/5 280/3/5 279/3/5
f 282/3/5 280/3/5 281/3/5
f 287/3/5 284/3/5 283/3/5
f 288/1/5 285/1/5 284/1/5
f 288/3/5 284/3/5 287/3/5
f 289/3/5 286/3/5 285/3/5
f 289/1/5 285/1/5 288/1/5
f 290/3/5 286/3/5 289/3/5
f 293/3/5 292/3/5 291/3/5
f 294/3/5 292/3/5 293/3/5
f 295/1/5 294/1/5 293/1/5
f 296/1/5 294/1/5 295/1/5
f 297/3/5 296/3/5 295/3/5
f 298/3/5 296/3/5 297/3/5
f 302/3/5 300/3/5 299/3/5
f 303/1/5 301/1/5 300/1/5
f 303/3/5 300/3/5 302/3/5
f 304/1/5 301/1/5 303/1/5
f 307/2/5 306/2/5 305/2/5
f 308/2/5 306/2/5 307/2/5
f 311/2/5 310/2/5 309/2/5
f 312/2/5 310/2/5 311/2/5
f 315/2/5 314/2/5 313/2/5
f 316/2/5 314/2/5 315/2/5
f 319/2/5 318/2/5 317/2/5
f 320/2/5 318/2/5 319/2/5
f 321/2/6 322/2/6 323/2/6
f 323/2/6 322/2/6 324/2/6
f 325/2/6 326/2/6 329/2/6
f 329/2/6 326/2/6 330/2/6
f 327/2/6 328/2/6 331/2/6
f 331/2/6 328/2/6 332/2/6
f 333/2/6 334/2/6 335/2/6
f 335/2/6 334/2/6 336/2/6
f 337/3/6 338/3/6 339/3/6
f 339/3/6 338/3/6 340/3/6
f 339/1/6 340/1/6 341/1/6
f 341/1/6 340/1/6 342/1/6
f 341/3/6 342/3/6 343/3/6
f 343/3/6 342/3/6 344/3/6
f 345/3/6 346/3/6 352/3/6
f 346/1/6 347/1/6 353/1/6
f 352/3/6 346/3/6 353/3/6
f 347/3/6 348/3/6 354/3/6
f 353/1/6 347/1/6 354/1/6
f 354/3/6 348/3/6 355/3/6
f 349/3/6 350/3/6 356/3/6
f 350/1/6 351/1/6 357/1/6
f 356/3/6 350/3/6 357/3/6
f 357/1/6 351/1/6 358/1/6
f 359/1/6 360/1/6 361/1/6
f 361/1/6 360/1/6 362/1/6
f 361/3/6 362/3/6 363/3/6
f 363/3/6 362/3/6 364/3/6
f 365/4/6 366/4/6 367/4/6
f 367/4/6 366/4/6 368/4/6
f 365/4/6 367/4/6 369/4/6
f 368/4/6 366/4/6 370/4/6
f 365/4/6 369/4/6 371/4/6
f 369/4/6 370/4/6 371/4/6
f 370/4/6 366/4/6 372/4/6
f 371/4/6 370/4/6 372/4/6
f 373/3/6 374/3/6 375/3/6
f 375/3/6 374/3/6 376/3/6
f 373/3/6 375/3/6 377/3/6
f 376/3/6 374/3/6 378/3/6
f 373/3/6 377/3/6 379/3/6
f 377/3/6 378/3/6 379/3/6
f 378/3/6 374/3/6 380/3/6
f 379/3/6 378/3/6 380/3/6
f 381/3/6 382/3/6 383/3/6
f 383/3/6 382/3/6 384/3/6
f 381/3/6 383/3/6 385/3/6
f 384/3/6 382/3/6 386/3/6
f 381/3/6 385/3/6 387/3/6
f 385/3/6 386/3/6 387/3/6
f 386/3/6 382/3/6 388/3/6
f 387/3/6 386/3/6 388/3/6
f 389/2/6 390/2/6 391/2/6
f 391/2/6 390/2/6 392/2/6
