# MagicaVoxel @ Ephtracy

# group
o lod1

# material
mtllib road1CrossWalk-1-lod1.mtl
usemtl palette

# normals
vn -1 0 0
vn 1 0 0
vn 0 0 1
vn 0 0 -1
vn 0 -1 0
vn 0 1 0

# texcoords
vt 0.0449219 0.5
vt 0.958984 0.5
vt 0.990234 0.5
vt 0.994141 0.5

# verts
v 0 0 4
v 0 0 -2
v 0 0.1 4
v 0 0.1 -2
v 4 0 4
v 4 0 -2
v 4 0.1 4
v 4 0.1 -2
v 0 0 4
v 0 0.1 4
v 0.5 0 4
v 0.5 0.1 4
v 1.5 0 4
v 1.5 0.1 4
v 2.5 0 4
v 2.5 0.1 4
v 3.5 0 4
v 3.5 0.1 4
v 4 0 4
v 4 0.1 4
v 0 0 -2
v 0 0.1 -2
v 0.5 0 -2
v 0.5 0.1 -2
v 1.5 0 -2
v 1.5 0.1 -2
v 2.5 0 -2
v 2.5 0.1 -2
v 3.5 0 -2
v 3.5 0.1 -2
v 4 0 -2
v 4 0.1 -2
v 0 0 4
v 0.5 0 4
v 1.5 0 4
v 2.5 0 4
v 3.5 0 4
v 4 0 4
v 0.1 0 3.6
v 0.5 0 3.6
v 0.9 0 3.6
v 1.1 0 3.6
v 1.5 0 3.6
v 1.9 0 3.6
v 2.1 0 3.6
v 2.5 0 3.6
v 2.9 0 3.6
v 3.1 0 3.6
v 3.5 0 3.6
v 3.9 0 3.6
v 0.1 0 -1.6
v 0.5 0 -1.6
v 0.9 0 -1.6
v 1.1 0 -1.6
v 1.5 0 -1.6
v 1.9 0 -1.6
v 2.1 0 -1.6
v 2.5 0 -1.6
v 2.9 0 -1.6
v 3.1 0 -1.6
v 3.5 0 -1.6
v 3.9 0 -1.6
v 0 0 -2
v 0.5 0 -2
v 1.5 0 -2
v 2.5 0 -2
v 3.5 0 -2
v 4 0 -2
v 0 0.1 4
v 0.5 0.1 4
v 1.5 0.1 4
v 2.5 0.1 4
v 3.5 0.1 4
v 4 0.1 4
v 0.1 0.1 3.6
v 0.5 0.1 3.6
v 0.9 0.1 3.6
v 1.1 0.1 3.6
v 1.5 0.1 3.6
v 1.9 0.1 3.6
v 2.1 0.1 3.6
v 2.5 0.1 3.6
v 2.9 0.1 3.6
v 3.1 0.1 3.6
v 3.5 0.1 3.6
v 3.9 0.1 3.6
v 0.1 0.1 -1.6
v 0.5 0.1 -1.6
v 0.9 0.1 -1.6
v 1.1 0.1 -1.6
v 1.5 0.1 -1.6
v 1.9 0.1 -1.6
v 2.1 0.1 -1.6
v 2.5 0.1 -1.6
v 2.9 0.1 -1.6
v 3.1 0.1 -1.6
v 3.5 0.1 -1.6
v 3.9 0.1 -1.6
v 0 0.1 -2
v 0.5 0.1 -2
v 1.5 0.1 -2
v 2.5 0.1 -2
v 3.5 0.1 -2
v 4 0.1 -2

# faces
f 3/4/1 2/4/1 1/4/1
f 4/4/1 2/4/1 3/4/1
f 5/4/2 6/4/2 7/4/2
f 7/4/2 6/4/2 8/4/2
f 11/4/3 10/4/3 9/4/3
f 12/4/3 10/4/3 11/4/3
f 13/3/3 12/3/3 11/3/3
f 14/3/3 12/3/3 13/3/3
f 15/4/3 14/4/3 13/4/3
f 16/4/3 14/4/3 15/4/3
f 17/3/3 16/3/3 15/3/3
f 18/3/3 16/3/3 17/3/3
f 19/4/3 18/4/3 17/4/3
f 20/4/3 18/4/3 19/4/3
f 21/4/4 22/4/4 23/4/4
f 23/4/4 22/4/4 24/4/4
f 23/3/4 24/3/4 25/3/4
f 25/3/4 24/3/4 26/3/4
f 25/4/4 26/4/4 27/4/4
f 27/4/4 26/4/4 28/4/4
f 27/3/4 28/3/4 29/3/4
f 29/3/4 28/3/4 30/3/4
f 29/4/4 30/4/4 31/4/4
f 31/4/4 30/4/4 32/4/4
f 39/4/5 34/4/5 33/4/5
f 40/3/5 35/3/5 34/3/5
f 40/4/5 34/4/5 39/4/5
f 41/3/5 35/3/5 40/3/5
f 42/3/5 35/3/5 41/3/5
f 43/4/5 36/4/5 35/4/5
f 43/3/5 35/3/5 42/3/5
f 44/4/5 36/4/5 43/4/5
f 45/4/5 36/4/5 44/4/5
f 46/3/5 37/3/5 36/3/5
f 46/4/5 36/4/5 45/4/5
f 47/3/5 37/3/5 46/3/5
f 48/3/5 37/3/5 47/3/5
f 49/4/5 38/4/5 37/4/5
f 49/3/5 37/3/5 48/3/5
f 50/4/5 38/4/5 49/4/5
f 51/4/5 39/4/5 33/4/5
f 51/2/5 40/2/5 39/2/5
f 51/2/5 41/2/5 40/2/5
f 52/2/5 41/2/5 51/2/5
f 53/3/5 42/3/5 41/3/5
f 53/2/5 41/2/5 52/2/5
f 54/1/5 43/1/5 42/1/5
f 54/3/5 42/3/5 53/3/5
f 54/1/5 44/1/5 43/1/5
f 55/1/5 44/1/5 54/1/5
f 56/4/5 45/4/5 44/4/5
f 56/1/5 44/1/5 55/1/5
f 57/2/5 46/2/5 45/2/5
f 57/4/5 45/4/5 56/4/5
f 57/2/5 47/2/5 46/2/5
f 58/2/5 47/2/5 57/2/5
f 59/3/5 48/3/5 47/3/5
f 59/2/5 47/2/5 58/2/5
f 60/1/5 50/1/5 49/1/5
f 60/3/5 48/3/5 59/3/5
f 60/1/5 49/1/5 48/1/5
f 61/1/5 50/1/5 60/1/5
f 62/4/5 38/4/5 50/4/5
f 62/1/5 50/1/5 61/1/5
f 63/4/5 52/4/5 51/4/5
f 63/4/5 51/4/5 33/4/5
f 64/3/5 55/3/5 54/3/5
f 64/4/5 52/4/5 63/4/5
f 64/3/5 53/3/5 52/3/5
f 64/3/5 54/3/5 53/3/5
f 65/4/5 58/4/5 57/4/5
f 65/3/5 55/3/5 64/3/5
f 65/4/5 57/4/5 56/4/5
f 65/4/5 56/4/5 55/4/5
f 66/3/5 61/3/5 60/3/5
f 66/4/5 58/4/5 65/4/5
f 66/3/5 59/3/5 58/3/5
f 66/3/5 60/3/5 59/3/5
f 67/4/5 62/4/5 61/4/5
f 67/3/5 61/3/5 66/3/5
f 68/4/5 38/4/5 62/4/5
f 68/4/5 62/4/5 67/4/5
f 69/4/6 70/4/6 75/4/6
f 70/3/6 71/3/6 76/3/6
f 75/4/6 70/4/6 76/4/6
f 76/3/6 71/3/6 77/3/6
f 77/3/6 71/3/6 78/3/6
f 71/4/6 72/4/6 79/4/6
f 78/3/6 71/3/6 79/3/6
f 79/4/6 72/4/6 80/4/6
f 80/4/6 72/4/6 81/4/6
f 72/3/6 73/3/6 82/3/6
f 81/4/6 72/4/6 82/4/6
f 82/3/6 73/3/6 83/3/6
f 83/3/6 73/3/6 84/3/6
f 73/4/6 74/4/6 85/4/6
f 84/3/6 73/3/6 85/3/6
f 85/4/6 74/4/6 86/4/6
f 69/4/6 75/4/6 87/4/6
f 75/2/6 76/2/6 87/2/6
f 76/2/6 77/2/6 87/2/6
f 87/2/6 77/2/6 88/2/6
f 77/3/6 78/3/6 89/3/6
f 88/2/6 77/2/6 89/2/6
f 78/1/6 79/1/6 90/1/6
f 89/3/6 78/3/6 90/3/6
f 79/1/6 80/1/6 90/1/6
f 90/1/6 80/1/6 91/1/6
f 80/4/6 81/4/6 92/4/6
f 91/1/6 80/1/6 92/1/6
f 81/2/6 82/2/6 93/2/6
f 92/4/6 81/4/6 93/4/6
f 82/2/6 83/2/6 93/2/6
f 93/2/6 83/2/6 94/2/6
f 83/3/6 84/3/6 95/3/6
f 94/2/6 83/2/6 95/2/6
f 85/1/6 86/1/6 96/1/6
f 95/3/6 84/3/6 96/3/6
f 84/1/6 85/1/6 96/1/6
f 96/1/6 86/1/6 97/1/6
f 86/4/6 74/4/6 98/4/6
f 97/1/6 86/1/6 98/1/6
f 87/4/6 88/4/6 99/4/6
f 69/4/6 87/4/6 99/4/6
f 90/3/6 91/3/6 100/3/6
f 99/4/6 88/4/6 100/4/6
f 88/3/6 89/3/6 100/3/6
f 89/3/6 90/3/6 100/3/6
f 93/4/6 94/4/6 101/4/6
f 100/3/6 91/3/6 101/3/6
f 92/4/6 93/4/6 101/4/6
f 91/4/6 92/4/6 101/4/6
f 96/3/6 97/3/6 102/3/6
f 101/4/6 94/4/6 102/4/6
f 94/3/6 95/3/6 102/3/6
f 95/3/6 96/3/6 102/3/6
f 97/4/6 98/4/6 103/4/6
f 102/3/6 97/3/6 103/3/6
f 98/4/6 74/4/6 104/4/6
f 103/4/6 98/4/6 104/4/6
