# MagicaVoxel @ Ephtracy

# group
o lod1

# material
mtllib entrance4-2-lod1.mtl
usemtl palette

# normals
vn -1 0 0
vn 1 0 0
vn 0 0 1
vn 0 0 -1
vn 0 -1 0
vn 0 1 0

# texcoords
vt 0.787109 0.5
vt 0.814453 0.5
vt 0.837891 0.5
vt 0.966797 0.5
vt 0.974609 0.5

# verts
v -8 0 0.4
v -8 0 0
v -8 14.8 4.6
v -8 14.8 0.4
v -8 14.8 0
v -8 15.9 4.6
v -8 15.9 0.4
v -8 16 0.4
v -8 16 0
v -7.9 14.8 4.7
v -7.9 14.8 4.6
v -7.9 15.9 4.7
v -7.9 15.9 4.6
v -7.9 15.9 4.5
v -7.9 15.9 0.4
v -7.9 16 4.5
v -7.9 16 0.4
v -7.8 14.8 4.8
v -7.8 14.8 4.7
v -7.8 15.9 4.8
v -7.8 15.9 4.7
v -7.8 15.9 4.6
v -7.8 15.9 4.5
v -7.8 16 4.6
v -7.8 16 4.5
v -7.7 15.9 4.7
v -7.7 15.9 4.6
v -7.7 16 4.7
v -7.7 16 4.6
v -7.6 0 1.6
v -7.6 0 0.4
v -7.6 14.8 1.6
v -7.6 14.8 0.4
v -6.1 0.3 1.2
v -6.1 0.3 1.1
v -6.1 14.1 1.2
v -6.1 14.1 1.1
v -4.4 2.9 1.2
v -4.4 2.9 1
v -4.4 3 1.2
v -4.4 3 1
v -4.4 10.2 1.2
v -4.4 10.2 1
v -4.4 10.3 1.2
v -4.4 10.3 1
v -3.2 0.5 1.2
v -3.2 0.5 0.8
v -3.2 2.8 1.2
v -3.2 2.8 0.8
v -3.2 3.2 1.2
v -3.2 3.2 0.8
v -3.2 10 1.2
v -3.2 10 0.8
v -3.2 10.4 1.2
v -3.2 10.4 0.8
v -3.2 13.9 1.2
v -3.2 13.9 0.8
v -2.9 0.3 1.2
v -2.9 0.3 1.1
v -2.9 6.4 1.3
v -2.9 6.4 1.2
v -2.9 6.5 1.4
v -2.9 6.5 1.3
v -2.9 6.7 1.4
v -2.9 6.7 1.3
v -2.9 6.8 1.3
v -2.9 6.8 1.2
v -2.9 14.1 1.2
v -2.9 14.1 1.1
v -2.4 0.3 1.8
v -2.4 0.3 1.2
v -2.4 0.4 1.9
v -2.4 0.4 1.8
v -2.4 0.4 1.7
v -2.4 0.4 1.3
v -2.4 0.5 1.3
v -2.4 0.5 1.2
v -2.4 13.9 1.3
v -2.4 13.9 1.2
v -2.4 14 1.9
v -2.4 14 1.8
v -2.4 14 1.7
v -2.4 14 1.3
v -2.4 14.1 1.8
v -2.4 14.1 1.2
v -2.3 0.5 2
v -2.3 0.5 1.9
v -2.3 13.9 2
v -2.3 13.9 1.9
v 2.7 0.5 1.2
v 2.7 0.5 0.8
v 2.7 13.9 1.2
v 2.7 13.9 0.8
v 3 0.3 1.2
v 3 0.3 1.1
v 3 14.1 1.2
v 3 14.1 1.1
v 5.9 0.5 1.2
v 5.9 0.5 0.8
v 5.9 13.9 1.2
v 5.9 13.9 0.8
v 6.2 0.2 1.2
v 6.2 0.2 1.1
v 6.2 14.2 1.2
v 6.2 14.2 1.1
v 6.4 0 1.6
v 6.4 0 1.2
v 6.4 14.4 1.6
v 6.4 14.4 1.2
v 7.6 14.8 4.4
v 7.6 14.8 1.6
v 7.6 14.9 4.4
v 7.6 14.9 1.6
v -7.6 14.8 4.4
v -7.6 14.8 1.6
v -7.6 14.9 4.4
v -7.6 14.9 1.6
v -6.4 0 1.6
v -6.4 0 1.2
v -6.4 14.4 1.6
v -6.4 14.4 1.2
v -6.2 0.2 1.2
v -6.2 0.2 1.1
v -6.2 14.2 1.2
v -6.2 14.2 1.1
v -5.9 0.5 1.2
v -5.9 0.5 0.8
v -5.9 2.8 1.2
v -5.9 2.8 0.8
v -5.9 3.2 1.2
v -5.9 3.2 0.8
v -5.9 10 1.2
v -5.9 10 0.8
v -5.9 10.4 1.2
v -5.9 10.4 0.8
v -5.9 13.9 1.2
v -5.9 13.9 0.8
v -4.6 2.9 1.2
v -4.6 2.9 1
v -4.6 3 1.2
v -4.6 3 1
v -4.6 10.2 1.2
v -4.6 10.2 1
v -4.6 10.3 1.2
v -4.6 10.3 1
v -3 0.3 1.2
v -3 0.3 1.1
v -3 14.1 1.2
v -3 14.1 1.1
v -2.7 0.5 1.2
v -2.7 0.5 0.8
v -2.7 6.4 1.3
v -2.7 6.4 1.2
v -2.7 6.5 1.4
v -2.7 6.5 1.3
v -2.7 6.7 1.4
v -2.7 6.7 1.3
v -2.7 6.8 1.3
v -2.7 6.8 1.2
v -2.7 13.9 1.2
v -2.7 13.9 0.8
v -2.1 0.5 2
v -2.1 0.5 1.9
v -2.1 13.9 2
v -2.1 13.9 1.9
v -2 0.3 1.8
v -2 0.3 1.2
v -2 0.4 1.9
v -2 0.4 1.8
v -2 0.4 1.7
v -2 0.4 1.3
v -2 0.5 1.3
v -2 0.5 1.2
v -2 13.9 1.3
v -2 13.9 1.2
v -2 14 1.9
v -2 14 1.8
v -2 14 1.7
v -2 14 1.3
v -2 14.1 1.8
v -2 14.1 1.2
v 2.9 0.3 1.2
v 2.9 0.3 1.1
v 2.9 14.1 1.2
v 2.9 14.1 1.1
v 3.2 0.5 1.2
v 3.2 0.5 0.8
v 3.2 13.9 1.2
v 3.2 13.9 0.8
v 6.1 0.3 1.2
v 6.1 0.3 1.1
v 6.1 14.1 1.2
v 6.1 14.1 1.1
v 7.6 0 1.6
v 7.6 0 0.4
v 7.6 14.8 1.6
v 7.6 14.8 0.4
v 7.7 15.9 4.7
v 7.7 15.9 4.6
v 7.7 16 4.7
v 7.7 16 4.6
v 7.8 14.8 4.8
v 7.8 14.8 4.7
v 7.8 15.9 4.8
v 7.8 15.9 4.7
v 7.8 15.9 4.6
v 7.8 15.9 4.5
v 7.8 16 4.6
v 7.8 16 4.5
v 7.9 14.8 4.7
v 7.9 14.8 4.6
v 7.9 15.9 4.7
v 7.9 15.9 4.6
v 7.9 15.9 4.5
v 7.9 15.9 0.4
v 7.9 16 4.5
v 7.9 16 0.4
v 8 0 0.4
v 8 0 0
v 8 14.8 4.6
v 8 14.8 0.4
v 8 14.8 0
v 8 15.9 4.6
v 8 15.9 0.4
v 8 16 0.4
v 8 16 0
v -7.8 14.8 4.8
v -7.8 15.9 4.8
v 7.8 14.8 4.8
v 7.8 15.9 4.8
v -7.9 14.8 4.7
v -7.9 15.9 4.7
v -7.8 14.8 4.7
v -7.8 15.9 4.7
v -7.7 15.9 4.7
v -7.7 16 4.7
v 7.7 15.9 4.7
v 7.7 16 4.7
v 7.8 14.8 4.7
v 7.8 15.9 4.7
v 7.9 14.8 4.7
v 7.9 15.9 4.7
v -8 14.8 4.6
v -8 15.9 4.6
v -7.9 14.8 4.6
v -7.9 15.9 4.6
v -7.8 15.9 4.6
v -7.8 16 4.6
v -7.7 15.9 4.6
v -7.7 16 4.6
v 7.7 15.9 4.6
v 7.7 16 4.6
v 7.8 15.9 4.6
v 7.8 16 4.6
v 7.9 14.8 4.6
v 7.9 15.9 4.6
v 8 14.8 4.6
v 8 15.9 4.6
v -7.9 15.9 4.5
v -7.9 16 4.5
v -7.8 15.9 4.5
v -7.8 16 4.5
v 7.8 15.9 4.5
v 7.8 16 4.5
v 7.9 15.9 4.5
v 7.9 16 4.5
v -2.3 0.5 2
v -2.3 13.9 2
v -2.1 0.5 2
v -2.1 13.9 2
v -2.4 0.4 1.9
v -2.4 14 1.9
v -2.3 0.5 1.9
v -2.3 13.9 1.9
v -2.1 0.5 1.9
v -2.1 13.9 1.9
v -2 0.4 1.9
v -2 14 1.9
v -2.4 0.3 1.8
v -2.4 0.4 1.8
v -2.4 14 1.8
v -2.4 14.1 1.8
v -2 0.3 1.8
v -2 0.4 1.8
v -2 14 1.8
v -2 14.1 1.8
v -7.6 0 1.6
v -7.6 14.8 1.6
v -7.6 14.9 1.6
v -6.4 0 1.6
v -6.4 14.4 1.6
v 6.4 0 1.6
v 6.4 14.4 1.6
v 7.6 0 1.6
v 7.6 14.8 1.6
v 7.6 14.9 1.6
v -2.9 6.5 1.4
v -2.9 6.7 1.4
v -2.7 6.5 1.4
v -2.7 6.7 1.4
v -2.9 6.4 1.3
v -2.9 6.5 1.3
v -2.9 6.7 1.3
v -2.9 6.8 1.3
v -2.7 6.4 1.3
v -2.7 6.5 1.3
v -2.7 6.7 1.3
v -2.7 6.8 1.3
v -2.4 0.4 1.3
v -2.4 0.5 1.3
v -2.4 13.9 1.3
v -2.4 14 1.3
v -2 0.4 1.3
v -2 0.5 1.3
v -2 13.9 1.3
v -2 14 1.3
v -6.4 0 1.2
v -6.4 14.4 1.2
v -6.2 0.2 1.2
v -6.2 14.2 1.2
v -6.1 0.3 1.2
v -6.1 14.1 1.2
v -5.9 0.5 1.2
v -5.9 2.8 1.2
v -5.9 3.2 1.2
v -5.9 10 1.2
v -5.9 10.4 1.2
v -5.9 13.9 1.2
v -4.6 2.9 1.2
v -4.6 3 1.2
v -4.6 10.2 1.2
v -4.6 10.3 1.2
v -4.4 2.9 1.2
v -4.4 3 1.2
v -4.4 10.2 1.2
v -4.4 10.3 1.2
v -3.2 0.5 1.2
v -3.2 2.8 1.2
v -3.2 3.2 1.2
v -3.2 10 1.2
v -3.2 10.4 1.2
v -3.2 13.9 1.2
v -3 0.3 1.2
v -3 14.1 1.2
v -2.9 0.3 1.2
v -2.9 6.4 1.2
v -2.9 6.8 1.2
v -2.9 14.1 1.2
v -2.7 0.5 1.2
v -2.7 6.4 1.2
v -2.7 6.8 1.2
v -2.7 13.9 1.2
v -2.4 0.3 1.2
v -2.4 0.5 1.2
v -2.4 13.9 1.2
v -2.4 14.1 1.2
v -2 0.3 1.2
v -2 0.5 1.2
v -2 13.9 1.2
v -2 14.1 1.2
v 2.7 0.5 1.2
v 2.7 13.9 1.2
v 2.9 0.3 1.2
v 2.9 14.1 1.2
v 3 0.3 1.2
v 3 14.1 1.2
v 3.2 0.5 1.2
v 3.2 13.9 1.2
v 5.9 0.5 1.2
v 5.9 13.9 1.2
v 6.1 0.3 1.2
v 6.1 14.1 1.2
v 6.2 0.2 1.2
v 6.2 14.2 1.2
v 6.4 0 1.2
v 6.4 14.4 1.2
v -6.2 0.2 1.1
v -6.2 14.2 1.1
v -6.1 0.3 1.1
v -6.1 14.1 1.1
v -3 0.3 1.1
v -3 14.1 1.1
v -2.9 0.3 1.1
v -2.9 14.1 1.1
v 2.9 0.3 1.1
v 2.9 14.1 1.1
v 3 0.3 1.1
v 3 14.1 1.1
v 6.1 0.3 1.1
v 6.1 14.1 1.1
v 6.2 0.2 1.1
v 6.2 14.2 1.1
v -4.6 2.9 1
v -4.6 3 1
v -4.6 10.2 1
v -4.6 10.3 1
v -4.4 2.9 1
v -4.4 3 1
v -4.4 10.2 1
v -4.4 10.3 1
v -5.9 0.5 0.8
v -5.9 2.8 0.8
v -5.9 3.2 0.8
v -5.9 10 0.8
v -5.9 10.4 0.8
v -5.9 13.9 0.8
v -3.2 0.5 0.8
v -3.2 2.8 0.8
v -3.2 3.2 0.8
v -3.2 10 0.8
v -3.2 10.4 0.8
v -3.2 13.9 0.8
v -2.7 0.5 0.8
v -2.7 13.9 0.8
v 2.7 0.5 0.8
v 2.7 13.9 0.8
v 3.2 0.5 0.8
v 3.2 13.9 0.8
v 5.9 0.5 0.8
v 5.9 13.9 0.8
v -8 0 0.4
v -8 14.8 0.4
v -8 15.9 0.4
v -8 16 0.4
v -7.9 15.9 0.4
v -7.9 16 0.4
v -7.6 0 0.4
v -7.6 14.8 0.4
v 7.6 0 0.4
v 7.6 14.8 0.4
v 7.9 15.9 0.4
v 7.9 16 0.4
v 8 0 0.4
v 8 14.8 0.4
v 8 15.9 0.4
v 8 16 0.4
v -7.6 14.8 4.4
v -7.6 14.9 4.4
v 7.6 14.8 4.4
v 7.6 14.9 4.4
v -2.4 0.4 1.7
v -2.4 14 1.7
v -2 0.4 1.7
v -2 14 1.7
v -8 0 0
v -8 14.8 0
v -8 16 0
v 8 0 0
v 8 14.8 0
v 8 16 0
v -7.6 0 1.6
v -6.4 0 1.6
v 6.4 0 1.6
v 7.6 0 1.6
v -6.4 0 1.2
v 6.4 0 1.2
v -6.4 0 0.8
v 6.4 0 0.8
v -8 0 0.4
v -7.6 0 0.4
v -6.4 0 0.4
v 6.4 0 0.4
v 7.6 0 0.4
v 8 0 0.4
v -8 0 0
v 8 0 0
v -2.4 0.3 1.8
v -2 0.3 1.8
v -6.1 0.3 1.2
v -3 0.3 1.2
v -2.9 0.3 1.2
v -2.4 0.3 1.2
v -2 0.3 1.2
v 2.9 0.3 1.2
v 3 0.3 1.2
v 6.1 0.3 1.2
v -6.1 0.3 1.1
v -3 0.3 1.1
v -2.9 0.3 1.1
v 2.9 0.3 1.1
v 3 0.3 1.1
v 6.1 0.3 1.1
v -2.4 0.4 1.9
v -2 0.4 1.9
v -2.4 0.4 1.8
v -2 0.4 1.8
v -2.3 0.5 2
v -2.1 0.5 2
v -2.3 0.5 1.9
v -2.1 0.5 1.9
v -5.9 2.8 1.2
v -3.2 2.8 1.2
v -5.9 2.8 0.8
v -3.2 2.8 0.8
v -4.6 3 1.2
v -4.4 3 1.2
v -4.6 3 1
v -4.4 3 1
v -2.9 6.4 1.3
v -2.7 6.4 1.3
v -2.9 6.4 1.2
v -2.7 6.4 1.2
v -2.9 6.5 1.4
v -2.7 6.5 1.4
v -2.9 6.5 1.3
v -2.7 6.5 1.3
v -5.9 10 1.2
v -3.2 10 1.2
v -5.9 10 0.8
v -3.2 10 0.8
v -4.6 10.3 1.2
v -4.4 10.3 1.2
v -4.6 10.3 1
v -4.4 10.3 1
v -2.4 13.9 1.3
v -2 13.9 1.3
v -5.9 13.9 1.2
v -3.2 13.9 1.2
v -2.7 13.9 1.2
v -2.4 13.9 1.2
v -2 13.9 1.2
v 2.7 13.9 1.2
v 3.2 13.9 1.2
v 5.9 13.9 1.2
v -5.9 13.9 0.8
v -3.2 13.9 0.8
v -2.7 13.9 0.8
v 2.7 13.9 0.8
v 3.2 13.9 0.8
v 5.9 13.9 0.8
v -2.4 14 1.7
v -2 14 1.7
v -2.4 14 1.3
v -2 14 1.3
v -6.2 14.2 1.2
v 6.2 14.2 1.2
v -6.2 14.2 1.1
v 6.2 14.2 1.1
v -6.4 14.4 1.6
v 6.4 14.4 1.6
v -6.4 14.4 1.2
v 6.4 14.4 1.2
v -7.8 14.8 4.8
v 7.8 14.8 4.8
v -7.9 14.8 4.7
v -7.8 14.8 4.7
v 7.8 14.8 4.7
v 7.9 14.8 4.7
v -8 14.8 4.6
v -7.9 14.8 4.6
v 7.9 14.8 4.6
v 8 14.8 4.6
v -7.6 14.8 4.4
v 7.6 14.8 4.4
v -7.6 14.8 1.6
v 7.6 14.8 1.6
v -8 14.8 0.4
v -7.6 14.8 0.4
v 7.6 14.8 0.4
v 8 14.8 0.4
v -7.6 14.9 4.4
v 7.6 14.9 4.4
v -7.6 14.9 1.6
v 7.6 14.9 1.6
v -6.2 0.2 1.2
v 6.2 0.2 1.2
v -6.2 0.2 1.1
v 6.2 0.2 1.1
v -2.4 0.4 1.7
v -2 0.4 1.7
v -2.4 0.4 1.3
v -2 0.4 1.3
v -2.4 0.5 1.3
v -2 0.5 1.3
v -5.9 0.5 1.2
v -3.2 0.5 1.2
v -2.7 0.5 1.2
v -2.4 0.5 1.2
v -2 0.5 1.2
v 2.7 0.5 1.2
v 3.2 0.5 1.2
v 5.9 0.5 1.2
v -5.9 0.5 0.8
v -3.2 0.5 0.8
v -2.7 0.5 0.8
v 2.7 0.5 0.8
v 3.2 0.5 0.8
v 5.9 0.5 0.8
v -4.6 2.9 1.2
v -4.4 2.9 1.2
v -4.6 2.9 1
v -4.4 2.9 1
v -5.9 3.2 1.2
v -3.2 3.2 1.2
v -5.9 3.2 0.8
v -3.2 3.2 0.8
v -2.9 6.7 1.4
v -2.7 6.7 1.4
v -2.9 6.7 1.3
v -2.7 6.7 1.3
v -2.9 6.8 1.3
v -2.7 6.8 1.3
v -2.9 6.8 1.2
v -2.7 6.8 1.2
v -4.6 10.2 1.2
v -4.4 10.2 1.2
v -4.6 10.2 1
v -4.4 10.2 1
v -5.9 10.4 1.2
v -3.2 10.4 1.2
v -5.9 10.4 0.8
v -3.2 10.4 0.8
v -2.3 13.9 2
v -2.1 13.9 2
v -2.3 13.9 1.9
v -2.1 13.9 1.9
v -2.4 14 1.9
v -2 14 1.9
v -2.4 14 1.8
v -2 14 1.8
v -2.4 14.1 1.8
v -2 14.1 1.8
v -6.1 14.1 1.2
v -3 14.1 1.2
v -2.9 14.1 1.2
v -2.4 14.1 1.2
v -2 14.1 1.2
v 2.9 14.1 1.2
v 3 14.1 1.2
v 6.1 14.1 1.2
v -6.1 14.1 1.1
v -3 14.1 1.1
v -2.9 14.1 1.1
v 2.9 14.1 1.1
v 3 14.1 1.1
v 6.1 14.1 1.1
v -7.8 15.9 4.8
v 7.8 15.9 4.8
v -7.9 15.9 4.7
v -7.8 15.9 4.7
v -7.7 15.9 4.7
v 7.7 15.9 4.7
v 7.8 15.9 4.7
v 7.9 15.9 4.7
v -8 15.9 4.6
v -7.9 15.9 4.6
v -7.8 15.9 4.6
v -7.7 15.9 4.6
v 7.7 15.9 4.6
v 7.8 15.9 4.6
v 7.9 15.9 4.6
v 8 15.9 4.6
v -7.9 15.9 4.5
v -7.8 15.9 4.5
v 7.8 15.9 4.5
v 7.9 15.9 4.5
v -8 15.9 0.4
v -7.9 15.9 0.4
v 7.9 15.9 0.4
v 8 15.9 0.4
v -7.7 16 4.7
v 7.7 16 4.7
v -7.8 16 4.6
v -7.7 16 4.6
v 7.7 16 4.6
v 7.8 16 4.6
v -7.9 16 4.5
v -7.8 16 4.5
v 7.8 16 4.5
v 7.9 16 4.5
v -8 16 0.4
v -7.9 16 0.4
v 7.9 16 0.4
v 8 16 0.4
v -8 16 0
v 8 16 0

# faces
f 4/2/1 2/2/1 1/2/1
f 5/2/1 2/2/1 4/2/1
f 6/5/1 4/5/1 3/5/1
f 6/5/1 5/5/1 4/5/1
f 7/5/1 5/5/1 6/5/1
f 8/5/1 5/5/1 7/5/1
f 9/5/1 5/5/1 8/5/1
f 12/5/1 11/5/1 10/5/1
f 13/5/1 11/5/1 12/5/1
f 16/5/1 15/5/1 14/5/1
f 17/5/1 15/5/1 16/5/1
f 20/5/1 19/5/1 18/5/1
f 21/5/1 19/5/1 20/5/1
f 24/5/1 23/5/1 22/5/1
f 25/5/1 23/5/1 24/5/1
f 28/5/1 27/5/1 26/5/1
f 29/5/1 27/5/1 28/5/1
f 32/2/1 31/2/1 30/2/1
f 33/2/1 31/2/1 32/2/1
f 36/1/1 35/1/1 34/1/1
f 37/1/1 35/1/1 36/1/1
f 40/1/1 39/1/1 38/1/1
f 41/1/1 39/1/1 40/1/1
f 44/1/1 43/1/1 42/1/1
f 45/1/1 43/1/1 44/1/1
f 48/1/1 47/1/1 46/1/1
f 49/1/1 47/1/1 48/1/1
f 52/1/1 51/1/1 50/1/1
f 53/1/1 51/1/1 52/1/1
f 56/1/1 55/1/1 54/1/1
f 57/1/1 55/1/1 56/1/1
f 61/1/1 59/1/1 58/1/1
f 63/4/1 61/4/1 60/4/1
f 64/4/1 63/4/1 62/4/1
f 65/4/1 61/4/1 63/4/1
f 65/4/1 63/4/1 64/4/1
f 66/4/1 61/4/1 65/4/1
f 67/1/1 59/1/1 61/1/1
f 67/4/1 61/4/1 66/4/1
f 68/1/1 59/1/1 67/1/1
f 69/1/1 59/1/1 68/1/1
f 73/4/1 71/4/1 70/4/1
f 74/4/1 71/4/1 73/4/1
f 75/4/1 71/4/1 74/4/1
f 76/4/1 71/4/1 75/4/1
f 77/4/1 71/4/1 76/4/1
f 80/4/1 73/4/1 72/4/1
f 80/4/1 74/4/1 73/4/1
f 81/4/1 74/4/1 80/4/1
f 82/4/1 74/4/1 81/4/1
f 83/4/1 79/4/1 78/4/1
f 84/4/1 82/4/1 81/4/1
f 84/4/1 83/4/1 82/4/1
f 85/4/1 79/4/1 83/4/1
f 85/4/1 83/4/1 84/4/1
f 88/4/1 87/4/1 86/4/1
f 89/4/1 87/4/1 88/4/1
f 92/1/1 91/1/1 90/1/1
f 93/1/1 91/1/1 92/1/1
f 96/1/1 95/1/1 94/1/1
f 97/1/1 95/1/1 96/1/1
f 100/1/1 99/1/1 98/1/1
f 101/1/1 99/1/1 100/1/1
f 104/1/1 103/1/1 102/1/1
f 105/1/1 103/1/1 104/1/1
f 108/2/1 107/2/1 106/2/1
f 109/2/1 107/2/1 108/2/1
f 112/5/1 111/5/1 110/5/1
f 113/5/1 111/5/1 112/5/1
f 114/5/2 115/5/2 116/5/2
f 116/5/2 115/5/2 117/5/2
f 118/2/2 119/2/2 120/2/2
f 120/2/2 119/2/2 121/2/2
f 122/1/2 123/1/2 124/1/2
f 124/1/2 123/1/2 125/1/2
f 126/1/2 127/1/2 128/1/2
f 128/1/2 127/1/2 129/1/2
f 130/1/2 131/1/2 132/1/2
f 132/1/2 131/1/2 133/1/2
f 134/1/2 135/1/2 136/1/2
f 136/1/2 135/1/2 137/1/2
f 138/1/2 139/1/2 140/1/2
f 140/1/2 139/1/2 141/1/2
f 142/1/2 143/1/2 144/1/2
f 144/1/2 143/1/2 145/1/2
f 146/1/2 147/1/2 148/1/2
f 148/1/2 147/1/2 149/1/2
f 150/1/2 151/1/2 153/1/2
f 152/4/2 153/4/2 155/4/2
f 154/4/2 155/4/2 156/4/2
f 155/4/2 153/4/2 157/4/2
f 156/4/2 155/4/2 157/4/2
f 157/4/2 153/4/2 158/4/2
f 153/1/2 151/1/2 159/1/2
f 158/4/2 153/4/2 159/4/2
f 159/1/2 151/1/2 160/1/2
f 160/1/2 151/1/2 161/1/2
f 162/4/2 163/4/2 164/4/2
f 164/4/2 163/4/2 165/4/2
f 166/4/2 167/4/2 169/4/2
f 169/4/2 167/4/2 170/4/2
f 170/4/2 167/4/2 171/4/2
f 171/4/2 167/4/2 172/4/2
f 172/4/2 167/4/2 173/4/2
f 168/4/2 169/4/2 176/4/2
f 169/4/2 170/4/2 176/4/2
f 176/4/2 170/4/2 177/4/2
f 177/4/2 170/4/2 178/4/2
f 174/4/2 175/4/2 179/4/2
f 177/4/2 178/4/2 180/4/2
f 178/4/2 179/4/2 180/4/2
f 179/4/2 175/4/2 181/4/2
f 180/4/2 179/4/2 181/4/2
f 182/1/2 183/1/2 184/1/2
f 184/1/2 183/1/2 185/1/2
f 186/1/2 187/1/2 188/1/2
f 188/1/2 187/1/2 189/1/2
f 190/1/2 191/1/2 192/1/2
f 192/1/2 191/1/2 193/1/2
f 194/2/2 195/2/2 196/2/2
f 196/2/2 195/2/2 197/2/2
f 198/5/2 199/5/2 200/5/2
f 200/5/2 199/5/2 201/5/2
f 202/5/2 203/5/2 204/5/2
f 204/5/2 203/5/2 205/5/2
f 206/5/2 207/5/2 208/5/2
f 208/5/2 207/5/2 209/5/2
f 210/5/2 211/5/2 212/5/2
f 212/5/2 211/5/2 213/5/2
f 214/5/2 215/5/2 216/5/2
f 216/5/2 215/5/2 217/5/2
f 218/2/2 219/2/2 221/2/2
f 221/2/2 219/2/2 222/2/2
f 220/5/2 221/5/2 223/5/2
f 221/5/2 222/5/2 223/5/2
f 223/5/2 222/5/2 224/5/2
f 224/5/2 222/5/2 225/5/2
f 225/5/2 222/5/2 226/5/2
f 229/5/3 228/5/3 227/5/3
f 230/5/3 228/5/3 229/5/3
f 233/5/3 232/5/3 231/5/3
f 234/5/3 232/5/3 233/5/3
f 237/5/3 236/5/3 235/5/3
f 238/5/3 236/5/3 237/5/3
f 241/5/3 240/5/3 239/5/3
f 242/5/3 240/5/3 241/5/3
f 245/5/3 244/5/3 243/5/3
f 246/5/3 244/5/3 245/5/3
f 249/5/3 248/5/3 247/5/3
f 250/5/3 248/5/3 249/5/3
f 253/5/3 252/5/3 251/5/3
f 254/5/3 252/5/3 253/5/3
f 257/5/3 256/5/3 255/5/3
f 258/5/3 256/5/3 257/5/3
f 261/5/3 260/5/3 259/5/3
f 262/5/3 260/5/3 261/5/3
f 265/5/3 264/5/3 263/5/3
f 266/5/3 264/5/3 265/5/3
f 269/4/3 268/4/3 267/4/3
f 270/4/3 268/4/3 269/4/3
f 273/4/3 272/4/3 271/4/3
f 274/4/3 272/4/3 273/4/3
f 275/4/3 273/4/3 271/4/3
f 276/4/3 272/4/3 274/4/3
f 277/4/3 275/4/3 271/4/3
f 277/4/3 276/4/3 275/4/3
f 278/4/3 272/4/3 276/4/3
f 278/4/3 276/4/3 277/4/3
f 283/4/3 280/4/3 279/4/3
f 284/4/3 280/4/3 283/4/3
f 285/4/3 282/4/3 281/4/3
f 286/4/3 282/4/3 285/4/3
f 290/2/3 288/2/3 287/2/3
f 290/2/3 289/2/3 288/2/3
f 291/2/3 289/2/3 290/2/3
f 293/2/3 289/2/3 291/2/3
f 294/2/3 293/2/3 292/2/3
f 295/2/3 289/2/3 293/2/3
f 295/2/3 293/2/3 294/2/3
f 296/2/3 289/2/3 295/2/3
f 299/4/3 298/4/3 297/4/3
f 300/4/3 298/4/3 299/4/3
f 305/4/3 302/4/3 301/4/3
f 306/4/3 302/4/3 305/4/3
f 307/4/3 304/4/3 303/4/3
f 308/4/3 304/4/3 307/4/3
f 313/4/3 310/4/3 309/4/3
f 314/4/3 310/4/3 313/4/3
f 315/4/3 312/4/3 311/4/3
f 316/4/3 312/4/3 315/4/3
f 319/1/3 318/1/3 317/1/3
f 320/1/3 318/1/3 319/1/3
f 323/1/3 322/1/3 321/1/3
f 324/1/3 322/1/3 323/1/3
f 325/1/3 322/1/3 324/1/3
f 326/1/3 322/1/3 325/1/3
f 327/1/3 322/1/3 326/1/3
f 328/1/3 322/1/3 327/1/3
f 329/1/3 325/1/3 324/1/3
f 330/1/3 325/1/3 329/1/3
f 331/1/3 327/1/3 326/1/3
f 332/1/3 327/1/3 331/1/3
f 333/1/3 329/1/3 324/1/3
f 334/1/3 325/1/3 330/1/3
f 335/1/3 331/1/3 326/1/3
f 336/1/3 327/1/3 332/1/3
f 337/1/3 323/1/3 321/1/3
f 338/1/3 333/1/3 324/1/3
f 338/1/3 334/1/3 333/1/3
f 339/1/3 325/1/3 334/1/3
f 339/1/3 334/1/3 338/1/3
f 340/1/3 336/1/3 335/1/3
f 340/1/3 335/1/3 326/1/3
f 341/1/3 327/1/3 336/1/3
f 341/1/3 336/1/3 340/1/3
f 342/1/3 322/1/3 328/1/3
f 343/1/3 339/1/3 338/1/3
f 343/1/3 342/1/3 341/1/3
f 343/1/3 341/1/3 340/1/3
f 343/1/3 337/1/3 321/1/3
f 343/1/3 340/1/3 339/1/3
f 343/1/3 338/1/3 337/1/3
f 344/1/3 322/1/3 342/1/3
f 344/1/3 342/1/3 343/1/3
f 349/1/3 346/1/3 345/1/3
f 350/1/3 346/1/3 349/1/3
f 351/1/3 348/1/3 347/1/3
f 352/1/3 348/1/3 351/1/3
f 353/1/3 349/1/3 345/1/3
f 354/1/3 349/1/3 353/1/3
f 355/1/3 348/1/3 352/1/3
f 356/1/3 348/1/3 355/1/3
f 361/1/3 358/1/3 357/1/3
f 362/1/3 360/1/3 359/1/3
f 363/1/3 361/1/3 357/1/3
f 363/1/3 362/1/3 361/1/3
f 364/1/3 360/1/3 362/1/3
f 364/1/3 362/1/3 363/1/3
f 367/1/3 366/1/3 365/1/3
f 368/1/3 366/1/3 367/1/3
f 369/1/3 367/1/3 365/1/3
f 370/1/3 366/1/3 368/1/3
f 371/1/3 369/1/3 365/1/3
f 371/1/3 370/1/3 369/1/3
f 372/1/3 366/1/3 370/1/3
f 372/1/3 370/1/3 371/1/3
f 373/1/3 319/1/3 317/1/3
f 374/1/3 318/1/3 320/1/3
f 375/1/3 373/1/3 317/1/3
f 375/1/3 374/1/3 373/1/3
f 376/1/3 318/1/3 374/1/3
f 376/1/3 374/1/3 375/1/3
f 379/1/3 378/1/3 377/1/3
f 380/1/3 378/1/3 379/1/3
f 381/1/3 379/1/3 377/1/3
f 382/1/3 378/1/3 380/1/3
f 383/1/3 381/1/3 377/1/3
f 383/1/3 382/1/3 381/1/3
f 384/1/3 378/1/3 382/1/3
f 384/1/3 382/1/3 383/1/3
f 385/1/3 383/1/3 377/1/3
f 386/1/3 378/1/3 384/1/3
f 387/1/3 385/1/3 377/1/3
f 387/1/3 386/1/3 385/1/3
f 388/1/3 378/1/3 386/1/3
f 388/1/3 386/1/3 387/1/3
f 389/1/3 387/1/3 377/1/3
f 390/1/3 378/1/3 388/1/3
f 391/1/3 389/1/3 377/1/3
f 391/1/3 390/1/3 389/1/3
f 392/1/3 378/1/3 390/1/3
f 392/1/3 390/1/3 391/1/3
f 397/1/3 394/1/3 393/1/3
f 398/1/3 394/1/3 397/1/3
f 399/1/3 396/1/3 395/1/3
f 400/1/3 396/1/3 399/1/3
f 407/3/3 402/3/3 401/3/3
f 408/3/3 402/3/3 407/3/3
f 409/3/3 404/3/3 403/3/3
f 410/3/3 404/3/3 409/3/3
f 411/3/3 406/3/3 405/3/3
f 412/3/3 406/3/3 411/3/3
f 415/3/3 414/3/3 413/3/3
f 416/3/3 414/3/3 415/3/3
f 419/3/3 418/3/3 417/3/3
f 420/3/3 418/3/3 419/3/3
f 425/5/3 424/5/3 423/5/3
f 426/5/3 424/5/3 425/5/3
f 427/2/3 422/2/3 421/2/3
f 428/2/3 422/2/3 427/2/3
f 433/2/3 430/2/3 429/2/3
f 434/2/3 430/2/3 433/2/3
f 435/5/3 432/5/3 431/5/3
f 436/5/3 432/5/3 435/5/3
f 437/5/4 438/5/4 439/5/4
f 439/5/4 438/5/4 440/5/4
f 441/4/4 442/4/4 443/4/4
f 443/4/4 442/4/4 444/4/4
f 445/2/4 446/2/4 448/2/4
f 446/5/4 447/5/4 449/5/4
f 448/2/4 446/2/4 449/2/4
f 449/5/4 447/5/4 450/5/4
f 455/2/5 452/2/5 451/2/5
f 456/2/5 454/2/5 453/2/5
f 457/2/5 455/2/5 451/2/5
f 457/1/5 456/1/5 455/1/5
f 458/2/5 454/2/5 456/2/5
f 458/1/5 456/1/5 457/1/5
f 460/2/5 457/2/5 451/2/5
f 461/3/5 458/3/5 457/3/5
f 461/2/5 457/2/5 460/2/5
f 462/2/5 454/2/5 458/2/5
f 462/3/5 458/3/5 461/3/5
f 463/2/5 454/2/5 462/2/5
f 465/2/5 461/2/5 460/2/5
f 465/2/5 464/2/5 463/2/5
f 465/2/5 463/2/5 462/2/5
f 465/2/5 462/2/5 461/2/5
f 465/2/5 460/2/5 459/2/5
f 466/2/5 464/2/5 465/2/5
f 472/4/5 468/4/5 467/4/5
f 473/4/5 468/4/5 472/4/5
f 477/1/5 470/1/5 469/1/5
f 478/1/5 470/1/5 477/1/5
f 479/1/5 472/1/5 471/1/5
f 479/1/5 473/1/5 472/1/5
f 479/1/5 474/1/5 473/1/5
f 480/1/5 474/1/5 479/1/5
f 481/1/5 476/1/5 475/1/5
f 482/1/5 476/1/5 481/1/5
f 485/4/5 484/4/5 483/4/5
f 486/4/5 484/4/5 485/4/5
f 489/4/5 488/4/5 487/4/5
f 490/4/5 488/4/5 489/4/5
f 493/1/5 492/1/5 491/1/5
f 494/1/5 492/1/5 493/1/5
f 497/1/5 496/1/5 495/1/5
f 498/1/5 496/1/5 497/1/5
f 501/4/5 500/4/5 499/4/5
f 502/4/5 500/4/5 501/4/5
f 505/4/5 504/4/5 503/4/5
f 506/4/5 504/4/5 505/4/5
f 509/1/5 508/1/5 507/1/5
f 510/1/5 508/1/5 509/1/5
f 513/1/5 512/1/5 511/1/5
f 514/1/5 512/1/5 513/1/5
f 520/4/5 516/4/5 515/4/5
f 521/4/5 516/4/5 520/4/5
f 525/1/5 518/1/5 517/1/5
f 526/1/5 518/1/5 525/1/5
f 527/1/5 520/1/5 519/1/5
f 527/1/5 521/1/5 520/1/5
f 527/1/5 522/1/5 521/1/5
f 528/1/5 522/1/5 527/1/5
f 529/1/5 524/1/5 523/1/5
f 530/1/5 524/1/5 529/1/5
f 533/4/5 532/4/5 531/4/5
f 534/4/5 532/4/5 533/4/5
f 537/1/5 536/1/5 535/1/5
f 538/1/5 536/1/5 537/1/5
f 541/2/5 540/2/5 539/2/5
f 542/2/5 540/2/5 541/2/5
f 546/5/5 544/5/5 543/5/5
f 547/5/5 544/5/5 546/5/5
f 550/5/5 546/5/5 545/5/5
f 550/5/5 548/5/5 547/5/5
f 550/5/5 547/5/5 546/5/5
f 551/5/5 548/5/5 550/5/5
f 553/5/5 550/5/5 549/5/5
f 553/5/5 552/5/5 551/5/5
f 553/5/5 551/5/5 550/5/5
f 554/5/5 552/5/5 553/5/5
f 555/5/5 553/5/5 549/5/5
f 556/5/5 552/5/5 554/5/5
f 557/5/5 555/5/5 549/5/5
f 558/5/5 555/5/5 557/5/5
f 559/5/5 552/5/5 556/5/5
f 560/5/5 552/5/5 559/5/5
f 563/5/5 562/5/5 561/5/5
f 564/5/5 562/5/5 563/5/5
f 565/1/6 566/1/6 567/1/6
f 567/1/6 566/1/6 568/1/6
f 569/4/6 570/4/6 571/4/6
f 571/4/6 570/4/6 572/4/6
f 573/4/6 574/4/6 578/4/6
f 578/4/6 574/4/6 579/4/6
f 575/1/6 576/1/6 583/1/6
f 583/1/6 576/1/6 584/1/6
f 577/1/6 578/1/6 585/1/6
f 578/1/6 579/1/6 585/1/6
f 579/1/6 580/1/6 585/1/6
f 585/1/6 580/1/6 586/1/6
f 581/1/6 582/1/6 587/1/6
f 587/1/6 582/1/6 588/1/6
f 589/1/6 590/1/6 591/1/6
f 591/1/6 590/1/6 592/1/6
f 593/1/6 594/1/6 595/1/6
f 595/1/6 594/1/6 596/1/6
f 597/4/6 598/4/6 599/4/6
f 599/4/6 598/4/6 600/4/6
f 601/4/6 602/4/6 603/4/6
f 603/4/6 602/4/6 604/4/6
f 605/1/6 606/1/6 607/1/6
f 607/1/6 606/1/6 608/1/6
f 609/1/6 610/1/6 611/1/6
f 611/1/6 610/1/6 612/1/6
f 613/4/6 614/4/6 615/4/6
f 615/4/6 614/4/6 616/4/6
f 617/4/6 618/4/6 619/4/6
f 619/4/6 618/4/6 620/4/6
f 621/4/6 622/4/6 626/4/6
f 626/4/6 622/4/6 627/4/6
f 623/1/6 624/1/6 631/1/6
f 631/1/6 624/1/6 632/1/6
f 625/1/6 626/1/6 633/1/6
f 626/1/6 627/1/6 633/1/6
f 627/1/6 628/1/6 633/1/6
f 633/1/6 628/1/6 634/1/6
f 629/1/6 630/1/6 635/1/6
f 635/1/6 630/1/6 636/1/6
f 637/5/6 638/5/6 640/5/6
f 640/5/6 638/5/6 641/5/6
f 641/5/6 638/5/6 642/5/6
f 642/5/6 638/5/6 643/5/6
f 639/5/6 640/5/6 646/5/6
f 640/5/6 641/5/6 646/5/6
f 646/5/6 641/5/6 647/5/6
f 647/5/6 641/5/6 648/5/6
f 642/5/6 643/5/6 649/5/6
f 643/5/6 644/5/6 649/5/6
f 649/5/6 644/5/6 650/5/6
f 650/5/6 644/5/6 651/5/6
f 646/5/6 647/5/6 653/5/6
f 645/5/6 646/5/6 653/5/6
f 653/5/6 647/5/6 654/5/6
f 651/5/6 652/5/6 655/5/6
f 650/5/6 651/5/6 655/5/6
f 655/5/6 652/5/6 656/5/6
f 645/5/6 653/5/6 657/5/6
f 657/5/6 653/5/6 658/5/6
f 656/5/6 652/5/6 659/5/6
f 659/5/6 652/5/6 660/5/6
f 661/5/6 662/5/6 664/5/6
f 664/5/6 662/5/6 665/5/6
f 663/5/6 664/5/6 668/5/6
f 665/5/6 666/5/6 668/5/6
f 664/5/6 665/5/6 668/5/6
f 668/5/6 666/5/6 669/5/6
f 667/5/6 668/5/6 672/5/6
f 669/5/6 670/5/6 672/5/6
f 668/5/6 669/5/6 672/5/6
f 672/5/6 670/5/6 673/5/6
f 671/5/6 672/5/6 675/5/6
f 673/5/6 674/5/6 675/5/6
f 672/5/6 673/5/6 675/5/6
f 675/5/6 674/5/6 676/5/6
