# MagicaVoxel @ Ephtracy

# group
o lod3

# material
mtllib entrance4-0-lod3.mtl
usemtl palette

# normals
vn -1 0 0
vn 1 0 0
vn 0 0 1
vn 0 0 -1
vn 0 -1 0
vn 0 1 0

# texcoords
vt 0.787109 0.5
vt 0.814453 0.5
vt 0.837891 0.5
vt 0.966797 0.5
vt 0.974609 0.5

# verts
v -8 0 1.6
v -8 0 0
v -8 14.8 4.8
v -8 14.8 1.6
v -8 14.8 0
v -8 16 4.8
v -8 16 0
v 8 0 1.6
v 8 0 0
v 8 14.8 4.8
v 8 14.8 1.6
v 8 14.8 0
v 8 16 4.8
v 8 16 0
v -8 14.8 4.8
v -8 16 4.8
v 8 14.8 4.8
v 8 16 4.8
v -8 0 1.6
v -8 14.8 1.6
v -6.4 0.1 1.6
v -6.4 14.4 1.6
v -5.9 0.5 1.6
v -5.9 13.9 1.6
v -3.2 0.5 1.6
v -3.2 13.9 1.6
v -2.7 0.5 1.6
v -2.7 13.9 1.6
v -2.1 0.5 1.6
v -2.1 13.9 1.6
v 2.7 0.5 1.6
v 2.7 13.9 1.6
v 3.2 0.5 1.6
v 3.2 13.9 1.6
v 5.9 0.5 1.6
v 5.9 13.9 1.6
v 6.4 0.1 1.6
v 6.4 14.4 1.6
v 8 0 1.6
v 8 14.8 1.6
v -8 0 0
v -8 14.8 0
v -8 16 0
v 8 0 0
v 8 14.8 0
v 8 16 0
v -8 0 1.6
v 8 0 1.6
v -8 0 0
v 8 0 0
v -8 14.8 4.8
v 8 14.8 4.8
v -8 14.8 1.6
v 8 14.8 1.6
v -8 16 4.8
v 8 16 4.8
v -8 16 0
v 8 16 0

# faces
f 4/2/1 2/2/1 1/2/1
f 5/2/1 2/2/1 4/2/1
f 6/5/1 4/5/1 3/5/1
f 6/5/1 5/5/1 4/5/1
f 7/5/1 5/5/1 6/5/1
f 8/2/2 9/2/2 11/2/2
f 11/2/2 9/2/2 12/2/2
f 10/5/2 11/5/2 13/5/2
f 11/5/2 12/5/2 13/5/2
f 13/5/2 12/5/2 14/5/2
f 17/5/3 16/5/3 15/5/3
f 18/5/3 16/5/3 17/5/3
f 21/2/3 20/2/3 19/2/3
f 22/2/3 20/2/3 21/2/3
f 23/1/3 22/1/3 21/1/3
f 24/1/3 22/1/3 23/1/3
f 25/1/3 23/1/3 21/1/3
f 25/3/3 24/3/3 23/3/3
f 26/1/3 22/1/3 24/1/3
f 26/3/3 24/3/3 25/3/3
f 27/1/3 25/1/3 21/1/3
f 27/1/3 26/1/3 25/1/3
f 28/1/3 22/1/3 26/1/3
f 28/1/3 26/1/3 27/1/3
f 29/1/3 27/1/3 21/1/3
f 29/4/3 28/4/3 27/4/3
f 30/1/3 22/1/3 28/1/3
f 30/4/3 28/4/3 29/4/3
f 31/1/3 29/1/3 21/1/3
f 31/3/3 30/3/3 29/3/3
f 32/1/3 22/1/3 30/1/3
f 32/3/3 30/3/3 31/3/3
f 33/1/3 31/1/3 21/1/3
f 33/1/3 32/1/3 31/1/3
f 34/1/3 22/1/3 32/1/3
f 34/1/3 32/1/3 33/1/3
f 35/1/3 33/1/3 21/1/3
f 35/3/3 34/3/3 33/3/3
f 36/1/3 22/1/3 34/1/3
f 36/3/3 34/3/3 35/3/3
f 37/2/3 21/2/3 19/2/3
f 37/1/3 35/1/3 21/1/3
f 37/1/3 36/1/3 35/1/3
f 38/1/3 22/1/3 36/1/3
f 38/1/3 36/1/3 37/1/3
f 38/2/3 20/2/3 22/2/3
f 39/2/3 37/2/3 19/2/3
f 39/2/3 38/2/3 37/2/3
f 40/2/3 20/2/3 38/2/3
f 40/2/3 38/2/3 39/2/3
f 41/2/4 42/2/4 44/2/4
f 42/5/4 43/5/4 45/5/4
f 44/2/4 42/2/4 45/2/4
f 45/5/4 43/5/4 46/5/4
f 49/2/5 48/2/5 47/2/5
f 50/2/5 48/2/5 49/2/5
f 53/5/5 52/5/5 51/5/5
f 54/5/5 52/5/5 53/5/5
f 55/5/6 56/5/6 57/5/6
f 57/5/6 56/5/6 58/5/6
