# MagicaVoxel @ Ephtracy

# group
o lod2

# material
mtllib entrance1-1-lod2.mtl
usemtl palette

# normals
vn -1 0 0
vn 1 0 0
vn 0 0 1
vn 0 0 -1
vn 0 -1 0
vn 0 1 0

# texcoords
vt 0.0371094 0.5
vt 0.0917969 0.5
vt 0.142578 0.5
vt 0.724609 0.5
vt 0.845703 0.5
vt 0.970703 0.5
vt 0.974609 0.5

# verts
v -8 0 10
v -8 0 9.2
v -8 0 0.400001
v -8 0 0
v -8 2.4 10
v -8 2.4 9.2
v -8 14.3 10
v -8 14.3 9.2
v -8 14.4 10
v -8 14.4 5.3
v -8 14.4 5.2
v -8 14.4 0.5
v -8 15.1 10
v -8 15.1 5.3
v -8 16 5.2
v -8 16 0.5
v -8 16 0.400001
v -8 16 0
v 7.2 0 10
v 7.2 0 9.2
v 7.2 2.4 10
v 7.2 2.4 9.2
v 7.2 14.3 10
v 7.2 14.3 9.2
v -7.2 0 10
v -7.2 0 9.2
v -7.2 2.4 10
v -7.2 2.4 9.2
v -7.2 14.3 10
v -7.2 14.3 9.2
v 8 0 10
v 8 0 9.2
v 8 0 0.400001
v 8 0 0
v 8 2.4 10
v 8 2.4 9.2
v 8 14.3 10
v 8 14.3 9.2
v 8 14.4 10
v 8 14.4 5.3
v 8 14.4 5.2
v 8 14.4 0.5
v 8 15.1 10
v 8 15.1 5.3
v 8 16 5.2
v 8 16 0.5
v 8 16 0.400001
v 8 16 0
v -8 0 10
v -8 2.4 10
v -8 14.3 10
v -8 14.4 10
v -8 15.1 10
v -7.2 0 10
v -7.2 2.4 10
v -7.2 14.3 10
v 7.2 0 10
v 7.2 2.4 10
v 7.2 14.3 10
v 8 0 10
v 8 2.4 10
v 8 14.3 10
v 8 14.4 10
v 8 15.1 10
v -8 14.4 5.2
v -8 16 5.2
v 8 14.4 5.2
v 8 16 5.2
v -8 0 0.400001
v -8 16 0.400001
v -7.9 0.1 0.400001
v -7.9 2.4 0.400001
v -3.6 0.1 0.400001
v -3.6 2.4 0.400001
v -3.6 13.2 0.400001
v -3.2 0.1 0.400001
v -3.2 12.8 0.400001
v -2.9 10.4 0.400001
v -2.9 12.4 0.400001
v -0.9 10.4 0.400001
v -0.9 12.4 0.400001
v -0.4 10.4 0.400001
v -0.4 12.4 0.400001
v -0.1 4.3 0.400001
v -0.1 5.4 0.400001
v 0 4.3 0.400001
v 0 5.4 0.400001
v 0.2 5.6 0.400001
v 0.2 9.5 0.400001
v 2.9 5.6 0.400001
v 2.9 9.5 0.400001
v 3.2 10.4 0.400001
v 3.2 12.4 0.400001
v 3.6 0.1 0.400001
v 3.6 12.8 0.400001
v 4 0.1 0.400001
v 4 2.4 0.400001
v 4 13.2 0.400001
v 7.9 0.1 0.400001
v 7.9 2.4 0.400001
v 8 0 0.400001
v 8 16 0.400001
v -8 0 9.2
v -8 2.4 9.2
v -8 14.3 9.2
v -7.2 0 9.2
v -7.2 2.4 9.2
v -7.2 14.3 9.2
v 7.2 0 9.2
v 7.2 2.4 9.2
v 7.2 14.3 9.2
v 8 0 9.2
v 8 2.4 9.2
v 8 14.3 9.2
v -8 14.4 5.3
v -8 15.1 5.3
v 8 14.4 5.3
v 8 15.1 5.3
v -8 14.4 0.5
v -8 16 0.5
v 8 14.4 0.5
v 8 16 0.5
v -8 0 0
v -8 16 0
v 8 0 0
v 8 16 0
v -8 0 10
v -7.2 0 10
v 7.2 0 10
v 8 0 10
v -8 0 9.2
v -7.2 0 9.2
v 7.2 0 9.2
v 8 0 9.2
v -8 0 0.400001
v 8 0 0.400001
v -8 0 0
v 8 0 0
v -8 14.4 10
v 8 14.4 10
v -8 14.4 5.3
v 8 14.4 5.3
v -8 14.4 5.2
v 8 14.4 5.2
v -8 14.4 0.5
v 8 14.4 0.5
v -8 14.3 10
v -7.2 14.3 10
v 7.2 14.3 10
v 8 14.3 10
v -8 14.3 9.2
v -7.2 14.3 9.2
v 7.2 14.3 9.2
v 8 14.3 9.2
v -8 15.1 10
v 8 15.1 10
v -8 15.1 5.3
v 8 15.1 5.3
v -8 16 5.2
v 8 16 5.2
v -8 16 0.5
v 8 16 0.5
v -8 16 0.400001
v 8 16 0.400001
v -8 16 0
v 8 16 0

# faces
f 5/5/1 2/5/1 1/5/1
f 6/5/1 2/5/1 5/5/1
f 7/7/1 6/7/1 5/7/1
f 8/7/1 6/7/1 7/7/1
f 13/4/1 10/4/1 9/4/1
f 14/4/1 10/4/1 13/4/1
f 15/4/1 12/4/1 11/4/1
f 16/4/1 12/4/1 15/4/1
f 17/7/1 4/7/1 3/7/1
f 18/7/1 4/7/1 17/7/1
f 21/5/1 20/5/1 19/5/1
f 22/5/1 20/5/1 21/5/1
f 23/7/1 22/7/1 21/7/1
f 24/7/1 22/7/1 23/7/1
f 25/5/2 26/5/2 27/5/2
f 27/5/2 26/5/2 28/5/2
f 27/7/2 28/7/2 29/7/2
f 29/7/2 28/7/2 30/7/2
f 31/5/2 32/5/2 35/5/2
f 35/5/2 32/5/2 36/5/2
f 35/7/2 36/7/2 37/7/2
f 37/7/2 36/7/2 38/7/2
f 39/4/2 40/4/2 43/4/2
f 43/4/2 40/4/2 44/4/2
f 41/4/2 42/4/2 45/4/2
f 45/4/2 42/4/2 46/4/2
f 33/7/2 34/7/2 47/7/2
f 47/7/2 34/7/2 48/7/2
f 54/5/3 50/5/3 49/5/3
f 55/7/3 51/7/3 50/7/3
f 55/5/3 50/5/3 54/5/3
f 56/7/3 51/7/3 55/7/3
f 60/5/3 58/5/3 57/5/3
f 61/7/3 59/7/3 58/7/3
f 61/5/3 58/5/3 60/5/3
f 62/7/3 59/7/3 61/7/3
f 63/4/3 53/4/3 52/4/3
f 64/4/3 53/4/3 63/4/3
f 67/4/3 66/4/3 65/4/3
f 68/4/3 66/4/3 67/4/3
f 71/7/3 70/7/3 69/7/3
f 72/7/3 70/7/3 71/7/3
f 73/7/3 71/7/3 69/7/3
f 73/5/3 72/5/3 71/5/3
f 74/7/3 70/7/3 72/7/3
f 74/5/3 72/5/3 73/5/3
f 75/7/3 70/7/3 74/7/3
f 76/7/3 73/7/3 69/7/3
f 76/6/3 74/6/3 73/6/3
f 76/6/3 75/6/3 74/6/3
f 77/6/3 75/6/3 76/6/3
f 78/1/3 77/1/3 76/1/3
f 79/1/3 77/1/3 78/1/3
f 80/1/3 78/1/3 76/1/3
f 80/3/3 79/3/3 78/3/3
f 81/1/3 77/1/3 79/1/3
f 81/3/3 79/3/3 80/3/3
f 82/1/3 80/1/3 76/1/3
f 82/1/3 81/1/3 80/1/3
f 83/1/3 77/1/3 81/1/3
f 83/1/3 81/1/3 82/1/3
f 84/1/3 82/1/3 76/1/3
f 85/1/3 82/1/3 84/1/3
f 86/1/3 84/1/3 76/1/3
f 86/2/3 85/2/3 84/2/3
f 87/1/3 82/1/3 85/1/3
f 87/2/3 85/2/3 86/2/3
f 88/1/3 87/1/3 86/1/3
f 88/1/3 82/1/3 87/1/3
f 89/1/3 82/1/3 88/1/3
f 90/1/3 88/1/3 86/1/3
f 90/3/3 89/3/3 88/3/3
f 91/1/3 82/1/3 89/1/3
f 91/3/3 89/3/3 90/3/3
f 92/3/3 83/3/3 82/3/3
f 92/1/3 82/1/3 91/1/3
f 92/1/3 91/1/3 90/1/3
f 93/1/3 77/1/3 83/1/3
f 93/3/3 83/3/3 92/3/3
f 94/7/3 76/7/3 69/7/3
f 94/1/3 92/1/3 90/1/3
f 94/1/3 93/1/3 92/1/3
f 94/1/3 86/1/3 76/1/3
f 94/1/3 90/1/3 86/1/3
f 95/1/3 77/1/3 93/1/3
f 95/1/3 93/1/3 94/1/3
f 95/6/3 75/6/3 77/6/3
f 96/7/3 94/7/3 69/7/3
f 96/6/3 95/6/3 94/6/3
f 97/6/3 95/6/3 96/6/3
f 98/7/3 70/7/3 75/7/3
f 98/6/3 95/6/3 97/6/3
f 98/6/3 75/6/3 95/6/3
f 99/5/3 97/5/3 96/5/3
f 99/7/3 96/7/3 69/7/3
f 100/7/3 98/7/3 97/7/3
f 100/5/3 97/5/3 99/5/3
f 101/7/3 99/7/3 69/7/3
f 101/7/3 100/7/3 99/7/3
f 102/7/3 70/7/3 98/7/3
f 102/7/3 100/7/3 101/7/3
f 102/7/3 98/7/3 100/7/3
f 103/5/4 104/5/4 106/5/4
f 104/7/4 105/7/4 107/7/4
f 106/5/4 104/5/4 107/5/4
f 107/7/4 105/7/4 108/7/4
f 109/5/4 110/5/4 112/5/4
f 110/7/4 111/7/4 113/7/4
f 112/5/4 110/5/4 113/5/4
f 113/7/4 111/7/4 114/7/4
f 115/4/4 116/4/4 117/4/4
f 117/4/4 116/4/4 118/4/4
f 119/4/4 120/4/4 121/4/4
f 121/4/4 120/4/4 122/4/4
f 123/7/4 124/7/4 125/7/4
f 125/7/4 124/7/4 126/7/4
f 131/5/5 128/5/5 127/5/5
f 132/5/5 128/5/5 131/5/5
f 133/5/5 130/5/5 129/5/5
f 134/5/5 130/5/5 133/5/5
f 137/7/5 136/7/5 135/7/5
f 138/7/5 136/7/5 137/7/5
f 141/4/5 140/4/5 139/4/5
f 142/4/5 140/4/5 141/4/5
f 145/4/5 144/4/5 143/4/5
f 146/4/5 144/4/5 145/4/5
f 147/7/6 148/7/6 151/7/6
f 151/7/6 148/7/6 152/7/6
f 149/7/6 150/7/6 153/7/6
f 153/7/6 150/7/6 154/7/6
f 155/4/6 156/4/6 157/4/6
f 157/4/6 156/4/6 158/4/6
f 159/4/6 160/4/6 161/4/6
f 161/4/6 160/4/6 162/4/6
f 163/7/6 164/7/6 165/7/6
f 165/7/6 164/7/6 166/7/6
