# MagicaVoxel @ Ephtracy

# group
o lod3

# material
mtllib entrance3-0-lod3.mtl
usemtl palette

# normals
vn -1 0 0
vn 1 0 0
vn 0 0 1
vn 0 0 -1
vn 0 -1 0
vn 0 1 0

# texcoords
vt 0.892578 0.5
vt 0.974609 0.5

# verts
v -8 0 13.6
v -8 0 0
v -8 16 13.6
v -8 16 0
v 7.2 1.6 13.6
v 7.2 1.6 1.2
v 7.2 15.2 13.6
v 7.2 15.2 1.2
v -7.2 1.6 13.6
v -7.2 1.6 1.2
v -7.2 15.2 13.6
v -7.2 15.2 1.2
v 8 0 13.6
v 8 0 0
v 8 16 13.6
v 8 16 0
v -8 0 13.6
v -8 16 13.6
v -7.2 1.6 13.6
v -7.2 15.2 13.6
v 7.2 1.6 13.6
v 7.2 15.2 13.6
v 8 0 13.6
v 8 16 13.6
v -7.2 1.6 1.2
v -7.2 15.2 1.2
v -4.4 1.6 1.2
v -4.4 12.4 1.2
v 4.4 1.6 1.2
v 4.4 12.4 1.2
v 7.2 1.6 1.2
v 7.2 15.2 1.2
v -8 0 0
v -8 16 0
v 8 0 0
v 8 16 0
v -8 0 13.6
v 8 0 13.6
v -8 0 0
v 8 0 0
v -7.2 15.2 13.6
v 7.2 15.2 13.6
v -7.2 15.2 1.2
v 7.2 15.2 1.2
v -7.2 1.6 13.6
v 7.2 1.6 13.6
v -7.2 1.6 1.2
v -4.4 1.6 1.2
v 4.4 1.6 1.2
v 7.2 1.6 1.2
v -8 16 13.6
v 8 16 13.6
v -8 16 0
v 8 16 0

# faces
f 3/2/1 2/2/1 1/2/1
f 4/2/1 2/2/1 3/2/1
f 7/2/1 6/2/1 5/2/1
f 8/2/1 6/2/1 7/2/1
f 9/2/2 10/2/2 11/2/2
f 11/2/2 10/2/2 12/2/2
f 13/2/2 14/2/2 15/2/2
f 15/2/2 14/2/2 16/2/2
f 19/2/3 18/2/3 17/2/3
f 20/2/3 18/2/3 19/2/3
f 21/2/3 19/2/3 17/2/3
f 22/2/3 18/2/3 20/2/3
f 23/2/3 21/2/3 17/2/3
f 23/2/3 22/2/3 21/2/3
f 24/2/3 18/2/3 22/2/3
f 24/2/3 22/2/3 23/2/3
f 27/2/3 26/2/3 25/2/3
f 28/2/3 26/2/3 27/2/3
f 29/1/3 28/1/3 27/1/3
f 30/2/3 26/2/3 28/2/3
f 30/1/3 28/1/3 29/1/3
f 31/2/3 30/2/3 29/2/3
f 32/2/3 26/2/3 30/2/3
f 32/2/3 30/2/3 31/2/3
f 33/2/4 34/2/4 35/2/4
f 35/2/4 34/2/4 36/2/4
f 39/2/5 38/2/5 37/2/5
f 40/2/5 38/2/5 39/2/5
f 43/2/5 42/2/5 41/2/5
f 44/2/5 42/2/5 43/2/5
f 45/2/6 46/2/6 47/2/6
f 47/2/6 46/2/6 48/2/6
f 48/2/6 46/2/6 49/2/6
f 49/2/6 46/2/6 50/2/6
f 51/2/6 52/2/6 53/2/6
f 53/2/6 52/2/6 54/2/6
