# MagicaVoxel @ Ephtracy

# group
o lod3

# material
mtllib entrance1-0-lod3.mtl
usemtl palette

# normals
vn -1 0 0
vn 1 0 0
vn 0 0 1
vn 0 0 -1
vn 0 -1 0
vn 0 1 0

# texcoords
vt 0.0371094 0.5
vt 0.142578 0.5
vt 0.724609 0.5
vt 0.845703 0.5
vt 0.970703 0.5
vt 0.974609 0.5

# verts
v -8 0 0.400001
v -8 0 0
v -8 14.4 10
v -8 14.4 0.5
v -8 16 10
v -8 16 0.5
v -8 16 0.400001
v -8 16 0
v 8 0 0.400001
v 8 0 0
v 8 14.4 10
v 8 14.4 0.5
v 8 16 10
v 8 16 0.5
v 8 16 0.400001
v 8 16 0
v -8 14.4 10
v -8 16 10
v 8 14.4 10
v 8 16 10
v -8 0 0.400001
v -8 16 0.400001
v -7.9 0.1 0.400001
v -7.9 2.4 0.400001
v -3.6 0.1 0.400001
v -3.6 2.4 0.400001
v -3.2 0.1 0.400001
v -3.2 12.8 0.400001
v 3.6 0.1 0.400001
v 3.6 12.8 0.400001
v 4 0.1 0.400001
v 4 2.4 0.400001
v 7.9 0.1 0.400001
v 7.9 2.4 0.400001
v 8 0 0.400001
v 8 16 0.400001
v -8 14.4 0.5
v -8 16 0.5
v 8 14.4 0.5
v 8 16 0.5
v -8 0 0
v -8 16 0
v 8 0 0
v 8 16 0
v -8 0 0.400001
v 8 0 0.400001
v -8 0 0
v 8 0 0
v -8 14.4 10
v 8 14.4 10
v -8 14.4 0.5
v 8 14.4 0.5
v -8 16 10
v 8 16 10
v -8 16 0.5
v 8 16 0.5
v -8 16 0.400001
v 8 16 0.400001
v -8 16 0
v 8 16 0

# faces
f 5/3/1 4/3/1 3/3/1
f 6/3/1 4/3/1 5/3/1
f 7/6/1 2/6/1 1/6/1
f 8/6/1 2/6/1 7/6/1
f 11/3/2 12/3/2 13/3/2
f 13/3/2 12/3/2 14/3/2
f 9/6/2 10/6/2 15/6/2
f 15/6/2 10/6/2 16/6/2
f 19/3/3 18/3/3 17/3/3
f 20/3/3 18/3/3 19/3/3
f 23/6/3 22/6/3 21/6/3
f 24/6/3 22/6/3 23/6/3
f 25/6/3 23/6/3 21/6/3
f 25/4/3 24/4/3 23/4/3
f 26/6/3 22/6/3 24/6/3
f 26/4/3 24/4/3 25/4/3
f 27/6/3 25/6/3 21/6/3
f 27/6/3 26/6/3 25/6/3
f 28/6/3 22/6/3 26/6/3
f 28/6/3 26/6/3 27/6/3
f 29/6/3 27/6/3 21/6/3
f 29/1/3 28/1/3 27/1/3
f 30/6/3 22/6/3 28/6/3
f 30/1/3 28/1/3 29/1/3
f 31/6/3 29/6/3 21/6/3
f 31/6/3 30/6/3 29/6/3
f 32/6/3 30/6/3 31/6/3
f 33/6/3 31/6/3 21/6/3
f 33/4/3 32/4/3 31/4/3
f 34/6/3 30/6/3 32/6/3
f 34/4/3 32/4/3 33/4/3
f 35/6/3 33/6/3 21/6/3
f 35/6/3 34/6/3 33/6/3
f 36/6/3 22/6/3 30/6/3
f 36/6/3 34/6/3 35/6/3
f 36/6/3 30/6/3 34/6/3
f 37/3/4 38/3/4 39/3/4
f 39/3/4 38/3/4 40/3/4
f 41/6/4 42/6/4 43/6/4
f 43/6/4 42/6/4 44/6/4
f 47/6/5 46/6/5 45/6/5
f 48/6/5 46/6/5 47/6/5
f 51/3/5 50/3/5 49/3/5
f 52/3/5 50/3/5 51/3/5
f 53/3/6 54/3/6 55/3/6
f 55/3/6 54/3/6 56/3/6
f 57/6/6 58/6/6 59/6/6
f 59/6/6 58/6/6 60/6/6
