# MagicaVoxel @ Ephtracy

# group
o lod3

# material
mtllib entrance5-0-lod3.mtl
usemtl palette

# normals
vn -1 0 0
vn 1 0 0
vn 0 0 1
vn 0 0 -1
vn 0 -1 0
vn 0 1 0

# texcoords
vt 0.177734 0.5
vt 0.205078 0.5
vt 0.423828 0.5
vt 0.787109 0.5
vt 0.814453 0.5
vt 0.962891 0.5

# verts
v -8 0 1.2
v -8 0 0
v -8 15.2 10
v -8 15.2 1.2
v -8 16 10
v -8 16 0
v 7.2 0 10
v 7.2 0 1.2
v 7.2 0.1 9.6
v 7.2 0.1 1.2
v 7.2 15.2 10
v 7.2 15.2 9.6
v 7.2 15.2 1.2
v 8 0 10
v 8 0 0
v 8 16 10
v 8 16 0
v -8 15.2 10
v -8 16 10
v 7.2 0 10
v 7.2 15.2 10
v 8 0 10
v 8 16 10
v -8 0 1.2
v -8 15.2 1.2
v -7.9 0.1 1.2
v -7.9 15.2 1.2
v -6 0.1 1.2
v -6 12.8 1.2
v -5.2 0.4 1.2
v -5.2 2 1.2
v -5.2 2.4 1.2
v -5.2 12 1.2
v -0.8 0.4 1.2
v -0.8 2 1.2
v -0.8 2.4 1.2
v -0.8 12 1.2
v 0 0.1 1.2
v 0 12.8 1.2
v 7.2 0 1.2
v 7.2 0.1 1.2
v 7.2 15.2 1.2
v -8 0 0
v -8 16 0
v 8 0 0
v 8 16 0
v 7.2 0 10
v 8 0 10
v -8 0 1.2
v 7.2 0 1.2
v -8 0 0
v 8 0 0
v -8 15.2 10
v 7.2 15.2 10
v -7.9 15.2 9.6
v 7.2 15.2 9.6
v -8 15.2 1.2
v -7.9 15.2 1.2
v 7.2 15.2 1.2
v -8 16 10
v 8 16 10
v -8 16 0
v 8 16 0

# faces
f 4/5/1 2/5/1 1/5/1
f 5/5/1 4/5/1 3/5/1
f 6/5/1 2/5/1 4/5/1
f 6/5/1 4/5/1 5/5/1
f 9/5/1 8/5/1 7/5/1
f 10/5/1 8/5/1 9/5/1
f 11/5/1 9/5/1 7/5/1
f 12/2/1 10/2/1 9/2/1
f 12/5/1 9/5/1 11/5/1
f 13/2/1 10/2/1 12/2/1
f 14/5/2 15/5/2 16/5/2
f 16/5/2 15/5/2 17/5/2
f 21/5/3 19/5/3 18/5/3
f 22/5/3 21/5/3 20/5/3
f 23/5/3 19/5/3 21/5/3
f 23/5/3 21/5/3 22/5/3
f 26/5/3 25/5/3 24/5/3
f 27/5/3 25/5/3 26/5/3
f 28/5/3 26/5/3 24/5/3
f 28/2/3 27/2/3 26/2/3
f 29/2/3 27/2/3 28/2/3
f 30/4/3 29/4/3 28/4/3
f 31/4/3 29/4/3 30/4/3
f 32/4/3 29/4/3 31/4/3
f 33/4/3 29/4/3 32/4/3
f 34/4/3 30/4/3 28/4/3
f 34/6/3 31/6/3 30/6/3
f 35/4/3 32/4/3 31/4/3
f 35/6/3 31/6/3 34/6/3
f 36/3/3 33/3/3 32/3/3
f 36/4/3 32/4/3 35/4/3
f 37/4/3 29/4/3 33/4/3
f 37/3/3 33/3/3 36/3/3
f 38/5/3 28/5/3 24/5/3
f 38/4/3 36/4/3 35/4/3
f 38/4/3 37/4/3 36/4/3
f 38/4/3 34/4/3 28/4/3
f 38/4/3 35/4/3 34/4/3
f 39/4/3 29/4/3 37/4/3
f 39/4/3 37/4/3 38/4/3
f 39/2/3 27/2/3 29/2/3
f 40/5/3 38/5/3 24/5/3
f 41/2/3 39/2/3 38/2/3
f 41/5/3 38/5/3 40/5/3
f 42/2/3 27/2/3 39/2/3
f 42/2/3 39/2/3 41/2/3
f 43/5/4 44/5/4 45/5/4
f 45/5/4 44/5/4 46/5/4
f 50/5/5 48/5/5 47/5/5
f 51/5/5 50/5/5 49/5/5
f 52/5/5 48/5/5 50/5/5
f 52/5/5 50/5/5 51/5/5
f 55/5/5 54/5/5 53/5/5
f 56/5/5 54/5/5 55/5/5
f 57/5/5 55/5/5 53/5/5
f 58/2/5 56/2/5 55/2/5
f 58/5/5 55/5/5 57/5/5
f 59/2/5 56/2/5 58/2/5
f 60/5/6 61/5/6 62/5/6
f 62/5/6 61/5/6 63/5/6
