# MagicaVoxel @ Ephtracy

# group
o lod1

# material
mtllib streetLight1-2-lod1.mtl
usemtl palette

# normals
vn 1 0 0
vn -1 0 0
vn 0 0 -1
vn 0 0 1
vn 0 -1 0
vn 0 1 0

# texcoords
vt 0.958984 0.5
vt 0.970703 0.5
vt 0.974609 0.5
vt 0.986328 0.5

# verts
v 1.2 0 -1.1
v 1.2 0 1.1
v 1.2 0.7 -1.1
v 1.2 0.7 1.1
v 1.1 0 -1.2
v 1.1 0 -1.1
v 1.1 0 1.1
v 1.1 0 1.2
v 1.1 0.7 -1.2
v 1.1 0.7 -1.1
v 1.1 0.7 -1
v 1.1 0.7 1
v 1.1 0.7 1.1
v 1.1 0.7 1.2
v 1.1 0.8 -1
v 1.1 0.8 1
v 1 0.7 -1.1
v 1 0.7 -1
v 1 0.7 1
v 1 0.7 1.1
v 1 0.8 -1.1
v 1 0.8 -1
v 1 0.8 1
v 1 0.8 1.1
v 0.4 0.8 -0.4
v 0.4 0.8 0.4
v 0.4 9.1 -0.4
v 0.4 9.1 0.4
v 0.4 18 3.6
v 0.4 18 5
v 0.4 18.4 3.6
v 0.4 18.4 5
v 0.3 9.1 -0.3
v 0.3 9.1 0.3
v 0.3 11.9 -0.3
v 0.3 11.9 0.3
v 0.2 11.9 -0.2
v 0.2 11.9 0.2
v 0.2 16.8 -0.2
v 0.2 16.8 -1.19209e-007
v 0.2 16.8 0.2
v 0.2 16.8 0.8
v 0.2 17.2 -1.19209e-007
v 0.2 17.2 0.4
v 0.2 17.2 0.8
v 0.2 17.2 1.2
v 0.2 17.6 0.4
v 0.2 17.6 0.8
v 0.2 17.6 1.2
v 0.2 17.6 1.6
v 0.2 18 0.8
v 0.2 18 1.2
v 0.2 18 1.6
v 0.2 18 2.4
v 0.2 18.2 2.4
v 0.2 18.2 3.6
v 0.2 18.4 1.2
v 0.2 18.4 3.6
v 0.2 18.4 3.8
v 0.2 18.4 4.8
v 0.2 18.6 3.8
v 0.2 18.6 4.8
v -0.2 11.9 -0.2
v -0.2 11.9 0.2
v -0.2 16.8 -0.2
v -0.2 16.8 -1.19209e-007
v -0.2 16.8 0.2
v -0.2 16.8 0.8
v -0.2 17.2 -1.19209e-007
v -0.2 17.2 0.4
v -0.2 17.2 0.8
v -0.2 17.2 1.2
v -0.2 17.6 0.4
v -0.2 17.6 0.8
v -0.2 17.6 1.2
v -0.2 17.6 1.6
v -0.2 18 0.8
v -0.2 18 1.2
v -0.2 18 1.6
v -0.2 18 2.4
v -0.2 18.2 2.4
v -0.2 18.2 3.6
v -0.2 18.4 1.2
v -0.2 18.4 3.6
v -0.2 18.4 3.8
v -0.2 18.4 4.8
v -0.2 18.6 3.8
v -0.2 18.6 4.8
v -0.3 9.1 -0.3
v -0.3 9.1 0.3
v -0.3 11.9 -0.3
v -0.3 11.9 0.3
v -0.4 0.8 -0.4
v -0.4 0.8 0.4
v -0.4 9.1 -0.4
v -0.4 9.1 0.4
v -0.4 18 3.6
v -0.4 18 5
v -0.4 18.4 3.6
v -0.4 18.4 5
v -1 0.7 -1.1
v -1 0.7 -1
v -1 0.7 1
v -1 0.7 1.1
v -1 0.8 -1.1
v -1 0.8 -1
v -1 0.8 1
v -1 0.8 1.1
v -1.1 0 -1.2
v -1.1 0 -1.1
v -1.1 0 1.1
v -1.1 0 1.2
v -1.1 0.7 -1.2
v -1.1 0.7 -1.1
v -1.1 0.7 -1
v -1.1 0.7 1
v -1.1 0.7 1.1
v -1.1 0.7 1.2
v -1.1 0.8 -1
v -1.1 0.8 1
v -1.2 0 -1.1
v -1.2 0 1.1
v -1.2 0.7 -1.1
v -1.2 0.7 1.1
v 1.1 0 -1.2
v 1.1 0.7 -1.2
v -1.1 0 -1.2
v -1.1 0.7 -1.2
v 1.2 0 -1.1
v 1.2 0.7 -1.1
v 1.1 0 -1.1
v 1.1 0.7 -1.1
v 1 0.7 -1.1
v 1 0.8 -1.1
v -1 0.7 -1.1
v -1 0.8 -1.1
v -1.1 0 -1.1
v -1.1 0.7 -1.1
v -1.2 0 -1.1
v -1.2 0.7 -1.1
v 1.1 0.7 -1
v 1.1 0.8 -1
v 1 0.7 -1
v 1 0.8 -1
v -1 0.7 -1
v -1 0.8 -1
v -1.1 0.7 -1
v -1.1 0.8 -1
v 0.4 0.8 -0.4
v 0.4 9.1 -0.4
v -0.4 0.8 -0.4
v -0.4 9.1 -0.4
v 0.3 9.1 -0.3
v 0.3 11.9 -0.3
v -0.3 9.1 -0.3
v -0.3 11.9 -0.3
v 0.2 11.9 -0.2
v 0.2 16.8 -0.2
v -0.2 11.9 -0.2
v -0.2 16.8 -0.2
v 0.2 16.8 -1.19209e-007
v 0.2 17.2 -1.19209e-007
v -0.2 16.8 -1.19209e-007
v -0.2 17.2 -1.19209e-007
v 0.2 17.2 0.4
v 0.2 17.6 0.4
v -0.2 17.2 0.4
v -0.2 17.6 0.4
v 0.2 17.6 0.8
v 0.2 18 0.8
v -0.2 17.6 0.8
v -0.2 18 0.8
v 0.2 18 1.2
v 0.2 18.4 1.2
v -0.2 18 1.2
v -0.2 18.4 1.2
v 0.4 18 3.6
v 0.4 18.4 3.6
v 0.2 18.2 3.6
v 0.2 18.4 3.6
v -0.2 18.2 3.6
v -0.2 18.4 3.6
v -0.4 18 3.6
v -0.4 18.4 3.6
v 0.2 18.4 3.8
v 0.2 18.6 3.8
v -0.2 18.4 3.8
v -0.2 18.6 3.8
v 0.2 11.9 0.2
v 0.2 16.8 0.2
v -0.2 11.9 0.2
v -0.2 16.8 0.2
v 0.3 9.1 0.3
v 0.3 11.9 0.3
v -0.3 9.1 0.3
v -0.3 11.9 0.3
v 0.4 0.8 0.4
v 0.4 9.1 0.4
v -0.4 0.8 0.4
v -0.4 9.1 0.4
v 0.2 16.8 0.8
v 0.2 17.2 0.8
v -0.2 16.8 0.8
v -0.2 17.2 0.8
v 1.1 0.7 1
v 1.1 0.8 1
v 1 0.7 1
v 1 0.8 1
v -1 0.7 1
v -1 0.8 1
v -1.1 0.7 1
v -1.1 0.8 1
v 1.2 0 1.1
v 1.2 0.7 1.1
v 1.1 0 1.1
v 1.1 0.7 1.1
v 1 0.7 1.1
v 1 0.8 1.1
v -1 0.7 1.1
v -1 0.8 1.1
v -1.1 0 1.1
v -1.1 0.7 1.1
v -1.2 0 1.1
v -1.2 0.7 1.1
v 1.1 0 1.2
v 1.1 0.7 1.2
v 0.2 17.2 1.2
v 0.2 17.6 1.2
v -0.2 17.2 1.2
v -0.2 17.6 1.2
v -1.1 0 1.2
v -1.1 0.7 1.2
v 0.2 17.6 1.6
v 0.2 18 1.6
v -0.2 17.6 1.6
v -0.2 18 1.6
v 0.2 18 2.4
v 0.2 18.2 2.4
v -0.2 18 2.4
v -0.2 18.2 2.4
v 0.2 18.4 4.8
v 0.2 18.6 4.8
v -0.2 18.4 4.8
v -0.2 18.6 4.8
v 0.4 18 5
v 0.4 18.4 5
v -0.4 18 5
v -0.4 18.4 5
v 1.1 0 -1.2
v -1.1 0 -1.2
v 1.2 0 -1.1
v 1.1 0 -1.1
v -1.1 0 -1.1
v -1.2 0 -1.1
v 1.2 0 1.1
v 1.1 0 1.1
v -1.1 0 1.1
v -1.2 0 1.1
v 1.1 0 1.2
v -1.1 0 1.2
v 0.2 16.8 0.2
v -0.2 16.8 0.2
v 0.2 16.8 0.8
v -0.2 16.8 0.8
v 0.2 17.2 0.8
v -0.2 17.2 0.8
v 0.2 17.2 1.2
v -0.2 17.2 1.2
v 0.2 17.6 1.2
v -0.2 17.6 1.2
v 0.2 17.6 1.6
v -0.2 17.6 1.6
v 0.2 18 1.6
v -0.2 18 1.6
v 0.2 18 2.4
v -0.2 18 2.4
v 0.4 18 3.6
v -0.4 18 3.6
v 0.2 18 3.8
v -0.2 18 3.8
v 0.2 18 4.8
v -0.2 18 4.8
v 0.4 18 5
v -0.4 18 5
v 0.2 18.2 2.4
v -0.2 18.2 2.4
v 0.2 18.2 3.6
v -0.2 18.2 3.6
v 1.1 0.7 -1.2
v -1.1 0.7 -1.2
v 1.2 0.7 -1.1
v 1.1 0.7 -1.1
v 1 0.7 -1.1
v -1 0.7 -1.1
v -1.1 0.7 -1.1
v -1.2 0.7 -1.1
v 1.1 0.7 -1
v 1 0.7 -1
v -1 0.7 -1
v -1.1 0.7 -1
v 1.1 0.7 1
v 1 0.7 1
v -1 0.7 1
v -1.1 0.7 1
v 1.2 0.7 1.1
v 1.1 0.7 1.1
v 1 0.7 1.1
v -1 0.7 1.1
v -1.1 0.7 1.1
v -1.2 0.7 1.1
v 1.1 0.7 1.2
v -1.1 0.7 1.2
v 1 0.8 -1.1
v -1 0.8 -1.1
v 1.1 0.8 -1
v 1 0.8 -1
v -1 0.8 -1
v -1.1 0.8 -1
v 0.4 0.8 -0.4
v -0.4 0.8 -0.4
v 0.4 0.8 0.4
v -0.4 0.8 0.4
v 1.1 0.8 1
v 1 0.8 1
v -1 0.8 1
v -1.1 0.8 1
v 1 0.8 1.1
v -1 0.8 1.1
v 0.4 9.1 -0.4
v -0.4 9.1 -0.4
v 0.3 9.1 -0.3
v -0.3 9.1 -0.3
v 0.3 9.1 0.3
v -0.3 9.1 0.3
v 0.4 9.1 0.4
v -0.4 9.1 0.4
v 0.3 11.9 -0.3
v -0.3 11.9 -0.3
v 0.2 11.9 -0.2
v -0.2 11.9 -0.2
v 0.2 11.9 0.2
v -0.2 11.9 0.2
v 0.3 11.9 0.3
v -0.3 11.9 0.3
v 0.2 16.8 -0.2
v -0.2 16.8 -0.2
v 0.2 16.8 -1.19209e-007
v -0.2 16.8 -1.19209e-007
v 0.2 17.2 -1.19209e-007
v -0.2 17.2 -1.19209e-007
v 0.2 17.2 0.4
v -0.2 17.2 0.4
v 0.2 17.6 0.4
v -0.2 17.6 0.4
v 0.2 17.6 0.8
v -0.2 17.6 0.8
v 0.2 18 0.8
v -0.2 18 0.8
v 0.2 18 1.2
v -0.2 18 1.2
v 0.2 18.4 1.2
v -0.2 18.4 1.2
v 0.4 18.4 3.6
v 0.2 18.4 3.6
v -0.2 18.4 3.6
v -0.4 18.4 3.6
v 0.2 18.4 3.8
v -0.2 18.4 3.8
v 0.2 18.4 4.8
v -0.2 18.4 4.8
v 0.4 18.4 5
v -0.4 18.4 5
v 0.2 18.6 3.8
v -0.2 18.6 3.8
v 0.2 18.6 4.8
v -0.2 18.6 4.8

# faces
f 3/4/1 2/4/1 1/4/1
f 4/4/1 2/4/1 3/4/1
f 9/4/1 6/4/1 5/4/1
f 10/4/1 6/4/1 9/4/1
f 13/4/1 8/4/1 7/4/1
f 14/4/1 8/4/1 13/4/1
f 15/4/1 12/4/1 11/4/1
f 16/4/1 12/4/1 15/4/1
f 21/4/1 18/4/1 17/4/1
f 22/4/1 18/4/1 21/4/1
f 23/4/1 20/4/1 19/4/1
f 24/4/1 20/4/1 23/4/1
f 27/2/1 26/2/1 25/2/1
f 28/2/1 26/2/1 27/2/1
f 31/2/1 30/2/1 29/2/1
f 32/2/1 30/2/1 31/2/1
f 35/2/1 34/2/1 33/2/1
f 36/2/1 34/2/1 35/2/1
f 39/3/1 38/3/1 37/3/1
f 40/3/1 38/3/1 39/3/1
f 41/3/1 38/3/1 40/3/1
f 43/3/1 42/3/1 41/3/1
f 43/3/1 41/3/1 40/3/1
f 44/3/1 42/3/1 43/3/1
f 45/3/1 42/3/1 44/3/1
f 47/3/1 46/3/1 45/3/1
f 47/3/1 45/3/1 44/3/1
f 48/3/1 46/3/1 47/3/1
f 49/3/1 46/3/1 48/3/1
f 51/3/1 50/3/1 49/3/1
f 51/3/1 49/3/1 48/3/1
f 52/3/1 50/3/1 51/3/1
f 53/3/1 50/3/1 52/3/1
f 55/3/1 54/3/1 53/3/1
f 55/3/1 53/3/1 52/3/1
f 57/3/1 55/3/1 52/3/1
f 57/3/1 56/3/1 55/3/1
f 58/3/1 56/3/1 57/3/1
f 61/2/1 60/2/1 59/2/1
f 62/2/1 60/2/1 61/2/1
f 63/3/2 64/3/2 65/3/2
f 65/3/2 64/3/2 66/3/2
f 66/3/2 64/3/2 67/3/2
f 67/3/2 68/3/2 69/3/2
f 66/3/2 67/3/2 69/3/2
f 69/3/2 68/3/2 70/3/2
f 70/3/2 68/3/2 71/3/2
f 71/3/2 72/3/2 73/3/2
f 70/3/2 71/3/2 73/3/2
f 73/3/2 72/3/2 74/3/2
f 74/3/2 72/3/2 75/3/2
f 75/3/2 76/3/2 77/3/2
f 74/3/2 75/3/2 77/3/2
f 77/3/2 76/3/2 78/3/2
f 78/3/2 76/3/2 79/3/2
f 79/3/2 80/3/2 81/3/2
f 78/3/2 79/3/2 81/3/2
f 78/3/2 81/3/2 83/3/2
f 81/3/2 82/3/2 83/3/2
f 83/3/2 82/3/2 84/3/2
f 85/2/2 86/2/2 87/2/2
f 87/2/2 86/2/2 88/2/2
f 89/2/2 90/2/2 91/2/2
f 91/2/2 90/2/2 92/2/2
f 93/2/2 94/2/2 95/2/2
f 95/2/2 94/2/2 96/2/2
f 97/2/2 98/2/2 99/2/2
f 99/2/2 98/2/2 100/2/2
f 101/4/2 102/4/2 105/4/2
f 105/4/2 102/4/2 106/4/2
f 103/4/2 104/4/2 107/4/2
f 107/4/2 104/4/2 108/4/2
f 109/4/2 110/4/2 113/4/2
f 113/4/2 110/4/2 114/4/2
f 111/4/2 112/4/2 117/4/2
f 117/4/2 112/4/2 118/4/2
f 115/4/2 116/4/2 119/4/2
f 119/4/2 116/4/2 120/4/2
f 121/4/2 122/4/2 123/4/2
f 123/4/2 122/4/2 124/4/2
f 127/4/3 126/4/3 125/4/3
f 128/4/3 126/4/3 127/4/3
f 131/4/3 130/4/3 129/4/3
f 132/4/3 130/4/3 131/4/3
f 135/4/3 134/4/3 133/4/3
f 136/4/3 134/4/3 135/4/3
f 139/4/3 138/4/3 137/4/3
f 140/4/3 138/4/3 139/4/3
f 143/4/3 142/4/3 141/4/3
f 144/4/3 142/4/3 143/4/3
f 147/4/3 146/4/3 145/4/3
f 148/4/3 146/4/3 147/4/3
f 151/2/3 150/2/3 149/2/3
f 152/2/3 150/2/3 151/2/3
f 155/2/3 154/2/3 153/2/3
f 156/2/3 154/2/3 155/2/3
f 159/3/3 158/3/3 157/3/3
f 160/3/3 158/3/3 159/3/3
f 163/3/3 162/3/3 161/3/3
f 164/3/3 162/3/3 163/3/3
f 167/3/3 166/3/3 165/3/3
f 168/3/3 166/3/3 167/3/3
f 171/3/3 170/3/3 169/3/3
f 172/3/3 170/3/3 171/3/3
f 175/3/3 174/3/3 173/3/3
f 176/3/3 174/3/3 175/3/3
f 179/2/3 178/2/3 177/2/3
f 180/2/3 178/2/3 179/2/3
f 181/2/3 179/2/3 177/2/3
f 183/2/3 181/2/3 177/2/3
f 183/2/3 182/2/3 181/2/3
f 184/2/3 182/2/3 183/2/3
f 187/2/3 186/2/3 185/2/3
f 188/2/3 186/2/3 187/2/3
f 189/3/4 190/3/4 191/3/4
f 191/3/4 190/3/4 192/3/4
f 193/2/4 194/2/4 195/2/4
f 195/2/4 194/2/4 196/2/4
f 197/2/4 198/2/4 199/2/4
f 199/2/4 198/2/4 200/2/4
f 201/3/4 202/3/4 203/3/4
f 203/3/4 202/3/4 204/3/4
f 205/4/4 206/4/4 207/4/4
f 207/4/4 206/4/4 208/4/4
f 209/4/4 210/4/4 211/4/4
f 211/4/4 210/4/4 212/4/4
f 213/4/4 214/4/4 215/4/4
f 215/4/4 214/4/4 216/4/4
f 217/4/4 218/4/4 219/4/4
f 219/4/4 218/4/4 220/4/4
f 221/4/4 222/4/4 223/4/4
f 223/4/4 222/4/4 224/4/4
f 227/3/4 228/3/4 229/3/4
f 229/3/4 228/3/4 230/3/4
f 225/4/4 226/4/4 231/4/4
f 231/4/4 226/4/4 232/4/4
f 233/3/4 234/3/4 235/3/4
f 235/3/4 234/3/4 236/3/4
f 237/3/4 238/3/4 239/3/4
f 239/3/4 238/3/4 240/3/4
f 241/2/4 242/2/4 243/2/4
f 243/2/4 242/2/4 244/2/4
f 245/2/4 246/2/4 247/2/4
f 247/2/4 246/2/4 248/2/4
f 252/4/5 250/4/5 249/4/5
f 253/4/5 250/4/5 252/4/5
f 255/4/5 252/4/5 251/4/5
f 255/4/5 254/4/5 253/4/5
f 255/4/5 253/4/5 252/4/5
f 256/4/5 254/4/5 255/4/5
f 257/4/5 254/4/5 256/4/5
f 258/4/5 254/4/5 257/4/5
f 259/4/5 257/4/5 256/4/5
f 260/4/5 257/4/5 259/4/5
f 263/3/5 262/3/5 261/3/5
f 264/3/5 262/3/5 263/3/5
f 267/3/5 266/3/5 265/3/5
f 268/3/5 266/3/5 267/3/5
f 271/3/5 270/3/5 269/3/5
f 272/3/5 270/3/5 271/3/5
f 275/3/5 274/3/5 273/3/5
f 276/3/5 274/3/5 275/3/5
f 279/2/5 278/2/5 277/2/5
f 280/2/5 278/2/5 279/2/5
f 281/2/5 279/2/5 277/2/5
f 281/1/5 280/1/5 279/1/5
f 282/2/5 278/2/5 280/2/5
f 282/1/5 280/1/5 281/1/5
f 283/2/5 281/2/5 277/2/5
f 283/2/5 282/2/5 281/2/5
f 284/2/5 278/2/5 282/2/5
f 284/2/5 282/2/5 283/2/5
f 287/3/5 286/3/5 285/3/5
f 288/3/5 286/3/5 287/3/5
f 289/4/6 290/4/6 292/4/6
f 292/4/6 290/4/6 293/4/6
f 293/4/6 290/4/6 294/4/6
f 294/4/6 290/4/6 295/4/6
f 291/4/6 292/4/6 297/4/6
f 292/4/6 293/4/6 297/4/6
f 297/4/6 293/4/6 298/4/6
f 295/4/6 296/4/6 299/4/6
f 294/4/6 295/4/6 299/4/6
f 299/4/6 296/4/6 300/4/6
f 291/4/6 297/4/6 301/4/6
f 300/4/6 296/4/6 304/4/6
f 301/4/6 302/4/6 305/4/6
f 291/4/6 301/4/6 305/4/6
f 305/4/6 302/4/6 306/4/6
f 306/4/6 302/4/6 307/4/6
f 303/4/6 304/4/6 308/4/6
f 304/4/6 296/4/6 309/4/6
f 308/4/6 304/4/6 309/4/6
f 309/4/6 296/4/6 310/4/6
f 306/4/6 307/4/6 311/4/6
f 307/4/6 308/4/6 311/4/6
f 308/4/6 309/4/6 311/4/6
f 311/4/6 309/4/6 312/4/6
f 313/4/6 314/4/6 316/4/6
f 316/4/6 314/4/6 317/4/6
f 315/4/6 316/4/6 319/4/6
f 317/4/6 318/4/6 319/4/6
f 316/4/6 317/4/6 319/4/6
f 319/4/6 318/4/6 320/4/6
f 315/4/6 319/4/6 321/4/6
f 320/4/6 318/4/6 322/4/6
f 315/4/6 321/4/6 323/4/6
f 321/4/6 322/4/6 323/4/6
f 323/4/6 322/4/6 324/4/6
f 322/4/6 318/4/6 325/4/6
f 324/4/6 322/4/6 325/4/6
f 325/4/6 318/4/6 326/4/6
f 324/4/6 325/4/6 327/4/6
f 327/4/6 325/4/6 328/4/6
f 329/2/6 330/2/6 331/2/6
f 331/2/6 330/2/6 332/2/6
f 329/2/6 331/2/6 333/2/6
f 332/2/6 330/2/6 334/2/6
f 329/2/6 333/2/6 335/2/6
f 333/2/6 334/2/6 335/2/6
f 334/2/6 330/2/6 336/2/6
f 335/2/6 334/2/6 336/2/6
f 337/2/6 338/2/6 339/2/6
f 339/2/6 338/2/6 340/2/6
f 337/2/6 339/2/6 341/2/6
f 340/2/6 338/2/6 342/2/6
f 337/2/6 341/2/6 343/2/6
f 341/2/6 342/2/6 343/2/6
f 342/2/6 338/2/6 344/2/6
f 343/2/6 342/2/6 344/2/6
f 345/3/6 346/3/6 347/3/6
f 347/3/6 346/3/6 348/3/6
f 349/3/6 350/3/6 351/3/6
f 351/3/6 350/3/6 352/3/6
f 353/3/6 354/3/6 355/3/6
f 355/3/6 354/3/6 356/3/6
f 357/3/6 358/3/6 359/3/6
f 359/3/6 358/3/6 360/3/6
f 361/3/6 362/3/6 364/3/6
f 364/3/6 362/3/6 365/3/6
f 363/2/6 364/2/6 367/2/6
f 365/2/6 366/2/6 367/2/6
f 364/2/6 365/2/6 367/2/6
f 367/2/6 366/2/6 368/2/6
f 363/2/6 367/2/6 369/2/6
f 368/2/6 366/2/6 370/2/6
f 363/2/6 369/2/6 371/2/6
f 369/2/6 370/2/6 371/2/6
f 370/2/6 366/2/6 372/2/6
f 371/2/6 370/2/6 372/2/6
f 373/2/6 374/2/6 375/2/6
f 375/2/6 374/2/6 376/2/6
