# MagicaVoxel @ Ephtracy

# group
o lod2

# material
mtllib streetLight1-1-lod2.mtl
usemtl palette

# normals
vn 1 0 0
vn -1 0 0
vn 0 0 -1
vn 0 0 1
vn 0 -1 0
vn 0 1 0

# texcoords
vt 0.958984 0.5
vt 0.970703 0.5
vt 0.974609 0.5
vt 0.986328 0.5

# verts
v 1.2 0 -1.2
v 1.2 0 1.2
v 1.2 0.8 -1.2
v 1.2 0.8 1.2
v 0.4 0.8 -0.4
v 0.4 0.8 0.4
v 0.4 11.9 -0.4
v 0.4 11.9 0.4
v 0.4 18 3.6
v 0.4 18 5
v 0.4 18.4 3.6
v 0.4 18.4 5
v 0.2 11.9 -0.2
v 0.2 11.9 0.2
v 0.2 16.8 0.2
v 0.2 16.8 1.2
v 0.2 17.2 -0.2
v 0.2 17.2 0.8
v 0.2 18 1.2
v 0.2 18 3.6
v 0.2 18.4 0.8
v 0.2 18.4 3.6
v -0.2 11.9 -0.2
v -0.2 11.9 0.2
v -0.2 16.8 0.2
v -0.2 16.8 1.2
v -0.2 17.2 -0.2
v -0.2 17.2 0.8
v -0.2 18 1.2
v -0.2 18 3.6
v -0.2 18.4 0.8
v -0.2 18.4 3.6
v -0.4 0.8 -0.4
v -0.4 0.8 0.4
v -0.4 11.9 -0.4
v -0.4 11.9 0.4
v -0.4 18 3.6
v -0.4 18 5
v -0.4 18.4 3.6
v -0.4 18.4 5
v -1.2 0 -1.2
v -1.2 0 1.2
v -1.2 0.8 -1.2
v -1.2 0.8 1.2
v 1.2 0 -1.2
v 1.2 0.8 -1.2
v -1.2 0 -1.2
v -1.2 0.8 -1.2
v 0.4 0.8 -0.4
v 0.4 11.9 -0.4
v -0.4 0.8 -0.4
v -0.4 11.9 -0.4
v 0.2 11.9 -0.2
v 0.2 17.2 -0.2
v -0.2 11.9 -0.2
v -0.2 17.2 -0.2
v 0.2 17.2 0.8
v 0.2 18.4 0.8
v -0.2 17.2 0.8
v -0.2 18.4 0.8
v 0.4 18 3.6
v 0.4 18.4 3.6
v 0.2 18 3.6
v 0.2 18.4 3.6
v -0.2 18 3.6
v -0.2 18.4 3.6
v -0.4 18 3.6
v -0.4 18.4 3.6
v 0.2 11.9 0.2
v 0.2 16.8 0.2
v -0.2 11.9 0.2
v -0.2 16.8 0.2
v 0.4 0.8 0.4
v 0.4 11.9 0.4
v -0.4 0.8 0.4
v -0.4 11.9 0.4
v 1.2 0 1.2
v 1.2 0.8 1.2
v 0.2 16.8 1.2
v 0.2 18 1.2
v -0.2 16.8 1.2
v -0.2 18 1.2
v -1.2 0 1.2
v -1.2 0.8 1.2
v 0.4 18 5
v 0.4 18.4 5
v -0.4 18 5
v -0.4 18.4 5
v 1.2 0 -1.2
v -1.2 0 -1.2
v 1.2 0 1.2
v -1.2 0 1.2
v 0.2 16.8 0.2
v -0.2 16.8 0.2
v 0.2 16.8 1.2
v -0.2 16.8 1.2
v 0.2 18 1.2
v -0.2 18 1.2
v 0.4 18 3.6
v 0.2 18 3.6
v -0.2 18 3.6
v -0.4 18 3.6
v 0.4 18 5
v -0.4 18 5
v 1.2 0.8 -1.2
v -1.2 0.8 -1.2
v 0.4 0.8 -0.4
v -0.4 0.8 -0.4
v 0.4 0.8 0.4
v -0.4 0.8 0.4
v 1.2 0.8 1.2
v -1.2 0.8 1.2
v 0.4 11.9 -0.4
v -0.4 11.9 -0.4
v 0.2 11.9 -0.2
v -0.2 11.9 -0.2
v 0.2 11.9 0.2
v -0.2 11.9 0.2
v 0.4 11.9 0.4
v -0.4 11.9 0.4
v 0.2 17.2 -0.2
v -0.2 17.2 -0.2
v 0.2 17.2 0.8
v -0.2 17.2 0.8
v 0.2 18.4 0.8
v -0.2 18.4 0.8
v 0.4 18.4 3.6
v 0.2 18.4 3.6
v -0.2 18.4 3.6
v -0.4 18.4 3.6
v 0.4 18.4 5
v -0.4 18.4 5

# faces
f 3/4/1 2/4/1 1/4/1
f 4/4/1 2/4/1 3/4/1
f 7/2/1 6/2/1 5/2/1
f 8/2/1 6/2/1 7/2/1
f 11/2/1 10/2/1 9/2/1
f 12/2/1 10/2/1 11/2/1
f 15/3/1 14/3/1 13/3/1
f 17/3/1 15/3/1 13/3/1
f 17/3/1 16/3/1 15/3/1
f 18/3/1 16/3/1 17/3/1
f 19/3/1 16/3/1 18/3/1
f 21/3/1 19/3/1 18/3/1
f 21/3/1 20/3/1 19/3/1
f 22/3/1 20/3/1 21/3/1
f 23/3/2 24/3/2 25/3/2
f 23/3/2 25/3/2 27/3/2
f 25/3/2 26/3/2 27/3/2
f 27/3/2 26/3/2 28/3/2
f 28/3/2 26/3/2 29/3/2
f 28/3/2 29/3/2 31/3/2
f 29/3/2 30/3/2 31/3/2
f 31/3/2 30/3/2 32/3/2
f 33/2/2 34/2/2 35/2/2
f 35/2/2 34/2/2 36/2/2
f 37/2/2 38/2/2 39/2/2
f 39/2/2 38/2/2 40/2/2
f 41/4/2 42/4/2 43/4/2
f 43/4/2 42/4/2 44/4/2
f 47/4/3 46/4/3 45/4/3
f 48/4/3 46/4/3 47/4/3
f 51/2/3 50/2/3 49/2/3
f 52/2/3 50/2/3 51/2/3
f 55/3/3 54/3/3 53/3/3
f 56/3/3 54/3/3 55/3/3
f 59/3/3 58/3/3 57/3/3
f 60/3/3 58/3/3 59/3/3
f 63/2/3 62/2/3 61/2/3
f 64/2/3 62/2/3 63/2/3
f 67/2/3 66/2/3 65/2/3
f 68/2/3 66/2/3 67/2/3
f 69/3/4 70/3/4 71/3/4
f 71/3/4 70/3/4 72/3/4
f 73/2/4 74/2/4 75/2/4
f 75/2/4 74/2/4 76/2/4
f 79/3/4 80/3/4 81/3/4
f 81/3/4 80/3/4 82/3/4
f 77/4/4 78/4/4 83/4/4
f 83/4/4 78/4/4 84/4/4
f 85/2/4 86/2/4 87/2/4
f 87/2/4 86/2/4 88/2/4
f 91/4/5 90/4/5 89/4/5
f 92/4/5 90/4/5 91/4/5
f 95/3/5 94/3/5 93/3/5
f 96/3/5 94/3/5 95/3/5
f 100/3/5 98/3/5 97/3/5
f 101/3/5 98/3/5 100/3/5
f 103/2/5 100/2/5 99/2/5
f 103/2/5 102/2/5 101/2/5
f 103/2/5 101/2/5 100/2/5
f 104/2/5 102/2/5 103/2/5
f 105/4/6 106/4/6 107/4/6
f 107/4/6 106/4/6 108/4/6
f 105/4/6 107/4/6 109/4/6
f 108/4/6 106/4/6 110/4/6
f 105/4/6 109/4/6 111/4/6
f 109/4/6 110/4/6 111/4/6
f 110/4/6 106/4/6 112/4/6
f 111/4/6 110/4/6 112/4/6
f 113/2/6 114/2/6 115/2/6
f 115/2/6 114/2/6 116/2/6
f 113/2/6 115/2/6 117/2/6
f 116/2/6 114/2/6 118/2/6
f 113/2/6 117/2/6 119/2/6
f 117/2/6 118/2/6 119/2/6
f 118/2/6 114/2/6 120/2/6
f 119/2/6 118/2/6 120/2/6
f 121/3/6 122/3/6 123/3/6
f 123/3/6 122/3/6 124/3/6
f 125/3/6 126/3/6 128/3/6
f 128/3/6 126/3/6 129/3/6
f 127/2/6 128/2/6 131/2/6
f 129/2/6 130/2/6 131/2/6
f 128/2/6 129/2/6 131/2/6
f 131/2/6 130/2/6 132/2/6
