# MagicaVoxel @ Ephtracy

# group
o lod3

# material
mtllib balcony1-0-lod3.mtl
usemtl palette

# normals
vn -1 0 0
vn 1 0 0
vn 0 0 1
vn 0 0 -1
vn 0 -1 0
vn 0 1 0

# texcoords
vt 0.251953 0.5
vt 0.310547 0.5
vt 0.974609 0.5

# verts
v -8 0 0.4
v -8 0 0
v -8 16 0.4
v -8 16 0
v 1.2 11.4 0.3
v 1.2 11.4 0.2
v 1.2 11.5 0.3
v 1.2 11.5 0.2
v -6.3 11.4 0.3
v -6.3 11.4 0.2
v -6.3 11.5 0.3
v -6.3 11.5 0.2
v 8 0 0.4
v 8 0 0
v 8 16 0.4
v 8 16 0
v -8 0 0.4
v -8 16 0.4
v -5.3 1.5 0.4
v -5.3 12.3 0.4
v -4.3 6.7 0.4
v -4.3 10.9 0.4
v -1.1 6.7 0.4
v -1.1 10.9 0.4
v -0.1 1.5 0.4
v -0.1 12.3 0.4
v 1.3 5.4 0.4
v 1.3 11.5 0.4
v 6 5.4 0.4
v 6 11.5 0.4
v 8 0 0.4
v 8 16 0.4
v -6.3 11.4 0.2
v -6.3 11.5 0.2
v 1.2 11.4 0.2
v 1.2 11.5 0.2
v -6.3 11.4 0.3
v -6.3 11.5 0.3
v -5.3 11.4 0.3
v -5.3 11.5 0.3
v -0.1 11.4 0.3
v -0.1 11.5 0.3
v 1.2 11.4 0.3
v 1.2 11.5 0.3
v -8 0 0
v -8 16 0
v 8 0 0
v 8 16 0
v -8 0 0.4
v 8 0 0.4
v -8 0 0
v 8 0 0
v -6.3 11.5 0.3
v -5.3 11.5 0.3
v -0.1 11.5 0.3
v 1.2 11.5 0.3
v -6.3 11.5 0.2
v 1.2 11.5 0.2
v -6.3 11.4 0.3
v -5.3 11.4 0.3
v -0.1 11.4 0.3
v 1.2 11.4 0.3
v -6.3 11.4 0.2
v 1.2 11.4 0.2
v -8 16 0.4
v 8 16 0.4
v -8 16 0
v 8 16 0

# faces
f 3/3/1 2/3/1 1/3/1
f 4/3/1 2/3/1 3/3/1
f 7/3/1 6/3/1 5/3/1
f 8/3/1 6/3/1 7/3/1
f 9/3/2 10/3/2 11/3/2
f 11/3/2 10/3/2 12/3/2
f 13/3/2 14/3/2 15/3/2
f 15/3/2 14/3/2 16/3/2
f 19/3/3 18/3/3 17/3/3
f 20/3/3 18/3/3 19/3/3
f 21/1/3 20/1/3 19/1/3
f 22/1/3 20/1/3 21/1/3
f 23/1/3 21/1/3 19/1/3
f 23/2/3 22/2/3 21/2/3
f 24/1/3 20/1/3 22/1/3
f 24/2/3 22/2/3 23/2/3
f 25/3/3 19/3/3 17/3/3
f 25/1/3 23/1/3 19/1/3
f 25/1/3 24/1/3 23/1/3
f 26/1/3 20/1/3 24/1/3
f 26/1/3 24/1/3 25/1/3
f 26/3/3 18/3/3 20/3/3
f 27/3/3 26/3/3 25/3/3
f 28/3/3 26/3/3 27/3/3
f 29/3/3 27/3/3 25/3/3
f 29/2/3 28/2/3 27/2/3
f 30/3/3 26/3/3 28/3/3
f 30/2/3 28/2/3 29/2/3
f 31/3/3 25/3/3 17/3/3
f 31/3/3 29/3/3 25/3/3
f 31/3/3 30/3/3 29/3/3
f 32/3/3 26/3/3 30/3/3
f 32/3/3 30/3/3 31/3/3
f 32/3/3 18/3/3 26/3/3
f 35/3/3 34/3/3 33/3/3
f 36/3/3 34/3/3 35/3/3
f 37/3/4 38/3/4 39/3/4
f 39/3/4 38/3/4 40/3/4
f 39/1/4 40/1/4 41/1/4
f 41/1/4 40/1/4 42/1/4
f 41/3/4 42/3/4 43/3/4
f 43/3/4 42/3/4 44/3/4
f 45/3/4 46/3/4 47/3/4
f 47/3/4 46/3/4 48/3/4
f 51/3/5 50/3/5 49/3/5
f 52/3/5 50/3/5 51/3/5
f 57/3/5 54/3/5 53/3/5
f 57/3/5 56/3/5 55/3/5
f 57/3/5 55/3/5 54/3/5
f 58/3/5 56/3/5 57/3/5
f 59/3/6 60/3/6 63/3/6
f 61/3/6 62/3/6 63/3/6
f 60/3/6 61/3/6 63/3/6
f 63/3/6 62/3/6 64/3/6
f 65/3/6 66/3/6 67/3/6
f 67/3/6 66/3/6 68/3/6
