# MagicaVoxel @ Ephtracy

# group
o lod1

# material
mtllib emptyWall5-2-lod1.mtl
usemtl palette

# normals
vn -1 0 0
vn 1 0 0
vn 0 0 1
vn 0 0 -1
vn 0 -1 0
vn 0 1 0

# texcoords
vt 0.00585938 0.5
vt 0.00976563 0.5

# verts
v -8 0 0.4
v -8 0 1.19209e-007
v -8 5.6 0.8
v -8 5.6 0.4
v -8 6 0.8
v -8 6 0.4
v -8 10.4 0.8
v -8 10.4 0.4
v -8 10.8 0.8
v -8 10.8 0.4
v -8 16 0.4
v -8 16 1.19209e-007
v 0 0 1.2
v 0 0 0.4
v 0 5.6 0.8
v 0 5.6 0.4
v 0 6 0.8
v 0 6 0.4
v 0 10.4 0.8
v 0 10.4 0.4
v 0 10.8 0.8
v 0 10.8 0.4
v 0 16 1.2
v 0 16 0.4
v 0.8 0 1.2
v 0.8 0 0.4
v 0.8 5.6 0.8
v 0.8 5.6 0.4
v 0.8 6 0.8
v 0.8 6 0.4
v 0.8 10.4 0.8
v 0.8 10.4 0.4
v 0.8 10.8 0.8
v 0.8 10.8 0.4
v 0.8 16 1.2
v 0.8 16 0.4
v 8 0 0.4
v 8 0 1.19209e-007
v 8 5.6 0.8
v 8 5.6 0.4
v 8 6 0.8
v 8 6 0.4
v 8 10.4 0.8
v 8 10.4 0.4
v 8 10.8 0.8
v 8 10.8 0.4
v 8 16 0.4
v 8 16 1.19209e-007
v 0 0 1.2
v 0 16 1.2
v 0.8 0 1.2
v 0.8 16 1.2
v -8 5.6 0.8
v -8 6 0.8
v -8 10.4 0.8
v -8 10.8 0.8
v 0 5.6 0.8
v 0 6 0.8
v 0 10.4 0.8
v 0 10.8 0.8
v 0.8 5.6 0.8
v 0.8 6 0.8
v 0.8 10.4 0.8
v 0.8 10.8 0.8
v 8 5.6 0.8
v 8 6 0.8
v 8 10.4 0.8
v 8 10.8 0.8
v -8 0 0.4
v -8 5.6 0.4
v -8 6 0.4
v -8 10.4 0.4
v -8 10.8 0.4
v -8 16 0.4
v 0 0 0.4
v 0 5.6 0.4
v 0 6 0.4
v 0 10.4 0.4
v 0 10.8 0.4
v 0 16 0.4
v 0.8 0 0.4
v 0.8 5.6 0.4
v 0.8 6 0.4
v 0.8 10.4 0.4
v 0.8 10.8 0.4
v 0.8 16 0.4
v 8 0 0.4
v 8 5.6 0.4
v 8 6 0.4
v 8 10.4 0.4
v 8 10.8 0.4
v 8 16 0.4
v -8 0 1.19209e-007
v -8 16 1.19209e-007
v 8 0 1.19209e-007
v 8 16 1.19209e-007
v 0 0 1.2
v 0.8 0 1.2
v -8 0 0.4
v 0 0 0.4
v 0.8 0 0.4
v 8 0 0.4
v -8 0 1.19209e-007
v 8 0 1.19209e-007
v -8 5.6 0.8
v 0 5.6 0.8
v 0.8 5.6 0.8
v 8 5.6 0.8
v -8 5.6 0.4
v 0 5.6 0.4
v 0.8 5.6 0.4
v 8 5.6 0.4
v -8 10.4 0.8
v 0 10.4 0.8
v 0.8 10.4 0.8
v 8 10.4 0.8
v -8 10.4 0.4
v 0 10.4 0.4
v 0.8 10.4 0.4
v 8 10.4 0.4
v -8 6 0.8
v 0 6 0.8
v 0.8 6 0.8
v 8 6 0.8
v -8 6 0.4
v 0 6 0.4
v 0.8 6 0.4
v 8 6 0.4
v -8 10.8 0.8
v 0 10.8 0.8
v 0.8 10.8 0.8
v 8 10.8 0.8
v -8 10.8 0.4
v 0 10.8 0.4
v 0.8 10.8 0.4
v 8 10.8 0.4
v 0 16 1.2
v 0.8 16 1.2
v -8 16 0.4
v 0 16 0.4
v 0.8 16 0.4
v 8 16 0.4
v -8 16 1.19209e-007
v 8 16 1.19209e-007

# faces
f 4/2/1 2/2/1 1/2/1
f 5/1/1 4/1/1 3/1/1
f 6/2/1 2/2/1 4/2/1
f 6/1/1 4/1/1 5/1/1
f 8/2/1 2/2/1 6/2/1
f 9/1/1 8/1/1 7/1/1
f 10/2/1 2/2/1 8/2/1
f 10/1/1 8/1/1 9/1/1
f 11/2/1 2/2/1 10/2/1
f 12/2/1 2/2/1 11/2/1
f 15/1/1 14/1/1 13/1/1
f 16/1/1 14/1/1 15/1/1
f 17/1/1 15/1/1 13/1/1
f 19/1/1 17/1/1 13/1/1
f 19/1/1 18/1/1 17/1/1
f 20/1/1 18/1/1 19/1/1
f 21/1/1 19/1/1 13/1/1
f 23/1/1 21/1/1 13/1/1
f 23/1/1 22/1/1 21/1/1
f 24/1/1 22/1/1 23/1/1
f 25/1/2 26/1/2 27/1/2
f 27/1/2 26/1/2 28/1/2
f 25/1/2 27/1/2 29/1/2
f 25/1/2 29/1/2 31/1/2
f 29/1/2 30/1/2 31/1/2
f 31/1/2 30/1/2 32/1/2
f 25/1/2 31/1/2 33/1/2
f 25/1/2 33/1/2 35/1/2
f 33/1/2 34/1/2 35/1/2
f 35/1/2 34/1/2 36/1/2
f 37/2/2 38/2/2 40/2/2
f 39/1/2 40/1/2 41/1/2
f 40/2/2 38/2/2 42/2/2
f 41/1/2 40/1/2 42/1/2
f 42/2/2 38/2/2 44/2/2
f 43/1/2 44/1/2 45/1/2
f 44/2/2 38/2/2 46/2/2
f 45/1/2 44/1/2 46/1/2
f 46/2/2 38/2/2 47/2/2
f 47/2/2 38/2/2 48/2/2
f 51/1/3 50/1/3 49/1/3
f 52/1/3 50/1/3 51/1/3
f 57/1/3 54/1/3 53/1/3
f 58/1/3 54/1/3 57/1/3
f 59/1/3 56/1/3 55/1/3
f 60/1/3 56/1/3 59/1/3
f 65/1/3 62/1/3 61/1/3
f 66/1/3 62/1/3 65/1/3
f 67/1/3 64/1/3 63/1/3
f 68/1/3 64/1/3 67/1/3
f 75/2/3 70/2/3 69/2/3
f 76/2/3 70/2/3 75/2/3
f 77/2/3 72/2/3 71/2/3
f 78/2/3 72/2/3 77/2/3
f 79/2/3 74/2/3 73/2/3
f 80/2/3 74/2/3 79/2/3
f 87/2/3 82/2/3 81/2/3
f 88/2/3 82/2/3 87/2/3
f 89/2/3 84/2/3 83/2/3
f 90/2/3 84/2/3 89/2/3
f 91/2/3 86/2/3 85/2/3
f 92/2/3 86/2/3 91/2/3
f 93/2/4 94/2/4 95/2/4
f 95/2/4 94/2/4 96/2/4
f 100/1/5 98/1/5 97/1/5
f 101/1/5 98/1/5 100/1/5
f 103/2/5 100/2/5 99/2/5
f 103/2/5 102/2/5 101/2/5
f 103/2/5 101/2/5 100/2/5
f 104/2/5 102/2/5 103/2/5
f 109/1/5 106/1/5 105/1/5
f 110/1/5 106/1/5 109/1/5
f 111/1/5 108/1/5 107/1/5
f 112/1/5 108/1/5 111/1/5
f 117/1/5 114/1/5 113/1/5
f 118/1/5 114/1/5 117/1/5
f 119/1/5 116/1/5 115/1/5
f 120/1/5 116/1/5 119/1/5
f 121/1/6 122/1/6 125/1/6
f 125/1/6 122/1/6 126/1/6
f 123/1/6 124/1/6 127/1/6
f 127/1/6 124/1/6 128/1/6
f 129/1/6 130/1/6 133/1/6
f 133/1/6 130/1/6 134/1/6
f 131/1/6 132/1/6 135/1/6
f 135/1/6 132/1/6 136/1/6
f 137/1/6 138/1/6 140/1/6
f 140/1/6 138/1/6 141/1/6
f 139/2/6 140/2/6 143/2/6
f 141/2/6 142/2/6 143/2/6
f 140/2/6 141/2/6 143/2/6
f 143/2/6 142/2/6 144/2/6
