# MagicaVoxel @ Ephtracy

# group
o lod2

# material
mtllib wallWithWindow5-1-lod2.mtl
usemtl palette

# normals
vn -1 0 0
vn 1 0 0
vn 0 0 1
vn 0 0 -1
vn 0 -1 0
vn 0 1 0

# texcoords
vt 0.00195313 0.5
vt 0.00585938 0.5
vt 0.00976563 0.5
vt 0.306641 0.5

# verts
v -8 0 1.2
v -8 0 -0.0999998
v -8 16 1.2
v -8 16 -0.0999998
v -2.8 5.2 0.8
v -2.8 5.2 0.4
v -2.8 5.6 0.8
v -2.8 5.6 0.4
v -2.8 11.6 0.8
v -2.8 11.6 0.4
v -2.8 12 0.8
v -2.8 12 0.4
v -2.4 6 0.8
v -2.4 6 0.4
v -2.4 11.2 0.8
v -2.4 11.2 0.4
v -2 4.8 0.8
v -2 4.8 0.4
v -2 5.2 0.8
v -2 5.2 0.4
v -2 12 0.8
v -2 12 0.4
v -2 12.4 0.8
v -2 12.4 0.4
v -1.2 4.4 0.8
v -1.2 4.4 0.4
v -1.2 4.8 0.8
v -1.2 4.8 0.4
v -1.2 12.4 0.8
v -1.2 12.4 0.4
v -1.2 12.8 0.8
v -1.2 12.8 0.4
v -0.4 12.8 0.8
v -0.4 12.8 0.4
v -0.4 13.2 0.8
v -0.4 13.2 0.4
v 0 13.2 0.8
v 0 13.2 0.4
v 0 13.6 0.8
v 0 13.6 0.4
v 2.4 0 0.8
v 2.4 0 0.4
v 2.4 0.1 0.4
v 2.4 0.4 0.8
v 2.4 0.4 0.4
v 2.4 15.6 0.8
v 2.4 15.6 0.4
v 2.4 15.9 0.4
v 2.4 16 0.8
v 2.4 16 0.4
v 2.8 0 1.2
v 2.8 0 0.8
v 2.8 0.4 1.2
v 2.8 0.4 0.8
v 2.8 0.4 0.4
v 2.8 0.8 0.8
v 2.8 0.8 0.4
v 2.8 15.2 0.8
v 2.8 15.2 0.4
v 2.8 15.6 1.2
v 2.8 15.6 0.8
v 2.8 15.6 0.4
v 2.8 16 1.2
v 2.8 16 0.8
v 3.2 0.4 1.2
v 3.2 0.4 0.8
v 3.2 0.8 1.2
v 3.2 0.8 0.8
v 3.2 0.8 0.4
v 3.2 1.2 0.8
v 3.2 1.2 0.4
v 3.2 14.8 0.8
v 3.2 14.8 0.4
v 3.2 15.2 1.2
v 3.2 15.2 0.8
v 3.2 15.2 0.4
v 3.2 15.6 1.2
v 3.2 15.6 0.8
v 3.6 0.8 1.2
v 3.6 0.8 0.8
v 3.6 1.2 1.2
v 3.6 1.2 0.8
v 3.6 1.2 0.4
v 3.6 1.6 0.8
v 3.6 1.6 0.4
v 3.6 14.4 0.8
v 3.6 14.4 0.4
v 3.6 14.8 1.2
v 3.6 14.8 0.8
v 3.6 14.8 0.4
v 3.6 15.2 1.2
v 3.6 15.2 0.8
v 4 1.2 1.2
v 4 1.2 0.8
v 4 1.6 1.2
v 4 1.6 0.8
v 4 1.6 0.4
v 4 5.6 0.8
v 4 5.6 0.4
v 4 6 0.8
v 4 6 0.4
v 4 11.2 0.8
v 4 11.2 0.4
v 4 11.6 0.8
v 4 11.6 0.4
v 4 14.4 1.2
v 4 14.4 0.8
v 4 14.4 0.4
v 4 14.8 1.2
v 4 14.8 0.8
v 4.4 1.6 1.2
v 4.4 1.6 0.8
v 4.4 14.4 1.2
v 4.4 14.4 0.8
v -4 1.6 1.2
v -4 1.6 0.8
v -4 14.4 1.2
v -4 14.4 0.8
v -3.6 1.2 1.2
v -3.6 1.2 0.8
v -3.6 1.6 1.2
v -3.6 1.6 0.8
v -3.6 1.6 0.4
v -3.6 5.6 0.8
v -3.6 5.6 0.4
v -3.6 6 0.8
v -3.6 6 0.4
v -3.6 11.2 0.8
v -3.6 11.2 0.4
v -3.6 11.6 0.8
v -3.6 11.6 0.4
v -3.6 14.4 1.2
v -3.6 14.4 0.8
v -3.6 14.4 0.4
v -3.6 14.8 1.2
v -3.6 14.8 0.8
v -3.2 0.8 1.2
v -3.2 0.8 0.8
v -3.2 1.2 1.2
v -3.2 1.2 0.8
v -3.2 1.2 0.4
v -3.2 1.6 0.8
v -3.2 1.6 0.4
v -3.2 14.4 0.8
v -3.2 14.4 0.4
v -3.2 14.8 1.2
v -3.2 14.8 0.8
v -3.2 14.8 0.4
v -3.2 15.2 1.2
v -3.2 15.2 0.8
v -2.8 0.4 1.2
v -2.8 0.4 0.8
v -2.8 0.8 1.2
v -2.8 0.8 0.8
v -2.8 0.8 0.4
v -2.8 1.2 0.8
v -2.8 1.2 0.4
v -2.8 14.8 0.8
v -2.8 14.8 0.4
v -2.8 15.2 1.2
v -2.8 15.2 0.8
v -2.8 15.2 0.4
v -2.8 15.6 1.2
v -2.8 15.6 0.8
v -2.4 0 1.2
v -2.4 0 0.8
v -2.4 0.4 1.2
v -2.4 0.4 0.8
v -2.4 0.4 0.4
v -2.4 0.8 0.8
v -2.4 0.8 0.4
v -2.4 15.2 0.8
v -2.4 15.2 0.4
v -2.4 15.6 1.2
v -2.4 15.6 0.8
v -2.4 15.6 0.4
v -2.4 16 1.2
v -2.4 16 0.8
v -2 0 0.8
v -2 0 0.4
v -2 0.1 0.4
v -2 0.4 0.8
v -2 0.4 0.4
v -2 15.6 0.8
v -2 15.6 0.4
v -2 15.9 0.4
v -2 16 0.8
v -2 16 0.4
v 0.4 13.2 0.8
v 0.4 13.2 0.4
v 0.4 13.6 0.8
v 0.4 13.6 0.4
v 0.8 12.8 0.8
v 0.8 12.8 0.4
v 0.8 13.2 0.8
v 0.8 13.2 0.4
v 1.6 4.4 0.8
v 1.6 4.4 0.4
v 1.6 4.8 0.8
v 1.6 4.8 0.4
v 1.6 12.4 0.8
v 1.6 12.4 0.4
v 1.6 12.8 0.8
v 1.6 12.8 0.4
v 2.4 4.8 0.8
v 2.4 4.8 0.4
v 2.4 5.2 0.8
v 2.4 5.2 0.4
v 2.4 12 0.8
v 2.4 12 0.4
v 2.4 12.4 0.8
v 2.4 12.4 0.4
v 2.8 6 0.8
v 2.8 6 0.4
v 2.8 11.2 0.8
v 2.8 11.2 0.4
v 3.2 5.2 0.8
v 3.2 5.2 0.4
v 3.2 5.6 0.8
v 3.2 5.6 0.4
v 3.2 11.6 0.8
v 3.2 11.6 0.4
v 3.2 12 0.8
v 3.2 12 0.4
v 8 0 1.2
v 8 0 -0.0999998
v 8 16 1.2
v 8 16 -0.0999998
v -8 0 1.2
v -8 16 1.2
v -4 1.6 1.2
v -4 14.4 1.2
v -3.6 1.2 1.2
v -3.6 1.6 1.2
v -3.6 14.4 1.2
v -3.6 14.8 1.2
v -3.2 0.8 1.2
v -3.2 1.2 1.2
v -3.2 14.8 1.2
v -3.2 15.2 1.2
v -2.8 0.4 1.2
v -2.8 0.8 1.2
v -2.8 15.2 1.2
v -2.8 15.6 1.2
v -2.4 0 1.2
v -2.4 0.4 1.2
v -2.4 15.6 1.2
v -2.4 16 1.2
v 2.8 0 1.2
v 2.8 0.4 1.2
v 2.8 15.6 1.2
v 2.8 16 1.2
v 3.2 0.4 1.2
v 3.2 0.8 1.2
v 3.2 15.2 1.2
v 3.2 15.6 1.2
v 3.6 0.8 1.2
v 3.6 1.2 1.2
v 3.6 14.8 1.2
v 3.6 15.2 1.2
v 4 1.2 1.2
v 4 1.6 1.2
v 4 14.4 1.2
v 4 14.8 1.2
v 4.4 1.6 1.2
v 4.4 14.4 1.2
v 8 0 1.2
v 8 16 1.2
v -4 1.6 0.8
v -4 14.4 0.8
v -3.6 1.2 0.8
v -3.6 1.6 0.8
v -3.6 5.6 0.8
v -3.6 6 0.8
v -3.6 11.2 0.8
v -3.6 11.6 0.8
v -3.6 14.4 0.8
v -3.6 14.8 0.8
v -3.2 0.8 0.8
v -3.2 1.2 0.8
v -3.2 1.6 0.8
v -3.2 14.4 0.8
v -3.2 14.8 0.8
v -3.2 15.2 0.8
v -2.8 0.4 0.8
v -2.8 0.8 0.8
v -2.8 1.2 0.8
v -2.8 5.2 0.8
v -2.8 5.6 0.8
v -2.8 11.6 0.8
v -2.8 12 0.8
v -2.8 14.8 0.8
v -2.8 15.2 0.8
v -2.8 15.6 0.8
v -2.4 0 0.8
v -2.4 0.4 0.8
v -2.4 0.8 0.8
v -2.4 6 0.8
v -2.4 11.2 0.8
v -2.4 15.2 0.8
v -2.4 15.6 0.8
v -2.4 16 0.8
v -2 0 0.8
v -2 0.4 0.8
v -2 4.8 0.8
v -2 5.2 0.8
v -2 6.4 0.8
v -2 10.8 0.8
v -2 12 0.8
v -2 12.4 0.8
v -2 15.6 0.8
v -2 16 0.8
v -1.2 4.4 0.8
v -1.2 4.8 0.8
v -1.2 12.4 0.8
v -1.2 12.8 0.8
v -0.5 6.4 0.8
v -0.5 10.8 0.8
v -0.4 12.8 0.8
v -0.4 13.2 0.8
v -0.3 6.4 0.8
v -0.3 10.8 0.8
v 0 13.2 0.8
v 0 13.6 0.8
v 0.4 13.2 0.8
v 0.4 13.6 0.8
v 0.8 12.8 0.8
v 0.8 13.2 0.8
v 1.6 4.4 0.8
v 1.6 4.8 0.8
v 1.6 12.4 0.8
v 1.6 12.8 0.8
v 2.4 0 0.8
v 2.4 0.4 0.8
v 2.4 4.8 0.8
v 2.4 5.2 0.8
v 2.4 6.4 0.8
v 2.4 10.8 0.8
v 2.4 12 0.8
v 2.4 12.4 0.8
v 2.4 15.6 0.8
v 2.4 16 0.8
v 2.8 0 0.8
v 2.8 0.4 0.8
v 2.8 0.8 0.8
v 2.8 6 0.8
v 2.8 11.2 0.8
v 2.8 15.2 0.8
v 2.8 15.6 0.8
v 2.8 16 0.8
v 3.2 0.4 0.8
v 3.2 0.8 0.8
v 3.2 1.2 0.8
v 3.2 5.2 0.8
v 3.2 5.6 0.8
v 3.2 11.6 0.8
v 3.2 12 0.8
v 3.2 14.8 0.8
v 3.2 15.2 0.8
v 3.2 15.6 0.8
v 3.6 0.8 0.8
v 3.6 1.2 0.8
v 3.6 1.6 0.8
v 3.6 14.4 0.8
v 3.6 14.8 0.8
v 3.6 15.2 0.8
v 4 1.2 0.8
v 4 1.6 0.8
v 4 5.6 0.8
v 4 6 0.8
v 4 11.2 0.8
v 4 11.6 0.8
v 4 14.4 0.8
v 4 14.8 0.8
v 4.4 1.6 0.8
v 4.4 14.4 0.8
v -3.6 1.6 0.4
v -3.6 5.6 0.4
v -3.6 6 0.4
v -3.6 11.2 0.4
v -3.6 11.6 0.4
v -3.6 14.4 0.4
v -3.2 1.2 0.4
v -3.2 1.6 0.4
v -3.2 14.4 0.4
v -3.2 14.8 0.4
v -2.8 0.8 0.4
v -2.8 1.2 0.4
v -2.8 5.2 0.4
v -2.8 5.6 0.4
v -2.8 11.6 0.4
v -2.8 12 0.4
v -2.8 14.8 0.4
v -2.8 15.2 0.4
v -2.4 0.4 0.4
v -2.4 0.8 0.4
v -2.4 6 0.4
v -2.4 11.2 0.4
v -2.4 15.2 0.4
v -2.4 15.6 0.4
v -2 0 0.4
v -2 0.1 0.4
v -2 0.4 0.4
v -2 4.8 0.4
v -2 5.2 0.4
v -2 12 0.4
v -2 12.4 0.4
v -2 15.6 0.4
v -2 15.9 0.4
v -2 16 0.4
v -1.2 4.4 0.4
v -1.2 4.8 0.4
v -1.2 12.4 0.4
v -1.2 12.8 0.4
v -0.4 12.8 0.4
v -0.4 13.2 0.4
v 0 13.2 0.4
v 0 13.6 0.4
v 0.4 13.2 0.4
v 0.4 13.6 0.4
v 0.8 12.8 0.4
v 0.8 13.2 0.4
v 1.6 4.4 0.4
v 1.6 4.8 0.4
v 1.6 12.4 0.4
v 1.6 12.8 0.4
v 2.4 0 0.4
v 2.4 0.1 0.4
v 2.4 0.4 0.4
v 2.4 4.8 0.4
v 2.4 5.2 0.4
v 2.4 12 0.4
v 2.4 12.4 0.4
v 2.4 15.6 0.4
v 2.4 15.9 0.4
v 2.4 16 0.4
v 2.8 0.4 0.4
v 2.8 0.8 0.4
v 2.8 6 0.4
v 2.8 11.2 0.4
v 2.8 15.2 0.4
v 2.8 15.6 0.4
v 3.2 0.8 0.4
v 3.2 1.2 0.4
v 3.2 5.2 0.4
v 3.2 5.6 0.4
v 3.2 11.6 0.4
v 3.2 12 0.4
v 3.2 14.8 0.4
v 3.2 15.2 0.4
v 3.6 1.2 0.4
v 3.6 1.6 0.4
v 3.6 14.4 0.4
v 3.6 14.8 0.4
v 4 1.6 0.4
v 4 5.6 0.4
v 4 6 0.4
v 4 11.2 0.4
v 4 11.6 0.4
v 4 14.4 0.4
v -8 0 -0.0999998
v -8 16 -0.0999998
v 8 0 -0.0999998
v 8 16 -0.0999998
v -8 0 1.2
v -2.4 0 1.2
v 2.8 0 1.2
v 8 0 1.2
v -2.4 0 0.8
v -2 0 0.8
v 2.4 0 0.8
v 2.8 0 0.8
v -2 0 0.4
v 2.4 0 0.4
v -8 0 -0.0999998
v 8 0 -0.0999998
v -1.2 4.4 0.8
v 1.6 4.4 0.8
v -1.2 4.4 0.4
v 1.6 4.4 0.4
v -2 4.8 0.8
v -1.2 4.8 0.8
v 1.6 4.8 0.8
v 2.4 4.8 0.8
v -2 4.8 0.4
v -1.2 4.8 0.4
v 1.6 4.8 0.4
v 2.4 4.8 0.4
v -2.8 5.2 0.8
v -2 5.2 0.8
v 2.4 5.2 0.8
v 3.2 5.2 0.8
v -2.8 5.2 0.4
v -2 5.2 0.4
v 2.4 5.2 0.4
v 3.2 5.2 0.4
v -3.6 5.6 0.8
v -2.8 5.6 0.8
v 3.2 5.6 0.8
v 4 5.6 0.8
v -3.6 5.6 0.4
v -2.8 5.6 0.4
v 3.2 5.6 0.4
v 4 5.6 0.4
v -3.6 11.2 0.8
v -2.4 11.2 0.8
v 2.8 11.2 0.8
v 4 11.2 0.8
v -3.6 11.2 0.4
v -2.4 11.2 0.4
v 2.8 11.2 0.4
v 4 11.2 0.4
v -4 14.4 1.2
v -3.6 14.4 1.2
v 4 14.4 1.2
v 4.4 14.4 1.2
v -4 14.4 0.8
v -3.6 14.4 0.8
v -3.2 14.4 0.8
v 3.6 14.4 0.8
v 4 14.4 0.8
v 4.4 14.4 0.8
v -3.6 14.4 0.4
v -3.2 14.4 0.4
v 3.6 14.4 0.4
v 4 14.4 0.4
v -3.6 14.8 1.2
v -3.2 14.8 1.2
v 3.6 14.8 1.2
v 4 14.8 1.2
v -3.6 14.8 0.8
v -3.2 14.8 0.8
v -2.8 14.8 0.8
v 3.2 14.8 0.8
v 3.6 14.8 0.8
v 4 14.8 0.8
v -3.2 14.8 0.4
v -2.8 14.8 0.4
v 3.2 14.8 0.4
v 3.6 14.8 0.4
v -3.2 15.2 1.2
v -2.8 15.2 1.2
v 3.2 15.2 1.2
v 3.6 15.2 1.2
v -3.2 15.2 0.8
v -2.8 15.2 0.8
v -2.4 15.2 0.8
v 2.8 15.2 0.8
v 3.2 15.2 0.8
v 3.6 15.2 0.8
v -2.8 15.2 0.4
v -2.4 15.2 0.4
v 2.8 15.2 0.4
v 3.2 15.2 0.4
v -2.8 15.6 1.2
v -2.4 15.6 1.2
v 2.8 15.6 1.2
v 3.2 15.6 1.2
v -2.8 15.6 0.8
v -2.4 15.6 0.8
v -2 15.6 0.8
v 2.4 15.6 0.8
v 2.8 15.6 0.8
v 3.2 15.6 0.8
v -2.4 15.6 0.4
v -2 15.6 0.4
v 2.4 15.6 0.4
v 2.8 15.6 0.4
v -2.8 0.4 1.2
v -2.4 0.4 1.2
v 2.8 0.4 1.2
v 3.2 0.4 1.2
v -2.8 0.4 0.8
v -2.4 0.4 0.8
v -2 0.4 0.8
v 2.4 0.4 0.8
v 2.8 0.4 0.8
v 3.2 0.4 0.8
v -2.4 0.4 0.4
v -2 0.4 0.4
v 2.4 0.4 0.4
v 2.8 0.4 0.4
v -3.2 0.8 1.2
v -2.8 0.8 1.2
v 3.2 0.8 1.2
v 3.6 0.8 1.2
v -3.2 0.8 0.8
v -2.8 0.8 0.8
v -2.4 0.8 0.8
v 2.8 0.8 0.8
v 3.2 0.8 0.8
v 3.6 0.8 0.8
v -2.8 0.8 0.4
v -2.4 0.8 0.4
v 2.8 0.8 0.4
v 3.2 0.8 0.4
v -3.6 1.2 1.2
v -3.2 1.2 1.2
v 3.6 1.2 1.2
v 4 1.2 1.2
v -3.6 1.2 0.8
v -3.2 1.2 0.8
v -2.8 1.2 0.8
v 3.2 1.2 0.8
v 3.6 1.2 0.8
v 4 1.2 0.8
v -3.2 1.2 0.4
v -2.8 1.2 0.4
v 3.2 1.2 0.4
v 3.6 1.2 0.4
v -4 1.6 1.2
v -3.6 1.6 1.2
v 4 1.6 1.2
v 4.4 1.6 1.2
v -4 1.6 0.8
v -3.6 1.6 0.8
v -3.2 1.6 0.8
v 3.6 1.6 0.8
v 4 1.6 0.8
v 4.4 1.6 0.8
v -3.6 1.6 0.4
v -3.2 1.6 0.4
v 3.6 1.6 0.4
v 4 1.6 0.4
v -3.6 6 0.8
v -2.4 6 0.8
v 2.8 6 0.8
v 4 6 0.8
v -3.6 6 0.4
v -2.4 6 0.4
v 2.8 6 0.4
v 4 6 0.4
v -3.6 11.6 0.8
v -2.8 11.6 0.8
v 3.2 11.6 0.8
v 4 11.6 0.8
v -3.6 11.6 0.4
v -2.8 11.6 0.4
v 3.2 11.6 0.4
v 4 11.6 0.4
v -2.8 12 0.8
v -2 12 0.8
v 2.4 12 0.8
v 3.2 12 0.8
v -2.8 12 0.4
v -2 12 0.4
v 2.4 12 0.4
v 3.2 12 0.4
v -2 12.4 0.8
v -1.2 12.4 0.8
v 1.6 12.4 0.8
v 2.4 12.4 0.8
v -2 12.4 0.4
v -1.2 12.4 0.4
v 1.6 12.4 0.4
v 2.4 12.4 0.4
v -1.2 12.8 0.8
v -0.4 12.8 0.8
v 0.8 12.8 0.8
v 1.6 12.8 0.8
v -1.2 12.8 0.4
v -0.4 12.8 0.4
v 0.8 12.8 0.4
v 1.6 12.8 0.4
v -0.4 13.2 0.8
v 0 13.2 0.8
v 0.4 13.2 0.8
v 0.8 13.2 0.8
v -0.4 13.2 0.4
v 0 13.2 0.4
v 0.4 13.2 0.4
v 0.8 13.2 0.4
v 0 13.6 0.8
v 0.4 13.6 0.8
v 0 13.6 0.4
v 0.4 13.6 0.4
v -8 16 1.2
v -2.4 16 1.2
v 2.8 16 1.2
v 8 16 1.2
v -2.4 16 0.8
v -2 16 0.8
v 2.4 16 0.8
v 2.8 16 0.8
v -2 16 0.4
v 2.4 16 0.4
v -8 16 -0.0999998
v 8 16 -0.0999998

# faces
f 3/3/1 2/3/1 1/3/1
f 4/3/1 2/3/1 3/3/1
f 7/3/1 6/3/1 5/3/1
f 8/3/1 6/3/1 7/3/1
f 11/3/1 10/3/1 9/3/1
f 12/3/1 10/3/1 11/3/1
f 15/1/1 14/1/1 13/1/1
f 16/1/1 14/1/1 15/1/1
f 19/3/1 18/3/1 17/3/1
f 20/3/1 18/3/1 19/3/1
f 23/3/1 22/3/1 21/3/1
f 24/3/1 22/3/1 23/3/1
f 27/3/1 26/3/1 25/3/1
f 28/3/1 26/3/1 27/3/1
f 31/3/1 30/3/1 29/3/1
f 32/3/1 30/3/1 31/3/1
f 35/3/1 34/3/1 33/3/1
f 36/3/1 34/3/1 35/3/1
f 39/3/1 38/3/1 37/3/1
f 40/3/1 38/3/1 39/3/1
f 43/3/1 42/3/1 41/3/1
f 44/3/1 43/3/1 41/3/1
f 45/3/1 43/3/1 44/3/1
f 48/3/1 47/3/1 46/3/1
f 49/3/1 48/3/1 46/3/1
f 50/3/1 48/3/1 49/3/1
f 53/3/1 52/3/1 51/3/1
f 54/3/1 52/3/1 53/3/1
f 56/3/1 55/3/1 54/3/1
f 57/3/1 55/3/1 56/3/1
f 61/3/1 59/3/1 58/3/1
f 62/3/1 59/3/1 61/3/1
f 63/3/1 61/3/1 60/3/1
f 64/3/1 61/3/1 63/3/1
f 67/3/1 66/3/1 65/3/1
f 68/3/1 66/3/1 67/3/1
f 70/3/1 69/3/1 68/3/1
f 71/3/1 69/3/1 70/3/1
f 75/3/1 73/3/1 72/3/1
f 76/3/1 73/3/1 75/3/1
f 77/3/1 75/3/1 74/3/1
f 78/3/1 75/3/1 77/3/1
f 81/3/1 80/3/1 79/3/1
f 82/3/1 80/3/1 81/3/1
f 84/3/1 83/3/1 82/3/1
f 85/3/1 83/3/1 84/3/1
f 89/3/1 87/3/1 86/3/1
f 90/3/1 87/3/1 89/3/1
f 91/3/1 89/3/1 88/3/1
f 92/3/1 89/3/1 91/3/1
f 95/3/1 94/3/1 93/3/1
f 96/3/1 94/3/1 95/3/1
f 98/3/1 97/3/1 96/3/1
f 99/3/1 97/3/1 98/3/1
f 102/3/1 101/3/1 100/3/1
f 103/3/1 101/3/1 102/3/1
f 107/3/1 105/3/1 104/3/1
f 108/3/1 105/3/1 107/3/1
f 109/3/1 107/3/1 106/3/1
f 110/3/1 107/3/1 109/3/1
f 113/3/1 112/3/1 111/3/1
f 114/3/1 112/3/1 113/3/1
f 115/3/2 116/3/2 117/3/2
f 117/3/2 116/3/2 118/3/2
f 119/3/2 120/3/2 121/3/2
f 121/3/2 120/3/2 122/3/2
f 122/3/2 123/3/2 124/3/2
f 124/3/2 123/3/2 125/3/2
f 126/3/2 127/3/2 128/3/2
f 128/3/2 127/3/2 129/3/2
f 130/3/2 131/3/2 133/3/2
f 133/3/2 131/3/2 134/3/2
f 132/3/2 133/3/2 135/3/2
f 135/3/2 133/3/2 136/3/2
f 137/3/2 138/3/2 139/3/2
f 139/3/2 138/3/2 140/3/2
f 140/3/2 141/3/2 142/3/2
f 142/3/2 141/3/2 143/3/2
f 144/3/2 145/3/2 147/3/2
f 147/3/2 145/3/2 148/3/2
f 146/3/2 147/3/2 149/3/2
f 149/3/2 147/3/2 150/3/2
f 151/3/2 152/3/2 153/3/2
f 153/3/2 152/3/2 154/3/2
f 154/3/2 155/3/2 156/3/2
f 156/3/2 155/3/2 157/3/2
f 158/3/2 159/3/2 161/3/2
f 161/3/2 159/3/2 162/3/2
f 160/3/2 161/3/2 163/3/2
f 163/3/2 161/3/2 164/3/2
f 165/3/2 166/3/2 167/3/2
f 167/3/2 166/3/2 168/3/2
f 168/3/2 169/3/2 170/3/2
f 170/3/2 169/3/2 171/3/2
f 172/3/2 173/3/2 175/3/2
f 175/3/2 173/3/2 176/3/2
f 174/3/2 175/3/2 177/3/2
f 177/3/2 175/3/2 178/3/2
f 179/3/2 180/3/2 181/3/2
f 179/3/2 181/3/2 182/3/2
f 182/3/2 181/3/2 183/3/2
f 184/3/2 185/3/2 186/3/2
f 184/3/2 186/3/2 187/3/2
f 187/3/2 186/3/2 188/3/2
f 189/3/2 190/3/2 191/3/2
f 191/3/2 190/3/2 192/3/2
f 193/3/2 194/3/2 195/3/2
f 195/3/2 194/3/2 196/3/2
f 197/3/2 198/3/2 199/3/2
f 199/3/2 198/3/2 200/3/2
f 201/3/2 202/3/2 203/3/2
f 203/3/2 202/3/2 204/3/2
f 205/3/2 206/3/2 207/3/2
f 207/3/2 206/3/2 208/3/2
f 209/3/2 210/3/2 211/3/2
f 211/3/2 210/3/2 212/3/2
f 213/1/2 214/1/2 215/1/2
f 215/1/2 214/1/2 216/1/2
f 217/3/2 218/3/2 219/3/2
f 219/3/2 218/3/2 220/3/2
f 221/3/2 222/3/2 223/3/2
f 223/3/2 222/3/2 224/3/2
f 225/3/2 226/3/2 227/3/2
f 227/3/2 226/3/2 228/3/2
f 231/3/3 230/3/3 229/3/3
f 232/3/3 230/3/3 231/3/3
f 233/3/3 231/3/3 229/3/3
f 234/3/3 231/3/3 233/3/3
f 235/3/3 230/3/3 232/3/3
f 236/3/3 230/3/3 235/3/3
f 237/3/3 233/3/3 229/3/3
f 238/3/3 233/3/3 237/3/3
f 239/3/3 230/3/3 236/3/3
f 240/3/3 230/3/3 239/3/3
f 241/3/3 237/3/3 229/3/3
f 242/3/3 237/3/3 241/3/3
f 243/3/3 230/3/3 240/3/3
f 244/3/3 230/3/3 243/3/3
f 245/3/3 241/3/3 229/3/3
f 246/3/3 241/3/3 245/3/3
f 247/3/3 230/3/3 244/3/3
f 248/3/3 230/3/3 247/3/3
f 253/3/3 250/3/3 249/3/3
f 256/3/3 252/3/3 251/3/3
f 257/3/3 254/3/3 253/3/3
f 260/3/3 256/3/3 255/3/3
f 261/3/3 258/3/3 257/3/3
f 264/3/3 260/3/3 259/3/3
f 265/3/3 262/3/3 261/3/3
f 266/3/3 264/3/3 263/3/3
f 267/3/3 265/3/3 261/3/3
f 267/3/3 266/3/3 265/3/3
f 267/3/3 253/3/3 249/3/3
f 267/3/3 257/3/3 253/3/3
f 267/3/3 261/3/3 257/3/3
f 268/3/3 264/3/3 266/3/3
f 268/3/3 266/3/3 267/3/3
f 268/3/3 252/3/3 256/3/3
f 268/3/3 260/3/3 264/3/3
f 268/3/3 256/3/3 260/3/3
f 272/3/3 270/3/3 269/3/3
f 273/3/3 270/3/3 272/3/3
f 274/3/3 270/3/3 273/3/3
f 275/3/3 270/3/3 274/3/3
f 276/3/3 270/3/3 275/3/3
f 277/3/3 270/3/3 276/3/3
f 280/3/3 272/3/3 271/3/3
f 281/3/3 272/3/3 280/3/3
f 282/3/3 278/3/3 277/3/3
f 283/3/3 278/3/3 282/3/3
f 286/3/3 280/3/3 279/3/3
f 287/3/3 280/3/3 286/3/3
f 289/3/3 274/3/3 273/3/3
f 290/3/3 276/3/3 275/3/3
f 292/3/3 284/3/3 283/3/3
f 293/3/3 284/3/3 292/3/3
f 296/3/3 286/3/3 285/3/3
f 297/3/3 286/3/3 296/3/3
f 298/3/3 289/3/3 288/3/3
f 298/3/3 274/3/3 289/3/3
f 299/3/3 291/3/3 290/3/3
f 299/3/3 290/3/3 275/3/3
f 300/3/3 294/3/3 293/3/3
f 301/3/3 294/3/3 300/3/3
f 303/3/3 296/3/3 295/3/3
f 304/3/3 296/3/3 303/3/3
f 306/3/3 298/3/3 288/3/3
f 307/1/3 299/1/3 298/1/3
f 308/1/3 299/1/3 307/1/3
f 309/3/3 291/3/3 299/3/3
f 311/3/3 302/3/3 301/3/3
f 312/3/3 302/3/3 311/3/3
f 314/3/3 306/3/3 305/3/3
f 315/3/3 310/3/3 309/3/3
f 317/1/3 307/1/3 298/1/3
f 317/4/3 308/4/3 307/4/3
f 318/1/3 299/1/3 308/1/3
f 318/4/3 308/4/3 317/4/3
f 319/3/3 316/3/3 315/3/3
f 321/1/3 317/1/3 298/1/3
f 321/1/3 318/1/3 317/1/3
f 322/1/3 299/1/3 318/1/3
f 322/1/3 318/1/3 321/1/3
f 323/3/3 320/3/3 319/3/3
f 325/3/3 323/3/3 319/3/3
f 325/3/3 324/3/3 323/3/3
f 326/3/3 324/3/3 325/3/3
f 327/3/3 319/3/3 315/3/3
f 327/3/3 325/3/3 319/3/3
f 328/3/3 325/3/3 327/3/3
f 329/3/3 314/3/3 313/3/3
f 330/3/3 306/3/3 314/3/3
f 330/3/3 314/3/3 329/3/3
f 331/3/3 315/3/3 309/3/3
f 331/3/3 327/3/3 315/3/3
f 332/3/3 327/3/3 331/3/3
f 335/3/3 306/3/3 330/3/3
f 336/3/3 298/3/3 306/3/3
f 336/3/3 306/3/3 335/3/3
f 337/1/3 321/1/3 298/1/3
f 337/4/3 322/4/3 321/4/3
f 338/1/3 299/1/3 322/1/3
f 338/4/3 322/4/3 337/4/3
f 339/3/3 309/3/3 299/3/3
f 339/3/3 331/3/3 309/3/3
f 340/3/3 331/3/3 339/3/3
f 343/3/3 334/3/3 333/3/3
f 344/3/3 334/3/3 343/3/3
f 346/1/3 337/1/3 298/1/3
f 346/3/3 298/3/3 336/3/3
f 346/1/3 338/1/3 337/1/3
f 347/1/3 299/1/3 338/1/3
f 347/1/3 338/1/3 346/1/3
f 347/3/3 339/3/3 299/3/3
f 349/3/3 342/3/3 341/3/3
f 350/3/3 342/3/3 349/3/3
f 351/3/3 345/3/3 344/3/3
f 352/3/3 345/3/3 351/3/3
f 354/3/3 346/3/3 336/3/3
f 355/3/3 346/3/3 354/3/3
f 356/3/3 339/3/3 347/3/3
f 357/3/3 339/3/3 356/3/3
f 359/3/3 349/3/3 348/3/3
f 360/3/3 349/3/3 359/3/3
f 361/3/3 353/3/3 352/3/3
f 362/3/3 353/3/3 361/3/3
f 365/3/3 359/3/3 358/3/3
f 366/3/3 359/3/3 365/3/3
f 367/3/3 363/3/3 362/3/3
f 368/3/3 363/3/3 367/3/3
f 369/3/3 346/3/3 355/3/3
f 370/3/3 346/3/3 369/3/3
f 371/3/3 356/3/3 347/3/3
f 372/3/3 356/3/3 371/3/3
f 373/3/3 365/3/3 364/3/3
f 374/3/3 365/3/3 373/3/3
f 375/3/3 370/3/3 369/3/3
f 375/3/3 373/3/3 372/3/3
f 375/3/3 372/3/3 371/3/3
f 375/3/3 371/3/3 370/3/3
f 375/3/3 369/3/3 368/3/3
f 376/3/3 373/3/3 375/3/3
f 384/2/3 378/2/3 377/2/3
f 385/2/3 382/2/3 381/2/3
f 388/2/3 384/2/3 383/2/3
f 389/2/3 378/2/3 384/2/3
f 389/2/3 384/2/3 388/2/3
f 390/2/3 378/2/3 389/2/3
f 391/2/3 386/2/3 385/2/3
f 391/2/3 385/2/3 381/2/3
f 392/2/3 386/2/3 391/2/3
f 393/2/3 386/2/3 392/2/3
f 396/2/3 388/2/3 387/2/3
f 396/2/3 389/2/3 388/2/3
f 397/2/3 380/2/3 379/2/3
f 398/2/3 380/2/3 397/2/3
f 399/2/3 394/2/3 393/2/3
f 399/2/3 393/2/3 392/2/3
f 403/2/3 396/2/3 395/2/3
f 404/2/3 389/2/3 396/2/3
f 404/2/3 396/2/3 403/2/3
f 405/2/3 389/2/3 404/2/3
f 406/2/3 400/2/3 399/2/3
f 406/2/3 399/2/3 392/2/3
f 407/2/3 400/2/3 406/2/3
f 408/2/3 400/2/3 407/2/3
f 411/2/3 403/2/3 402/2/3
f 411/2/3 404/2/3 403/2/3
f 412/2/3 404/2/3 411/2/3
f 413/2/3 409/2/3 408/2/3
f 413/2/3 408/2/3 407/2/3
f 414/2/3 409/2/3 413/2/3
f 415/2/3 409/2/3 414/2/3
f 416/2/3 409/2/3 415/2/3
f 417/2/3 409/2/3 416/2/3
f 418/2/3 409/2/3 417/2/3
f 420/2/3 409/2/3 418/2/3
f 422/2/3 420/2/3 419/2/3
f 423/2/3 411/2/3 402/2/3
f 426/2/3 422/2/3 421/2/3
f 427/3/3 402/3/3 401/3/3
f 428/2/3 424/2/3 423/2/3
f 428/3/3 402/3/3 427/3/3
f 428/2/3 423/2/3 402/2/3
f 429/2/3 424/2/3 428/2/3
f 430/2/3 424/2/3 429/2/3
f 433/2/3 426/2/3 425/2/3
f 434/2/3 409/2/3 420/2/3
f 434/2/3 420/2/3 422/2/3
f 434/2/3 426/2/3 433/2/3
f 434/2/3 422/2/3 426/2/3
f 435/3/3 410/3/3 409/3/3
f 435/2/3 409/2/3 434/2/3
f 436/3/3 410/3/3 435/3/3
f 437/2/3 431/2/3 430/2/3
f 437/2/3 430/2/3 429/2/3
f 438/2/3 431/2/3 437/2/3
f 441/2/3 434/2/3 433/2/3
f 441/2/3 433/2/3 432/2/3
f 442/2/3 434/2/3 441/2/3
f 443/2/3 431/2/3 438/2/3
f 444/2/3 431/2/3 443/2/3
f 445/2/3 431/2/3 444/2/3
f 448/2/3 441/2/3 432/2/3
f 449/2/3 441/2/3 448/2/3
f 450/2/3 441/2/3 449/2/3
f 451/2/3 446/2/3 445/2/3
f 451/2/3 445/2/3 444/2/3
f 452/2/3 446/2/3 451/2/3
f 453/2/3 449/2/3 448/2/3
f 453/2/3 448/2/3 447/2/3
f 454/2/3 449/2/3 453/2/3
f 455/2/3 446/2/3 452/2/3
f 456/2/3 446/2/3 455/2/3
f 457/2/3 440/2/3 439/2/3
f 458/2/3 440/2/3 457/2/3
f 459/2/3 453/2/3 447/2/3
f 460/2/3 453/2/3 459/2/3
f 461/3/4 462/3/4 463/3/4
f 463/3/4 462/3/4 464/3/4
f 469/3/5 466/3/5 465/3/5
f 472/3/5 468/3/5 467/3/5
f 473/3/5 470/3/5 469/3/5
f 474/3/5 472/3/5 471/3/5
f 475/3/5 473/3/5 469/3/5
f 475/3/5 474/3/5 473/3/5
f 475/3/5 469/3/5 465/3/5
f 476/3/5 472/3/5 474/3/5
f 476/3/5 474/3/5 475/3/5
f 476/3/5 468/3/5 472/3/5
f 479/3/5 478/3/5 477/3/5
f 480/3/5 478/3/5 479/3/5
f 485/3/5 482/3/5 481/3/5
f 486/3/5 482/3/5 485/3/5
f 487/3/5 484/3/5 483/3/5
f 488/3/5 484/3/5 487/3/5
f 493/3/5 490/3/5 489/3/5
f 494/3/5 490/3/5 493/3/5
f 495/3/5 492/3/5 491/3/5
f 496/3/5 492/3/5 495/3/5
f 501/3/5 498/3/5 497/3/5
f 502/3/5 498/3/5 501/3/5
f 503/3/5 500/3/5 499/3/5
f 504/3/5 500/3/5 503/3/5
f 509/3/5 506/3/5 505/3/5
f 510/3/5 506/3/5 509/3/5
f 511/3/5 508/3/5 507/3/5
f 512/3/5 508/3/5 511/3/5
f 517/3/5 514/3/5 513/3/5
f 518/3/5 514/3/5 517/3/5
f 521/3/5 516/3/5 515/3/5
f 522/3/5 516/3/5 521/3/5
f 523/3/5 519/3/5 518/3/5
f 524/3/5 519/3/5 523/3/5
f 525/3/5 521/3/5 520/3/5
f 526/3/5 521/3/5 525/3/5
f 531/3/5 528/3/5 527/3/5
f 532/3/5 528/3/5 531/3/5
f 535/3/5 530/3/5 529/3/5
f 536/3/5 530/3/5 535/3/5
f 537/3/5 533/3/5 532/3/5
f 538/3/5 533/3/5 537/3/5
f 539/3/5 535/3/5 534/3/5
f 540/3/5 535/3/5 539/3/5
f 545/3/5 542/3/5 541/3/5
f 546/3/5 542/3/5 545/3/5
f 549/3/5 544/3/5 543/3/5
f 550/3/5 544/3/5 549/3/5
f 551/3/5 547/3/5 546/3/5
f 552/3/5 547/3/5 551/3/5
f 553/3/5 549/3/5 548/3/5
f 554/3/5 549/3/5 553/3/5
f 559/3/5 556/3/5 555/3/5
f 560/3/5 556/3/5 559/3/5
f 563/3/5 558/3/5 557/3/5
f 564/3/5 558/3/5 563/3/5
f 565/3/5 561/3/5 560/3/5
f 566/3/5 561/3/5 565/3/5
f 567/3/5 563/3/5 562/3/5
f 568/3/5 563/3/5 567/3/5
f 569/3/6 570/3/6 573/3/6
f 573/3/6 570/3/6 574/3/6
f 571/3/6 572/3/6 577/3/6
f 577/3/6 572/3/6 578/3/6
f 574/3/6 575/3/6 579/3/6
f 579/3/6 575/3/6 580/3/6
f 576/3/6 577/3/6 581/3/6
f 581/3/6 577/3/6 582/3/6
f 583/3/6 584/3/6 587/3/6
f 587/3/6 584/3/6 588/3/6
f 585/3/6 586/3/6 591/3/6
f 591/3/6 586/3/6 592/3/6
f 588/3/6 589/3/6 593/3/6
f 593/3/6 589/3/6 594/3/6
f 590/3/6 591/3/6 595/3/6
f 595/3/6 591/3/6 596/3/6
f 597/3/6 598/3/6 601/3/6
f 601/3/6 598/3/6 602/3/6
f 599/3/6 600/3/6 605/3/6
f 605/3/6 600/3/6 606/3/6
f 602/3/6 603/3/6 607/3/6
f 607/3/6 603/3/6 608/3/6
f 604/3/6 605/3/6 609/3/6
f 609/3/6 605/3/6 610/3/6
f 611/3/6 612/3/6 615/3/6
f 615/3/6 612/3/6 616/3/6
f 613/3/6 614/3/6 619/3/6
f 619/3/6 614/3/6 620/3/6
f 616/3/6 617/3/6 621/3/6
f 621/3/6 617/3/6 622/3/6
f 618/3/6 619/3/6 623/3/6
f 623/3/6 619/3/6 624/3/6
f 625/3/6 626/3/6 629/3/6
f 629/3/6 626/3/6 630/3/6
f 627/3/6 628/3/6 631/3/6
f 631/3/6 628/3/6 632/3/6
f 633/3/6 634/3/6 637/3/6
f 637/3/6 634/3/6 638/3/6
f 635/3/6 636/3/6 639/3/6
f 639/3/6 636/3/6 640/3/6
f 641/3/6 642/3/6 645/3/6
f 645/3/6 642/3/6 646/3/6
f 643/3/6 644/3/6 647/3/6
f 647/3/6 644/3/6 648/3/6
f 649/3/6 650/3/6 653/3/6
f 653/3/6 650/3/6 654/3/6
f 651/3/6 652/3/6 655/3/6
f 655/3/6 652/3/6 656/3/6
f 657/3/6 658/3/6 661/3/6
f 661/3/6 658/3/6 662/3/6
f 659/3/6 660/3/6 663/3/6
f 663/3/6 660/3/6 664/3/6
f 665/3/6 666/3/6 669/3/6
f 669/3/6 666/3/6 670/3/6
f 667/3/6 668/3/6 671/3/6
f 671/3/6 668/3/6 672/3/6
f 673/3/6 674/3/6 675/3/6
f 675/3/6 674/3/6 676/3/6
f 677/3/6 678/3/6 681/3/6
f 679/3/6 680/3/6 684/3/6
f 681/3/6 682/3/6 685/3/6
f 683/3/6 684/3/6 686/3/6
f 681/3/6 685/3/6 687/3/6
f 685/3/6 686/3/6 687/3/6
f 677/3/6 681/3/6 687/3/6
f 686/3/6 684/3/6 688/3/6
f 687/3/6 686/3/6 688/3/6
f 684/3/6 680/3/6 688/3/6
