# MagicaVoxel @ Ephtracy

# group
o lod3

# material
mtllib wallWithWindow5-0-lod3.mtl
usemtl palette

# normals
vn -1 0 0
vn 1 0 0
vn 0 0 1
vn 0 0 -1
vn 0 -1 0
vn 0 1 0

# texcoords
vt 0.00195313 0.5
vt 0.00585938 0.5
vt 0.00976563 0.5
vt 0.306641 0.5

# verts
v -8 0 0.800001
v -8 0 -0.0999994
v -8 16 0.800001
v -8 16 -0.0999994
v 8 0 0.800001
v 8 0 -0.0999994
v 8 16 0.800001
v 8 16 -0.0999994
v -8 0 0.800001
v -8 16 0.800001
v -3.6 1.6 0.800001
v -3.6 5.6 0.800001
v -3.6 6 0.800001
v -3.6 11.2 0.800001
v -3.6 11.6 0.800001
v -3.6 14.4 0.800001
v -3.2 1.2 0.800001
v -3.2 1.6 0.800001
v -3.2 14.4 0.800001
v -3.2 14.8 0.800001
v -2.8 0.8 0.800001
v -2.8 1.2 0.800001
v -2.8 5.2 0.800001
v -2.8 5.6 0.800001
v -2.8 11.6 0.800001
v -2.8 12 0.800001
v -2.8 14.8 0.800001
v -2.8 15.2 0.800001
v -2.4 0.4 0.800001
v -2.4 0.8 0.800001
v -2.4 6 0.800001
v -2.4 11.2 0.800001
v -2.4 15.2 0.800001
v -2.4 15.6 0.800001
v -2 0.1 0.800001
v -2 0.4 0.800001
v -2 4.8 0.800001
v -2 5.2 0.800001
v -2 6.4 0.800001
v -2 10.8 0.800001
v -2 12 0.800001
v -2 12.4 0.800001
v -2 15.6 0.800001
v -2 15.9 0.800001
v -1.2 4.4 0.800001
v -1.2 4.8 0.800001
v -1.2 12.4 0.800001
v -1.2 12.8 0.800001
v -0.5 6.4 0.800001
v -0.5 10.8 0.800001
v -0.4 12.8 0.800001
v -0.4 13.2 0.800001
v -0.3 6.4 0.800001
v -0.3 10.8 0.800001
v 0 13.2 0.800001
v 0 13.6 0.800001
v 0.4 13.2 0.800001
v 0.4 13.6 0.800001
v 0.8 12.8 0.800001
v 0.8 13.2 0.800001
v 1.6 4.4 0.800001
v 1.6 4.8 0.800001
v 1.6 12.4 0.800001
v 1.6 12.8 0.800001
v 2.4 0.1 0.800001
v 2.4 0.4 0.800001
v 2.4 4.8 0.800001
v 2.4 5.2 0.800001
v 2.4 6.4 0.800001
v 2.4 10.8 0.800001
v 2.4 12 0.800001
v 2.4 12.4 0.800001
v 2.4 15.6 0.800001
v 2.4 15.9 0.800001
v 2.8 0.4 0.800001
v 2.8 0.8 0.800001
v 2.8 6 0.800001
v 2.8 11.2 0.800001
v 2.8 15.2 0.800001
v 2.8 15.6 0.800001
v 3.2 0.8 0.800001
v 3.2 1.2 0.800001
v 3.2 5.2 0.800001
v 3.2 5.6 0.800001
v 3.2 11.6 0.800001
v 3.2 12 0.800001
v 3.2 14.8 0.800001
v 3.2 15.2 0.800001
v 3.6 1.2 0.800001
v 3.6 1.6 0.800001
v 3.6 14.4 0.800001
v 3.6 14.8 0.800001
v 4 1.6 0.800001
v 4 5.6 0.800001
v 4 6 0.800001
v 4 11.2 0.800001
v 4 11.6 0.800001
v 4 14.4 0.800001
v 8 0 0.800001
v 8 16 0.800001
v -8 0 -0.0999994
v -8 16 -0.0999994
v 8 0 -0.0999994
v 8 16 -0.0999994
v -8 0 0.800001
v 8 0 0.800001
v -8 0 -0.0999994
v 8 0 -0.0999994
v -8 16 0.800001
v 8 16 0.800001
v -8 16 -0.0999994
v 8 16 -0.0999994

# faces
f 3/3/1 2/3/1 1/3/1
f 4/3/1 2/3/1 3/3/1
f 5/3/2 6/3/2 7/3/2
f 7/3/2 6/3/2 8/3/2
f 11/3/3 10/3/3 9/3/3
f 12/3/3 10/3/3 11/3/3
f 13/3/3 10/3/3 12/3/3
f 14/3/3 10/3/3 13/3/3
f 15/3/3 10/3/3 14/3/3
f 16/3/3 10/3/3 15/3/3
f 17/3/3 11/3/3 9/3/3
f 18/2/3 12/2/3 11/2/3
f 18/3/3 11/3/3 17/3/3
f 19/3/3 10/3/3 16/3/3
f 19/2/3 16/2/3 15/2/3
f 20/3/3 10/3/3 19/3/3
f 21/3/3 17/3/3 9/3/3
f 22/2/3 18/2/3 17/2/3
f 22/3/3 17/3/3 21/3/3
f 23/2/3 12/2/3 18/2/3
f 23/2/3 18/2/3 22/2/3
f 24/3/3 13/3/3 12/3/3
f 24/2/3 12/2/3 23/2/3
f 25/3/3 15/3/3 14/3/3
f 25/2/3 19/2/3 15/2/3
f 25/2/3 20/2/3 19/2/3
f 26/2/3 20/2/3 25/2/3
f 27/3/3 10/3/3 20/3/3
f 27/2/3 20/2/3 26/2/3
f 28/3/3 10/3/3 27/3/3
f 29/3/3 21/3/3 9/3/3
f 30/2/3 22/2/3 21/2/3
f 30/3/3 21/3/3 29/3/3
f 30/2/3 23/2/3 22/2/3
f 31/2/3 14/2/3 13/2/3
f 31/3/3 13/3/3 24/3/3
f 31/3/3 24/3/3 23/3/3
f 32/3/3 26/3/3 25/3/3
f 32/2/3 14/2/3 31/2/3
f 32/3/3 25/3/3 14/3/3
f 33/2/3 28/2/3 27/2/3
f 33/3/3 10/3/3 28/3/3
f 33/2/3 27/2/3 26/2/3
f 34/3/3 10/3/3 33/3/3
f 35/3/3 29/3/3 9/3/3
f 36/2/3 30/2/3 29/2/3
f 36/3/3 29/3/3 35/3/3
f 37/2/3 23/2/3 30/2/3
f 37/2/3 30/2/3 36/2/3
f 38/3/3 31/3/3 23/3/3
f 38/2/3 23/2/3 37/2/3
f 39/1/3 32/1/3 31/1/3
f 40/1/3 32/1/3 39/1/3
f 41/3/3 26/3/3 32/3/3
f 41/2/3 33/2/3 26/2/3
f 41/2/3 34/2/3 33/2/3
f 42/2/3 34/2/3 41/2/3
f 43/3/3 10/3/3 34/3/3
f 43/2/3 34/2/3 42/2/3
f 44/3/3 10/3/3 43/3/3
f 45/2/3 37/2/3 36/2/3
f 45/2/3 36/2/3 35/2/3
f 46/3/3 38/3/3 37/3/3
f 46/2/3 37/2/3 45/2/3
f 47/3/3 42/3/3 41/3/3
f 47/2/3 44/2/3 43/2/3
f 47/2/3 43/2/3 42/2/3
f 48/2/3 44/2/3 47/2/3
f 49/4/3 40/4/3 39/4/3
f 49/1/3 39/1/3 31/1/3
f 50/1/3 32/1/3 40/1/3
f 50/4/3 40/4/3 49/4/3
f 51/2/3 44/2/3 48/2/3
f 51/3/3 48/3/3 47/3/3
f 52/2/3 44/2/3 51/2/3
f 53/1/3 49/1/3 31/1/3
f 53/1/3 50/1/3 49/1/3
f 54/1/3 32/1/3 50/1/3
f 54/1/3 50/1/3 53/1/3
f 55/2/3 44/2/3 52/2/3
f 55/3/3 52/3/3 51/3/3
f 56/2/3 44/2/3 55/2/3
f 57/3/3 55/3/3 51/3/3
f 57/3/3 56/3/3 55/3/3
f 58/2/3 44/2/3 56/2/3
f 58/3/3 56/3/3 57/3/3
f 59/3/3 51/3/3 47/3/3
f 59/3/3 57/3/3 51/3/3
f 60/2/3 58/2/3 57/2/3
f 60/3/3 57/3/3 59/3/3
f 61/3/3 46/3/3 45/3/3
f 61/2/3 45/2/3 35/2/3
f 62/3/3 38/3/3 46/3/3
f 62/3/3 46/3/3 61/3/3
f 63/3/3 47/3/3 41/3/3
f 63/3/3 59/3/3 47/3/3
f 64/2/3 60/2/3 59/2/3
f 64/3/3 59/3/3 63/3/3
f 65/2/3 61/2/3 35/2/3
f 65/3/3 35/3/3 9/3/3
f 65/2/3 62/2/3 61/2/3
f 66/2/3 62/2/3 65/2/3
f 67/3/3 38/3/3 62/3/3
f 67/2/3 62/2/3 66/2/3
f 68/3/3 31/3/3 38/3/3
f 68/3/3 38/3/3 67/3/3
f 69/1/3 53/1/3 31/1/3
f 69/4/3 54/4/3 53/4/3
f 70/1/3 32/1/3 54/1/3
f 70/4/3 54/4/3 69/4/3
f 71/3/3 63/3/3 41/3/3
f 71/3/3 41/3/3 32/3/3
f 72/2/3 64/2/3 63/2/3
f 72/3/3 63/3/3 71/3/3
f 73/2/3 60/2/3 64/2/3
f 73/2/3 64/2/3 72/2/3
f 73/2/3 58/2/3 60/2/3
f 73/2/3 44/2/3 58/2/3
f 74/3/3 10/3/3 44/3/3
f 74/2/3 44/2/3 73/2/3
f 75/2/3 67/2/3 66/2/3
f 75/2/3 68/2/3 67/2/3
f 75/3/3 66/3/3 65/3/3
f 76/2/3 68/2/3 75/2/3
f 77/1/3 69/1/3 31/1/3
f 77/3/3 31/3/3 68/3/3
f 77/1/3 70/1/3 69/1/3
f 78/3/3 71/3/3 32/3/3
f 78/1/3 70/1/3 77/1/3
f 78/1/3 32/1/3 70/1/3
f 79/2/3 72/2/3 71/2/3
f 79/2/3 73/2/3 72/2/3
f 80/3/3 74/3/3 73/3/3
f 80/2/3 73/2/3 79/2/3
f 81/2/3 68/2/3 76/2/3
f 81/3/3 76/3/3 75/3/3
f 82/2/3 68/2/3 81/2/3
f 83/3/3 77/3/3 68/3/3
f 83/2/3 68/2/3 82/2/3
f 84/3/3 77/3/3 83/3/3
f 85/3/3 71/3/3 78/3/3
f 86/2/3 79/2/3 71/2/3
f 86/3/3 71/3/3 85/3/3
f 87/2/3 79/2/3 86/2/3
f 88/3/3 80/3/3 79/3/3
f 88/2/3 79/2/3 87/2/3
f 89/3/3 82/3/3 81/3/3
f 89/2/3 83/2/3 82/2/3
f 89/2/3 84/2/3 83/2/3
f 90/2/3 84/2/3 89/2/3
f 91/2/3 87/2/3 86/2/3
f 91/2/3 86/2/3 85/2/3
f 92/3/3 88/3/3 87/3/3
f 92/2/3 87/2/3 91/2/3
f 93/2/3 84/2/3 90/2/3
f 93/3/3 90/3/3 89/3/3
f 94/3/3 77/3/3 84/3/3
f 94/2/3 84/2/3 93/2/3
f 95/2/3 78/2/3 77/2/3
f 95/3/3 77/3/3 94/3/3
f 96/3/3 85/3/3 78/3/3
f 96/2/3 78/2/3 95/2/3
f 97/2/3 91/2/3 85/2/3
f 97/3/3 85/3/3 96/3/3
f 98/3/3 92/3/3 91/3/3
f 98/2/3 91/2/3 97/2/3
f 99/3/3 93/3/3 89/3/3
f 99/3/3 94/3/3 93/3/3
f 99/3/3 98/3/3 97/3/3
f 99/3/3 89/3/3 81/3/3
f 99/3/3 97/3/3 96/3/3
f 99/3/3 96/3/3 95/3/3
f 99/3/3 81/3/3 75/3/3
f 99/3/3 75/3/3 65/3/3
f 99/3/3 95/3/3 94/3/3
f 99/3/3 65/3/3 9/3/3
f 100/3/3 92/3/3 98/3/3
f 100/3/3 98/3/3 99/3/3
f 100/3/3 88/3/3 92/3/3
f 100/3/3 80/3/3 88/3/3
f 100/3/3 10/3/3 74/3/3
f 100/3/3 74/3/3 80/3/3
f 101/3/4 102/3/4 103/3/4
f 103/3/4 102/3/4 104/3/4
f 107/3/5 106/3/5 105/3/5
f 108/3/5 106/3/5 107/3/5
f 109/3/6 110/3/6 111/3/6
f 111/3/6 110/3/6 112/3/6
