# MagicaVoxel @ Ephtracy

# group
o lod2

# material
mtllib balcony3-1-lod2.mtl
usemtl palette

# normals
vn -1 0 0
vn 1 0 0
vn 0 0 1
vn 0 0 -1
vn 0 -1 0
vn 0 1 0

# texcoords
vt 0.423828 0.5
vt 0.892578 0.5
vt 0.962891 0.5

# verts
v -8 0 9.9
v -8 0 0
v -8 6 9.9
v -8 6 1.7
v -8 6.1 9.6
v -8 6.1 7
v -8 6.1 6.8
v -8 6.1 4.5
v -8 6.1 4.3
v -8 6.1 1.8
v -8 10.9 6.8
v -8 10.9 4.5
v -8 11.2 6.8
v -8 11.2 4.5
v -8 12.3 9.6
v -8 12.3 7
v -8 12.3 6.8
v -8 12.3 4.5
v -8 12.3 4.3
v -8 12.3 1.8
v -8 12.4 9.9
v -8 12.4 1.7
v -8 14.8 9.9
v -8 14.8 9
v -8 15 9
v -8 15 8
v -8 15.2 8
v -8 15.2 6.9
v -8 15.4 6.9
v -8 15.4 5.7
v -8 15.6 5.7
v -8 15.6 4.1
v -8 15.8 4.1
v -8 15.8 2.8
v -8 16 2.8
v -8 16 0
v 8 0 9.9
v 8 0 0
v 8 6 9.9
v 8 6 1.7
v 8 6.1 9.6
v 8 6.1 7.1
v 8 6.1 6.9
v 8 6.1 4.6
v 8 6.1 4.4
v 8 6.1 1.8
v 8 10.6 9.6
v 8 10.6 7.1
v 8 10.6 4.4
v 8 10.6 1.8
v 8 10.8 9.6
v 8 10.8 7.1
v 8 10.8 4.4
v 8 10.8 1.8
v 8 12.3 9.6
v 8 12.3 7.1
v 8 12.3 6.9
v 8 12.3 4.6
v 8 12.3 4.4
v 8 12.3 1.8
v 8 12.4 9.9
v 8 12.4 1.7
v 8 14.8 9.9
v 8 14.8 9
v 8 15 9
v 8 15 8
v 8 15.2 8
v 8 15.2 6.9
v 8 15.4 6.9
v 8 15.4 5.7
v 8 15.6 5.7
v 8 15.6 4.1
v 8 15.8 4.1
v 8 15.8 2.8
v 8 16 2.8
v 8 16 0
v -8 0 9.9
v -8 6 9.9
v -8 12.4 9.9
v -8 14.8 9.9
v -7.7 6.1 9.9
v -7.7 12.3 9.9
v -4.1 6.1 9.9
v -4.1 12.3 9.9
v -3.9 6.1 9.9
v -3.9 12.3 9.9
v 0.8 6.1 9.9
v 0.8 12.3 9.9
v 1 6.1 9.9
v 1 10.5 9.9
v 1 10.7 9.9
v 1 12.3 9.9
v 4.6 6.1 9.9
v 4.6 10.5 9.9
v 4.6 10.7 9.9
v 4.6 12.3 9.9
v 4.8 6.1 9.9
v 4.8 12.3 9.9
v 7.7 6.1 9.9
v 7.7 12.3 9.9
v 8 0 9.9
v 8 6 9.9
v 8 12.4 9.9
v 8 14.8 9.9
v -8 14.8 9
v -8 15 9
v 8 14.8 9
v 8 15 9
v -8 15 8
v -8 15.2 8
v 8 15 8
v 8 15.2 8
v -8 15.2 6.9
v -8 15.4 6.9
v 8 15.2 6.9
v 8 15.4 6.9
v -8 15.4 5.7
v -8 15.6 5.7
v 8 15.4 5.7
v 8 15.6 5.7
v -8 15.6 4.1
v -8 15.8 4.1
v 8 15.6 4.1
v 8 15.8 4.1
v -8 15.8 2.8
v -8 16 2.8
v 8 15.8 2.8
v 8 16 2.8
v -8 0 0
v -8 16 0
v 8 0 0
v 8 16 0
v -8 0 9.9
v 8 0 9.9
v -8 0 0
v 8 0 0
v -8 14.8 9.9
v 8 14.8 9.9
v -8 14.8 9
v 8 14.8 9
v -8 15 9
v 8 15 9
v -8 15 8
v 8 15 8
v -8 15.2 8
v 8 15.2 8
v -8 15.2 6.9
v 8 15.2 6.9
v -8 15.4 6.9
v 8 15.4 6.9
v -8 15.4 5.7
v 8 15.4 5.7
v -8 15.6 5.7
v 8 15.6 5.7
v -8 15.6 4.1
v 8 15.6 4.1
v -8 15.8 4.1
v 8 15.8 4.1
v -8 15.8 2.8
v 8 15.8 2.8
v -8 16 2.8
v 8 16 2.8
v -8 16 0
v 8 16 0

# faces
f 3/2/1 2/2/1 1/2/1
f 4/2/1 2/2/1 3/2/1
f 5/3/1 4/3/1 3/3/1
f 6/3/1 4/3/1 5/3/1
f 7/3/1 4/3/1 6/3/1
f 8/3/1 4/3/1 7/3/1
f 9/3/1 4/3/1 8/3/1
f 10/3/1 4/3/1 9/3/1
f 11/3/1 7/3/1 6/3/1
f 11/1/1 8/1/1 7/1/1
f 12/3/1 9/3/1 8/3/1
f 12/1/1 8/1/1 11/1/1
f 13/3/1 11/3/1 6/3/1
f 13/3/1 12/3/1 11/3/1
f 14/3/1 9/3/1 12/3/1
f 14/3/1 12/3/1 13/3/1
f 15/3/1 5/3/1 3/3/1
f 15/1/1 6/1/1 5/1/1
f 16/3/1 13/3/1 6/3/1
f 16/1/1 6/1/1 15/1/1
f 17/1/1 14/1/1 13/1/1
f 17/3/1 13/3/1 16/3/1
f 18/3/1 9/3/1 14/3/1
f 18/1/1 14/1/1 17/1/1
f 19/1/1 10/1/1 9/1/1
f 19/3/1 9/3/1 18/3/1
f 20/3/1 4/3/1 10/3/1
f 20/1/1 10/1/1 19/1/1
f 21/3/1 17/3/1 16/3/1
f 21/3/1 16/3/1 15/3/1
f 21/3/1 20/3/1 19/3/1
f 21/3/1 15/3/1 3/3/1
f 21/3/1 18/3/1 17/3/1
f 21/3/1 19/3/1 18/3/1
f 22/2/1 2/2/1 4/2/1
f 22/3/1 20/3/1 21/3/1
f 22/3/1 4/3/1 20/3/1
f 23/2/1 22/2/1 21/2/1
f 24/2/1 22/2/1 23/2/1
f 25/2/1 22/2/1 24/2/1
f 26/2/1 22/2/1 25/2/1
f 27/2/1 22/2/1 26/2/1
f 28/2/1 22/2/1 27/2/1
f 29/2/1 22/2/1 28/2/1
f 30/2/1 22/2/1 29/2/1
f 31/2/1 22/2/1 30/2/1
f 32/2/1 22/2/1 31/2/1
f 33/2/1 22/2/1 32/2/1
f 34/2/1 22/2/1 33/2/1
f 35/2/1 22/2/1 34/2/1
f 36/2/1 2/2/1 22/2/1
f 36/2/1 22/2/1 35/2/1
f 37/2/2 38/2/2 39/2/2
f 39/2/2 38/2/2 40/2/2
f 39/3/2 40/3/2 41/3/2
f 41/3/2 40/3/2 42/3/2
f 42/3/2 40/3/2 43/3/2
f 43/3/2 40/3/2 44/3/2
f 44/3/2 40/3/2 45/3/2
f 45/3/2 40/3/2 46/3/2
f 39/3/2 41/3/2 47/3/2
f 41/1/2 42/1/2 47/1/2
f 42/3/2 43/3/2 48/3/2
f 47/1/2 42/1/2 48/1/2
f 45/1/2 46/1/2 49/1/2
f 44/3/2 45/3/2 49/3/2
f 46/3/2 40/3/2 50/3/2
f 49/1/2 46/1/2 50/1/2
f 39/3/2 47/3/2 51/3/2
f 47/3/2 48/3/2 51/3/2
f 48/3/2 43/3/2 52/3/2
f 51/3/2 48/3/2 52/3/2
f 44/3/2 49/3/2 53/3/2
f 49/3/2 50/3/2 53/3/2
f 50/3/2 40/3/2 54/3/2
f 53/3/2 50/3/2 54/3/2
f 39/3/2 51/3/2 55/3/2
f 51/1/2 52/1/2 55/1/2
f 52/3/2 43/3/2 56/3/2
f 55/1/2 52/1/2 56/1/2
f 43/1/2 44/1/2 57/1/2
f 56/3/2 43/3/2 57/3/2
f 44/3/2 53/3/2 58/3/2
f 57/1/2 44/1/2 58/1/2
f 53/1/2 54/1/2 59/1/2
f 58/3/2 53/3/2 59/3/2
f 54/3/2 40/3/2 60/3/2
f 59/1/2 54/1/2 60/1/2
f 39/3/2 55/3/2 61/3/2
f 58/3/2 59/3/2 61/3/2
f 59/3/2 60/3/2 61/3/2
f 57/3/2 58/3/2 61/3/2
f 55/3/2 56/3/2 61/3/2
f 56/3/2 57/3/2 61/3/2
f 40/2/2 38/2/2 62/2/2
f 61/3/2 60/3/2 62/3/2
f 60/3/2 40/3/2 62/3/2
f 61/2/2 62/2/2 63/2/2
f 63/2/2 62/2/2 64/2/2
f 64/2/2 62/2/2 65/2/2
f 65/2/2 62/2/2 66/2/2
f 66/2/2 62/2/2 67/2/2
f 67/2/2 62/2/2 68/2/2
f 68/2/2 62/2/2 69/2/2
f 69/2/2 62/2/2 70/2/2
f 70/2/2 62/2/2 71/2/2
f 71/2/2 62/2/2 72/2/2
f 72/2/2 62/2/2 73/2/2
f 73/2/2 62/2/2 74/2/2
f 74/2/2 62/2/2 75/2/2
f 62/2/2 38/2/2 76/2/2
f 75/2/2 62/2/2 76/2/2
f 81/3/3 79/3/3 78/3/3
f 82/3/3 79/3/3 81/3/3
f 83/3/3 81/3/3 78/3/3
f 83/1/3 82/1/3 81/1/3
f 84/3/3 79/3/3 82/3/3
f 84/1/3 82/1/3 83/1/3
f 85/3/3 83/3/3 78/3/3
f 85/3/3 84/3/3 83/3/3
f 86/3/3 79/3/3 84/3/3
f 86/3/3 84/3/3 85/3/3
f 87/3/3 85/3/3 78/3/3
f 87/1/3 86/1/3 85/1/3
f 88/3/3 79/3/3 86/3/3
f 88/1/3 86/1/3 87/1/3
f 89/3/3 87/3/3 78/3/3
f 89/3/3 88/3/3 87/3/3
f 90/3/3 88/3/3 89/3/3
f 91/3/3 88/3/3 90/3/3
f 92/3/3 79/3/3 88/3/3
f 92/3/3 88/3/3 91/3/3
f 93/3/3 89/3/3 78/3/3
f 93/1/3 90/1/3 89/1/3
f 94/3/3 91/3/3 90/3/3
f 94/1/3 90/1/3 93/1/3
f 95/1/3 92/1/3 91/1/3
f 95/3/3 91/3/3 94/3/3
f 96/3/3 79/3/3 92/3/3
f 96/1/3 92/1/3 95/1/3
f 97/3/3 93/3/3 78/3/3
f 97/3/3 95/3/3 94/3/3
f 97/3/3 96/3/3 95/3/3
f 97/3/3 94/3/3 93/3/3
f 98/3/3 79/3/3 96/3/3
f 98/3/3 96/3/3 97/3/3
f 99/3/3 97/3/3 78/3/3
f 99/1/3 98/1/3 97/1/3
f 100/3/3 79/3/3 98/3/3
f 100/1/3 98/1/3 99/1/3
f 101/2/3 78/2/3 77/2/3
f 102/3/3 99/3/3 78/3/3
f 102/2/3 78/2/3 101/2/3
f 102/3/3 100/3/3 99/3/3
f 103/3/3 79/3/3 100/3/3
f 103/3/3 100/3/3 102/3/3
f 103/2/3 80/2/3 79/2/3
f 104/2/3 80/2/3 103/2/3
f 107/2/3 106/2/3 105/2/3
f 108/2/3 106/2/3 107/2/3
f 111/2/3 110/2/3 109/2/3
f 112/2/3 110/2/3 111/2/3
f 115/2/3 114/2/3 113/2/3
f 116/2/3 114/2/3 115/2/3
f 119/2/3 118/2/3 117/2/3
f 120/2/3 118/2/3 119/2/3
f 123/2/3 122/2/3 121/2/3
f 124/2/3 122/2/3 123/2/3
f 127/2/3 126/2/3 125/2/3
f 128/2/3 126/2/3 127/2/3
f 129/2/4 130/2/4 131/2/4
f 131/2/4 130/2/4 132/2/4
f 135/2/5 134/2/5 133/2/5
f 136/2/5 134/2/5 135/2/5
f 137/2/6 138/2/6 139/2/6
f 139/2/6 138/2/6 140/2/6
f 141/2/6 142/2/6 143/2/6
f 143/2/6 142/2/6 144/2/6
f 145/2/6 146/2/6 147/2/6
f 147/2/6 146/2/6 148/2/6
f 149/2/6 150/2/6 151/2/6
f 151/2/6 150/2/6 152/2/6
f 153/2/6 154/2/6 155/2/6
f 155/2/6 154/2/6 156/2/6
f 157/2/6 158/2/6 159/2/6
f 159/2/6 158/2/6 160/2/6
f 161/2/6 162/2/6 163/2/6
f 163/2/6 162/2/6 164/2/6
