# MagicaVoxel @ Ephtracy

# group
o lod1

# material
mtllib emptyWall3-2-lod1.mtl
usemtl palette

# normals
vn -1 0 0
vn 1 0 0
vn 0 0 1
vn 0 0 -1
vn 0 -1 0
vn 0 1 0

# texcoords
vt 0.0917969 0.5
vt 0.978516 0.5

# verts
v -8 0 0.4
v -8 0 0.1
v -8 0 0
v -8 0.4 0.4
v -8 0.4 0.1
v -8 1.6 0.4
v -8 1.6 0.1
v -8 2 0.4
v -8 2 0.1
v -8 3.2 0.4
v -8 3.2 0.1
v -8 3.6 0.4
v -8 3.6 0.1
v -8 4.8 0.4
v -8 4.8 0.1
v -8 5.2 0.4
v -8 5.2 0.1
v -8 6.4 0.4
v -8 6.4 0.1
v -8 6.8 0.4
v -8 6.8 0.1
v -8 8 0.4
v -8 8 0.1
v -8 8.4 0.4
v -8 8.4 0.1
v -8 9.6 0.4
v -8 9.6 0.1
v -8 10 0.4
v -8 10 0.1
v -8 11.2 0.4
v -8 11.2 0.1
v -8 11.6 0.4
v -8 11.6 0.1
v -8 12.8 0.4
v -8 12.8 0.1
v -8 13.2 0.4
v -8 13.2 0.1
v -8 14.4 0.4
v -8 14.4 0.1
v -8 14.8 0.4
v -8 14.8 0.1
v -8 16 0.4
v -8 16 0
v 8 0 0.4
v 8 0 0.1
v 8 0 0
v 8 0.4 0.4
v 8 0.4 0.1
v 8 1.6 0.4
v 8 1.6 0.1
v 8 3.6 0.4
v 8 3.6 0.1
v 8 4.8 0.4
v 8 4.8 0.1
v 8 6.8 0.4
v 8 6.8 0.1
v 8 8 0.4
v 8 8 0.1
v 8 10 0.4
v 8 10 0.1
v 8 11.2 0.4
v 8 11.2 0.1
v 8 13.2 0.4
v 8 13.2 0.1
v 8 14.4 0.4
v 8 14.4 0.1
v 8 16 0.4
v 8 16 0.1
v 8 16 0
v -8 0 0.4
v -8 0.4 0.4
v -8 1.6 0.4
v -8 2 0.4
v -8 3.2 0.4
v -8 3.6 0.4
v -8 4.8 0.4
v -8 5.2 0.4
v -8 6.4 0.4
v -8 6.8 0.4
v -8 8 0.4
v -8 8.4 0.4
v -8 9.6 0.4
v -8 10 0.4
v -8 11.2 0.4
v -8 11.6 0.4
v -8 12.8 0.4
v -8 13.2 0.4
v -8 14.4 0.4
v -8 14.8 0.4
v -8 16 0.4
v -7.2 0.4 0.4
v -7.2 1.6 0.4
v -7.2 3.6 0.4
v -7.2 4.8 0.4
v -6.8 0.4 0.4
v -6.8 1.6 0.4
v -6.8 3.6 0.4
v -6.8 4.8 0.4
v -6.8 6.8 0.4
v -6.8 8 0.4
v -6.8 10 0.4
v -6.8 11.2 0.4
v -6.8 13.2 0.4
v -6.8 14.4 0.4
v -6.4 6.8 0.4
v -6.4 8 0.4
v -6.4 10 0.4
v -6.4 11.2 0.4
v -6.4 13.2 0.4
v -6.4 14.4 0.4
v -5.2 2 0.4
v -5.2 3.2 0.4
v -5.2 5.2 0.4
v -5.2 6.4 0.4
v -5.2 8.4 0.4
v -5.2 9.6 0.4
v -5.2 11.6 0.4
v -5.2 12.8 0.4
v -5.2 14.8 0.4
v -5.2 16 0.4
v -4.8 2 0.4
v -4.8 3.2 0.4
v -4.8 5.2 0.4
v -4.8 6.4 0.4
v -4.8 8.4 0.4
v -4.8 9.6 0.4
v -4.8 11.6 0.4
v -4.8 12.8 0.4
v -4.8 14.8 0.4
v -4.8 16 0.4
v -3.6 0.4 0.4
v -3.6 1.6 0.4
v -3.6 3.6 0.4
v -3.6 4.8 0.4
v -3.6 6.8 0.4
v -3.6 8 0.4
v -3.6 10 0.4
v -3.6 11.2 0.4
v -3.6 13.2 0.4
v -3.6 14.4 0.4
v -3.2 0.4 0.4
v -3.2 1.6 0.4
v -3.2 3.6 0.4
v -3.2 4.8 0.4
v -3.2 6.8 0.4
v -3.2 8 0.4
v -3.2 10 0.4
v -3.2 11.2 0.4
v -3.2 13.2 0.4
v -3.2 14.4 0.4
v -2 2 0.4
v -2 3.2 0.4
v -2 5.2 0.4
v -2 6.4 0.4
v -2 8.4 0.4
v -2 9.6 0.4
v -2 11.6 0.4
v -2 12.8 0.4
v -2 14.8 0.4
v -2 16 0.4
v -1.6 2 0.4
v -1.6 3.2 0.4
v -1.6 5.2 0.4
v -1.6 6.4 0.4
v -1.6 8.4 0.4
v -1.6 9.6 0.4
v -1.6 11.6 0.4
v -1.6 12.8 0.4
v -1.6 14.8 0.4
v -1.6 16 0.4
v -0.4 0.4 0.4
v -0.4 1.6 0.4
v -0.4 3.6 0.4
v -0.4 4.8 0.4
v -0.4 6.8 0.4
v -0.4 8 0.4
v -0.4 10 0.4
v -0.4 11.2 0.4
v -0.4 13.2 0.4
v -0.4 14.4 0.4
v 0 0.4 0.4
v 0 1.6 0.4
v 0 3.6 0.4
v 0 4.8 0.4
v 0 6.8 0.4
v 0 8 0.4
v 0 10 0.4
v 0 11.2 0.4
v 0 13.2 0.4
v 0 14.4 0.4
v 1.2 2 0.4
v 1.2 3.2 0.4
v 1.2 5.2 0.4
v 1.2 6.4 0.4
v 1.2 8.4 0.4
v 1.2 9.6 0.4
v 1.2 11.6 0.4
v 1.2 12.8 0.4
v 1.2 14.8 0.4
v 1.2 16 0.4
v 1.6 2 0.4
v 1.6 3.2 0.4
v 1.6 5.2 0.4
v 1.6 6.4 0.4
v 1.6 8.4 0.4
v 1.6 9.6 0.4
v 1.6 11.6 0.4
v 1.6 12.8 0.4
v 1.6 14.8 0.4
v 1.6 16 0.4
v 2.8 0.4 0.4
v 2.8 1.6 0.4
v 2.8 3.6 0.4
v 2.8 4.8 0.4
v 2.8 6.8 0.4
v 2.8 8 0.4
v 2.8 10 0.4
v 2.8 11.2 0.4
v 2.8 13.2 0.4
v 2.8 14.4 0.4
v 3.2 0.4 0.4
v 3.2 1.6 0.4
v 3.2 3.6 0.4
v 3.2 4.8 0.4
v 3.2 6.8 0.4
v 3.2 8 0.4
v 3.2 10 0.4
v 3.2 11.2 0.4
v 3.2 13.2 0.4
v 3.2 14.4 0.4
v 4.4 2 0.4
v 4.4 3.2 0.4
v 4.4 5.2 0.4
v 4.4 6.4 0.4
v 4.4 8.4 0.4
v 4.4 9.6 0.4
v 4.4 11.6 0.4
v 4.4 12.8 0.4
v 4.4 14.8 0.4
v 4.4 16 0.4
v 4.8 2 0.4
v 4.8 3.2 0.4
v 4.8 5.2 0.4
v 4.8 6.4 0.4
v 4.8 8.4 0.4
v 4.8 9.6 0.4
v 4.8 11.6 0.4
v 4.8 12.8 0.4
v 4.8 14.8 0.4
v 4.8 16 0.4
v 6 0.4 0.4
v 6 1.6 0.4
v 6 3.6 0.4
v 6 4.8 0.4
v 6 6.8 0.4
v 6 8 0.4
v 6 10 0.4
v 6 11.2 0.4
v 6 13.2 0.4
v 6 14.4 0.4
v 6.4 0.4 0.4
v 6.4 1.6 0.4
v 6.4 3.6 0.4
v 6.4 4.8 0.4
v 6.4 6.8 0.4
v 6.4 8 0.4
v 6.4 10 0.4
v 6.4 11.2 0.4
v 6.4 13.2 0.4
v 6.4 14.4 0.4
v 7.6 2 0.4
v 7.6 3.2 0.4
v 7.6 5.2 0.4
v 7.6 6.4 0.4
v 7.6 8.4 0.4
v 7.6 9.6 0.4
v 7.6 11.6 0.4
v 7.6 12.8 0.4
v 7.6 14.8 0.4
v 7.6 16 0.4
v 8 0 0.4
v 8 0.4 0.4
v 8 1.6 0.4
v 8 3.6 0.4
v 8 4.8 0.4
v 8 6.8 0.4
v 8 8 0.4
v 8 10 0.4
v 8 11.2 0.4
v 8 13.2 0.4
v 8 14.4 0.4
v 8 16 0.4
v -8 0 0
v -8 16 0
v 8 0 0
v 8 16 0
v -8 0 0.4
v 8 0 0.4
v -8 0 0.1
v 8 0 0.1
v -8 0 0
v 8 0 0
v -8 16 0.4
v -5.2 16 0.4
v -4.8 16 0.4
v -2 16 0.4
v -1.6 16 0.4
v 1.2 16 0.4
v 1.6 16 0.4
v 4.4 16 0.4
v 4.8 16 0.4
v 7.6 16 0.4
v 8 16 0.4
v -5.2 16 0.1
v -4.8 16 0.1
v -2 16 0.1
v -1.6 16 0.1
v 1.2 16 0.1
v 1.6 16 0.1
v 4.4 16 0.1
v 4.8 16 0.1
v 7.6 16 0.1
v 8 16 0.1
v -8 16 0
v 8 16 0

# faces
f 4/2/1 2/2/1 1/2/1
f 5/1/1 3/1/1 2/1/1
f 5/2/1 2/2/1 4/2/1
f 6/1/1 5/1/1 4/1/1
f 7/1/1 3/1/1 5/1/1
f 7/1/1 5/1/1 6/1/1
f 8/2/1 7/2/1 6/2/1
f 9/1/1 3/1/1 7/1/1
f 9/2/1 7/2/1 8/2/1
f 10/1/1 9/1/1 8/1/1
f 11/1/1 3/1/1 9/1/1
f 11/1/1 9/1/1 10/1/1
f 12/2/1 11/2/1 10/2/1
f 13/1/1 3/1/1 11/1/1
f 13/2/1 11/2/1 12/2/1
f 14/1/1 13/1/1 12/1/1
f 15/1/1 3/1/1 13/1/1
f 15/1/1 13/1/1 14/1/1
f 16/2/1 15/2/1 14/2/1
f 17/1/1 3/1/1 15/1/1
f 17/2/1 15/2/1 16/2/1
f 18/1/1 17/1/1 16/1/1
f 19/1/1 3/1/1 17/1/1
f 19/1/1 17/1/1 18/1/1
f 20/2/1 19/2/1 18/2/1
f 21/1/1 3/1/1 19/1/1
f 21/2/1 19/2/1 20/2/1
f 22/1/1 21/1/1 20/1/1
f 23/1/1 3/1/1 21/1/1
f 23/1/1 21/1/1 22/1/1
f 24/2/1 23/2/1 22/2/1
f 25/1/1 3/1/1 23/1/1
f 25/2/1 23/2/1 24/2/1
f 26/1/1 25/1/1 24/1/1
f 27/1/1 3/1/1 25/1/1
f 27/1/1 25/1/1 26/1/1
f 28/2/1 27/2/1 26/2/1
f 29/1/1 3/1/1 27/1/1
f 29/2/1 27/2/1 28/2/1
f 30/1/1 29/1/1 28/1/1
f 31/1/1 3/1/1 29/1/1
f 31/1/1 29/1/1 30/1/1
f 32/2/1 31/2/1 30/2/1
f 33/1/1 3/1/1 31/1/1
f 33/2/1 31/2/1 32/2/1
f 34/1/1 33/1/1 32/1/1
f 35/1/1 3/1/1 33/1/1
f 35/1/1 33/1/1 34/1/1
f 36/2/1 35/2/1 34/2/1
f 37/1/1 3/1/1 35/1/1
f 37/2/1 35/2/1 36/2/1
f 38/1/1 37/1/1 36/1/1
f 39/1/1 3/1/1 37/1/1
f 39/1/1 37/1/1 38/1/1
f 40/2/1 39/2/1 38/2/1
f 41/1/1 3/1/1 39/1/1
f 41/2/1 39/2/1 40/2/1
f 42/1/1 41/1/1 40/1/1
f 43/1/1 3/1/1 41/1/1
f 43/1/1 41/1/1 42/1/1
f 44/2/2 45/2/2 47/2/2
f 45/1/2 46/1/2 48/1/2
f 47/2/2 45/2/2 48/2/2
f 47/1/2 48/1/2 49/1/2
f 48/1/2 46/1/2 50/1/2
f 49/1/2 48/1/2 50/1/2
f 49/2/2 50/2/2 51/2/2
f 50/1/2 46/1/2 52/1/2
f 51/2/2 50/2/2 52/2/2
f 51/1/2 52/1/2 53/1/2
f 52/1/2 46/1/2 54/1/2
f 53/1/2 52/1/2 54/1/2
f 53/2/2 54/2/2 55/2/2
f 54/1/2 46/1/2 56/1/2
f 55/2/2 54/2/2 56/2/2
f 55/1/2 56/1/2 57/1/2
f 56/1/2 46/1/2 58/1/2
f 57/1/2 56/1/2 58/1/2
f 57/2/2 58/2/2 59/2/2
f 58/1/2 46/1/2 60/1/2
f 59/2/2 58/2/2 60/2/2
f 59/1/2 60/1/2 61/1/2
f 60/1/2 46/1/2 62/1/2
f 61/1/2 60/1/2 62/1/2
f 61/2/2 62/2/2 63/2/2
f 62/1/2 46/1/2 64/1/2
f 63/2/2 62/2/2 64/2/2
f 63/1/2 64/1/2 65/1/2
f 64/1/2 46/1/2 66/1/2
f 65/1/2 64/1/2 66/1/2
f 65/2/2 66/2/2 67/2/2
f 66/1/2 46/1/2 68/1/2
f 67/2/2 66/2/2 68/2/2
f 68/1/2 46/1/2 69/1/2
f 91/2/3 71/2/3 70/2/3
f 91/1/3 72/1/3 71/1/3
f 92/2/3 73/2/3 72/2/3
f 92/1/3 72/1/3 91/1/3
f 93/2/3 75/2/3 74/2/3
f 93/1/3 76/1/3 75/1/3
f 94/2/3 77/2/3 76/2/3
f 94/1/3 76/1/3 93/1/3
f 95/2/3 91/2/3 70/2/3
f 95/2/3 92/2/3 91/2/3
f 96/2/3 73/2/3 92/2/3
f 96/2/3 92/2/3 95/2/3
f 97/2/3 94/2/3 93/2/3
f 97/2/3 93/2/3 74/2/3
f 98/2/3 77/2/3 94/2/3
f 98/2/3 94/2/3 97/2/3
f 99/2/3 79/2/3 78/2/3
f 99/1/3 80/1/3 79/1/3
f 100/2/3 81/2/3 80/2/3
f 100/1/3 80/1/3 99/1/3
f 101/2/3 83/2/3 82/2/3
f 101/1/3 84/1/3 83/1/3
f 102/2/3 85/2/3 84/2/3
f 102/1/3 84/1/3 101/1/3
f 103/2/3 87/2/3 86/2/3
f 103/1/3 88/1/3 87/1/3
f 104/2/3 89/2/3 88/2/3
f 104/1/3 88/1/3 103/1/3
f 105/2/3 99/2/3 78/2/3
f 105/2/3 100/2/3 99/2/3
f 106/2/3 81/2/3 100/2/3
f 106/2/3 100/2/3 105/2/3
f 107/2/3 101/2/3 82/2/3
f 107/2/3 102/2/3 101/2/3
f 108/2/3 85/2/3 102/2/3
f 108/2/3 102/2/3 107/2/3
f 109/2/3 103/2/3 86/2/3
f 109/2/3 104/2/3 103/2/3
f 110/2/3 89/2/3 104/2/3
f 110/2/3 104/2/3 109/2/3
f 111/1/3 74/1/3 73/1/3
f 111/2/3 73/2/3 96/2/3
f 112/2/3 97/2/3 74/2/3
f 112/1/3 74/1/3 111/1/3
f 113/1/3 78/1/3 77/1/3
f 113/2/3 77/2/3 98/2/3
f 114/2/3 105/2/3 78/2/3
f 114/1/3 78/1/3 113/1/3
f 115/1/3 82/1/3 81/1/3
f 115/2/3 81/2/3 106/2/3
f 116/2/3 107/2/3 82/2/3
f 116/1/3 82/1/3 115/1/3
f 117/2/3 85/2/3 108/2/3
f 117/1/3 86/1/3 85/1/3
f 118/2/3 109/2/3 86/2/3
f 118/1/3 86/1/3 117/1/3
f 119/1/3 90/1/3 89/1/3
f 119/2/3 89/2/3 110/2/3
f 120/1/3 90/1/3 119/1/3
f 121/2/3 111/2/3 96/2/3
f 121/2/3 112/2/3 111/2/3
f 122/2/3 97/2/3 112/2/3
f 122/2/3 112/2/3 121/2/3
f 123/2/3 113/2/3 98/2/3
f 123/2/3 114/2/3 113/2/3
f 124/2/3 105/2/3 114/2/3
f 124/2/3 114/2/3 123/2/3
f 125/2/3 116/2/3 115/2/3
f 125/2/3 115/2/3 106/2/3
f 126/2/3 107/2/3 116/2/3
f 126/2/3 116/2/3 125/2/3
f 127/2/3 118/2/3 117/2/3
f 127/2/3 117/2/3 108/2/3
f 128/2/3 109/2/3 118/2/3
f 128/2/3 118/2/3 127/2/3
f 129/2/3 120/2/3 119/2/3
f 129/2/3 119/2/3 110/2/3
f 130/2/3 120/2/3 129/2/3
f 131/2/3 95/2/3 70/2/3
f 131/1/3 96/1/3 95/1/3
f 132/2/3 121/2/3 96/2/3
f 132/1/3 96/1/3 131/1/3
f 133/1/3 98/1/3 97/1/3
f 133/2/3 97/2/3 122/2/3
f 134/2/3 123/2/3 98/2/3
f 134/1/3 98/1/3 133/1/3
f 135/2/3 105/2/3 124/2/3
f 135/1/3 106/1/3 105/1/3
f 136/2/3 125/2/3 106/2/3
f 136/1/3 106/1/3 135/1/3
f 137/2/3 107/2/3 126/2/3
f 137/1/3 108/1/3 107/1/3
f 138/2/3 127/2/3 108/2/3
f 138/1/3 108/1/3 137/1/3
f 139/1/3 110/1/3 109/1/3
f 139/2/3 109/2/3 128/2/3
f 140/2/3 129/2/3 110/2/3
f 140/1/3 110/1/3 139/1/3
f 141/2/3 131/2/3 70/2/3
f 141/2/3 132/2/3 131/2/3
f 142/2/3 121/2/3 132/2/3
f 142/2/3 132/2/3 141/2/3
f 143/2/3 133/2/3 122/2/3
f 143/2/3 134/2/3 133/2/3
f 144/2/3 123/2/3 134/2/3
f 144/2/3 134/2/3 143/2/3
f 145/2/3 135/2/3 124/2/3
f 145/2/3 136/2/3 135/2/3
f 146/2/3 125/2/3 136/2/3
f 146/2/3 136/2/3 145/2/3
f 147/2/3 137/2/3 126/2/3
f 147/2/3 138/2/3 137/2/3
f 148/2/3 127/2/3 138/2/3
f 148/2/3 138/2/3 147/2/3
f 149/2/3 140/2/3 139/2/3
f 149/2/3 139/2/3 128/2/3
f 150/2/3 129/2/3 140/2/3
f 150/2/3 140/2/3 149/2/3
f 151/2/3 121/2/3 142/2/3
f 151/1/3 122/1/3 121/1/3
f 152/2/3 143/2/3 122/2/3
f 152/1/3 122/1/3 151/1/3
f 153/2/3 123/2/3 144/2/3
f 153/1/3 124/1/3 123/1/3
f 154/2/3 145/2/3 124/2/3
f 154/1/3 124/1/3 153/1/3
f 155/2/3 125/2/3 146/2/3
f 155/1/3 126/1/3 125/1/3
f 156/2/3 147/2/3 126/2/3
f 156/1/3 126/1/3 155/1/3
f 157/2/3 127/2/3 148/2/3
f 157/1/3 128/1/3 127/1/3
f 158/2/3 149/2/3 128/2/3
f 158/1/3 128/1/3 157/1/3
f 159/1/3 130/1/3 129/1/3
f 159/2/3 129/2/3 150/2/3
f 160/1/3 130/1/3 159/1/3
f 161/2/3 151/2/3 142/2/3
f 161/2/3 152/2/3 151/2/3
f 162/2/3 143/2/3 152/2/3
f 162/2/3 152/2/3 161/2/3
f 163/2/3 153/2/3 144/2/3
f 163/2/3 154/2/3 153/2/3
f 164/2/3 145/2/3 154/2/3
f 164/2/3 154/2/3 163/2/3
f 165/2/3 155/2/3 146/2/3
f 165/2/3 156/2/3 155/2/3
f 166/2/3 147/2/3 156/2/3
f 166/2/3 156/2/3 165/2/3
f 167/2/3 157/2/3 148/2/3
f 167/2/3 158/2/3 157/2/3
f 168/2/3 149/2/3 158/2/3
f 168/2/3 158/2/3 167/2/3
f 169/2/3 160/2/3 159/2/3
f 169/2/3 159/2/3 150/2/3
f 170/2/3 160/2/3 169/2/3
f 171/2/3 141/2/3 70/2/3
f 171/1/3 142/1/3 141/1/3
f 172/2/3 161/2/3 142/2/3
f 172/1/3 142/1/3 171/1/3
f 173/2/3 143/2/3 162/2/3
f 173/1/3 144/1/3 143/1/3
f 174/2/3 163/2/3 144/2/3
f 174/1/3 144/1/3 173/1/3
f 175/2/3 145/2/3 164/2/3
f 175/1/3 146/1/3 145/1/3
f 176/2/3 165/2/3 146/2/3
f 176/1/3 146/1/3 175/1/3
f 177/2/3 147/2/3 166/2/3
f 177/1/3 148/1/3 147/1/3
f 178/2/3 167/2/3 148/2/3
f 178/1/3 148/1/3 177/1/3
f 179/1/3 150/1/3 149/1/3
f 179/2/3 149/2/3 168/2/3
f 180/2/3 169/2/3 150/2/3
f 180/1/3 150/1/3 179/1/3
f 181/2/3 171/2/3 70/2/3
f 181/2/3 172/2/3 171/2/3
f 182/2/3 161/2/3 172/2/3
f 182/2/3 172/2/3 181/2/3
f 183/2/3 173/2/3 162/2/3
f 183/2/3 174/2/3 173/2/3
f 184/2/3 163/2/3 174/2/3
f 184/2/3 174/2/3 183/2/3
f 185/2/3 175/2/3 164/2/3
f 185/2/3 176/2/3 175/2/3
f 186/2/3 165/2/3 176/2/3
f 186/2/3 176/2/3 185/2/3
f 187/2/3 177/2/3 166/2/3
f 187/2/3 178/2/3 177/2/3
f 188/2/3 167/2/3 178/2/3
f 188/2/3 178/2/3 187/2/3
f 189/2/3 180/2/3 179/2/3
f 189/2/3 179/2/3 168/2/3
f 190/2/3 169/2/3 180/2/3
f 190/2/3 180/2/3 189/2/3
f 191/2/3 161/2/3 182/2/3
f 191/1/3 162/1/3 161/1/3
f 192/2/3 183/2/3 162/2/3
f 192/1/3 162/1/3 191/1/3
f 193/2/3 163/2/3 184/2/3
f 193/1/3 164/1/3 163/1/3
f 194/2/3 185/2/3 164/2/3
f 194/1/3 164/1/3 193/1/3
f 195/2/3 165/2/3 186/2/3
f 195/1/3 166/1/3 165/1/3
f 196/2/3 187/2/3 166/2/3
f 196/1/3 166/1/3 195/1/3
f 197/2/3 167/2/3 188/2/3
f 197/1/3 168/1/3 167/1/3
f 198/2/3 189/2/3 168/2/3
f 198/1/3 168/1/3 197/1/3
f 199/2/3 169/2/3 190/2/3
f 199/1/3 170/1/3 169/1/3
f 200/1/3 170/1/3 199/1/3
f 201/2/3 191/2/3 182/2/3
f 201/2/3 192/2/3 191/2/3
f 202/2/3 183/2/3 192/2/3
f 202/2/3 192/2/3 201/2/3
f 203/2/3 193/2/3 184/2/3
f 203/2/3 194/2/3 193/2/3
f 204/2/3 185/2/3 194/2/3
f 204/2/3 194/2/3 203/2/3
f 205/2/3 195/2/3 186/2/3
f 205/2/3 196/2/3 195/2/3
f 206/2/3 187/2/3 196/2/3
f 206/2/3 196/2/3 205/2/3
f 207/2/3 197/2/3 188/2/3
f 207/2/3 198/2/3 197/2/3
f 208/2/3 189/2/3 198/2/3
f 208/2/3 198/2/3 207/2/3
f 209/2/3 200/2/3 199/2/3
f 209/2/3 199/2/3 190/2/3
f 210/2/3 200/2/3 209/2/3
f 211/2/3 181/2/3 70/2/3
f 211/1/3 182/1/3 181/1/3
f 212/2/3 201/2/3 182/2/3
f 212/1/3 182/1/3 211/1/3
f 213/2/3 183/2/3 202/2/3
f 213/1/3 184/1/3 183/1/3
f 214/2/3 203/2/3 184/2/3
f 214/1/3 184/1/3 213/1/3
f 215/2/3 185/2/3 204/2/3
f 215/1/3 186/1/3 185/1/3
f 216/2/3 205/2/3 186/2/3
f 216/1/3 186/1/3 215/1/3
f 217/2/3 187/2/3 206/2/3
f 217/1/3 188/1/3 187/1/3
f 218/2/3 207/2/3 188/2/3
f 218/1/3 188/1/3 217/1/3
f 219/1/3 190/1/3 189/1/3
f 219/2/3 189/2/3 208/2/3
f 220/2/3 209/2/3 190/2/3
f 220/1/3 190/1/3 219/1/3
f 221/2/3 211/2/3 70/2/3
f 221/2/3 212/2/3 211/2/3
f 222/2/3 201/2/3 212/2/3
f 222/2/3 212/2/3 221/2/3
f 223/2/3 213/2/3 202/2/3
f 223/2/3 214/2/3 213/2/3
f 224/2/3 203/2/3 214/2/3
f 224/2/3 214/2/3 223/2/3
f 225/2/3 215/2/3 204/2/3
f 225/2/3 216/2/3 215/2/3
f 226/2/3 205/2/3 216/2/3
f 226/2/3 216/2/3 225/2/3
f 227/2/3 217/2/3 206/2/3
f 227/2/3 218/2/3 217/2/3
f 228/2/3 207/2/3 218/2/3
f 228/2/3 218/2/3 227/2/3
f 229/2/3 220/2/3 219/2/3
f 229/2/3 219/2/3 208/2/3
f 230/2/3 209/2/3 220/2/3
f 230/2/3 220/2/3 229/2/3
f 231/2/3 201/2/3 222/2/3
f 231/1/3 202/1/3 201/1/3
f 232/2/3 223/2/3 202/2/3
f 232/1/3 202/1/3 231/1/3
f 233/2/3 203/2/3 224/2/3
f 233/1/3 204/1/3 203/1/3
f 234/2/3 225/2/3 204/2/3
f 234/1/3 204/1/3 233/1/3
f 235/2/3 205/2/3 226/2/3
f 235/1/3 206/1/3 205/1/3
f 236/2/3 227/2/3 206/2/3
f 236/1/3 206/1/3 235/1/3
f 237/2/3 207/2/3 228/2/3
f 237/1/3 208/1/3 207/1/3
f 238/2/3 229/2/3 208/2/3
f 238/1/3 208/1/3 237/1/3
f 239/2/3 209/2/3 230/2/3
f 239/1/3 210/1/3 209/1/3
f 240/1/3 210/1/3 239/1/3
f 241/2/3 231/2/3 222/2/3
f 241/2/3 232/2/3 231/2/3
f 242/2/3 223/2/3 232/2/3
f 242/2/3 232/2/3 241/2/3
f 243/2/3 233/2/3 224/2/3
f 243/2/3 234/2/3 233/2/3
f 244/2/3 225/2/3 234/2/3
f 244/2/3 234/2/3 243/2/3
f 245/2/3 235/2/3 226/2/3
f 245/2/3 236/2/3 235/2/3
f 246/2/3 227/2/3 236/2/3
f 246/2/3 236/2/3 245/2/3
f 247/2/3 238/2/3 237/2/3
f 247/2/3 237/2/3 228/2/3
f 248/2/3 229/2/3 238/2/3
f 248/2/3 238/2/3 247/2/3
f 249/2/3 240/2/3 239/2/3
f 249/2/3 239/2/3 230/2/3
f 250/2/3 240/2/3 249/2/3
f 251/2/3 221/2/3 70/2/3
f 251/1/3 222/1/3 221/1/3
f 252/2/3 241/2/3 222/2/3
f 252/1/3 222/1/3 251/1/3
f 253/2/3 223/2/3 242/2/3
f 253/1/3 224/1/3 223/1/3
f 254/2/3 243/2/3 224/2/3
f 254/1/3 224/1/3 253/1/3
f 255/2/3 225/2/3 244/2/3
f 255/1/3 226/1/3 225/1/3
f 256/2/3 245/2/3 226/2/3
f 256/1/3 226/1/3 255/1/3
f 257/2/3 227/2/3 246/2/3
f 257/1/3 228/1/3 227/1/3
f 258/2/3 247/2/3 228/2/3
f 258/1/3 228/1/3 257/1/3
f 259/1/3 230/1/3 229/1/3
f 259/2/3 229/2/3 248/2/3
f 260/2/3 249/2/3 230/2/3
f 260/1/3 230/1/3 259/1/3
f 261/2/3 251/2/3 70/2/3
f 261/2/3 252/2/3 251/2/3
f 262/2/3 241/2/3 252/2/3
f 262/2/3 252/2/3 261/2/3
f 263/2/3 253/2/3 242/2/3
f 263/2/3 254/2/3 253/2/3
f 264/2/3 243/2/3 254/2/3
f 264/2/3 254/2/3 263/2/3
f 265/2/3 255/2/3 244/2/3
f 265/2/3 256/2/3 255/2/3
f 266/2/3 245/2/3 256/2/3
f 266/2/3 256/2/3 265/2/3
f 267/2/3 257/2/3 246/2/3
f 267/2/3 258/2/3 257/2/3
f 268/2/3 247/2/3 258/2/3
f 268/2/3 258/2/3 267/2/3
f 269/2/3 260/2/3 259/2/3
f 269/2/3 259/2/3 248/2/3
f 270/2/3 249/2/3 260/2/3
f 270/2/3 260/2/3 269/2/3
f 271/2/3 241/2/3 262/2/3
f 271/1/3 242/1/3 241/1/3
f 272/2/3 263/2/3 242/2/3
f 272/1/3 242/1/3 271/1/3
f 273/2/3 243/2/3 264/2/3
f 273/1/3 244/1/3 243/1/3
f 274/2/3 265/2/3 244/2/3
f 274/1/3 244/1/3 273/1/3
f 275/2/3 245/2/3 266/2/3
f 275/1/3 246/1/3 245/1/3
f 276/2/3 267/2/3 246/2/3
f 276/1/3 246/1/3 275/1/3
f 277/2/3 247/2/3 268/2/3
f 277/1/3 248/1/3 247/1/3
f 278/2/3 269/2/3 248/2/3
f 278/1/3 248/1/3 277/1/3
f 279/2/3 249/2/3 270/2/3
f 279/1/3 250/1/3 249/1/3
f 280/1/3 250/1/3 279/1/3
f 281/2/3 261/2/3 70/2/3
f 282/1/3 262/1/3 261/1/3
f 282/2/3 261/2/3 281/2/3
f 283/2/3 271/2/3 262/2/3
f 283/1/3 262/1/3 282/1/3
f 283/2/3 272/2/3 271/2/3
f 284/2/3 263/2/3 272/2/3
f 284/2/3 272/2/3 283/2/3
f 284/1/3 264/1/3 263/1/3
f 285/2/3 273/2/3 264/2/3
f 285/1/3 264/1/3 284/1/3
f 285/2/3 274/2/3 273/2/3
f 286/2/3 265/2/3 274/2/3
f 286/2/3 274/2/3 285/2/3
f 286/1/3 266/1/3 265/1/3
f 287/2/3 275/2/3 266/2/3
f 287/1/3 266/1/3 286/1/3
f 287/2/3 276/2/3 275/2/3
f 288/1/3 268/1/3 267/1/3
f 288/2/3 276/2/3 287/2/3
f 288/2/3 267/2/3 276/2/3
f 289/2/3 277/2/3 268/2/3
f 289/1/3 268/1/3 288/1/3
f 289/2/3 278/2/3 277/2/3
f 290/2/3 269/2/3 278/2/3
f 290/2/3 278/2/3 289/2/3
f 290/1/3 270/1/3 269/1/3
f 291/2/3 280/2/3 279/2/3
f 291/1/3 270/1/3 290/1/3
f 291/2/3 279/2/3 270/2/3
f 292/2/3 280/2/3 291/2/3
f 293/1/4 294/1/4 295/1/4
f 295/1/4 294/1/4 296/1/4
f 299/2/5 298/2/5 297/2/5
f 300/2/5 298/2/5 299/2/5
f 301/1/5 300/1/5 299/1/5
f 302/1/5 300/1/5 301/1/5
f 303/1/6 304/1/6 314/1/6
f 304/2/6 305/2/6 314/2/6
f 305/1/6 306/1/6 315/1/6
f 314/2/6 305/2/6 315/2/6
f 306/2/6 307/2/6 316/2/6
f 315/1/6 306/1/6 316/1/6
f 307/1/6 308/1/6 317/1/6
f 316/2/6 307/2/6 317/2/6
f 308/2/6 309/2/6 318/2/6
f 317/1/6 308/1/6 318/1/6
f 309/1/6 310/1/6 319/1/6
f 318/2/6 309/2/6 319/2/6
f 310/2/6 311/2/6 320/2/6
f 319/1/6 310/1/6 320/1/6
f 311/1/6 312/1/6 321/1/6
f 320/2/6 311/2/6 321/2/6
f 312/2/6 313/2/6 322/2/6
f 321/1/6 312/1/6 322/1/6
f 322/2/6 313/2/6 323/2/6
f 320/1/6 321/1/6 324/1/6
f 319/1/6 320/1/6 324/1/6
f 322/1/6 323/1/6 324/1/6
f 321/1/6 322/1/6 324/1/6
f 318/1/6 319/1/6 324/1/6
f 317/1/6 318/1/6 324/1/6
f 316/1/6 317/1/6 324/1/6
f 315/1/6 316/1/6 324/1/6
f 314/1/6 315/1/6 324/1/6
f 303/1/6 314/1/6 324/1/6
f 324/1/6 323/1/6 325/1/6
