# MagicaVoxel @ Ephtracy

# group
o lod2

# material
mtllib wallWithWindow3-1-lod2.mtl
usemtl palette

# normals
vn -1 0 0
vn 1 0 0
vn 0 0 1
vn 0 0 -1
vn 0 -1 0
vn 0 1 0

# texcoords
vt 0.0917969 0.5
vt 0.423828 0.5
vt 0.962891 0.5
vt 0.978516 0.5

# verts
v -8 0 0.4
v -8 0 -0.4
v -8 16 0.4
v -8 16 -0.4
v 8 0 0.4
v 8 0 -0.4
v 8 16 0.4
v 8 16 -0.4
v -8 0 0.4
v -8 16 0.4
v -7.9 0.8 0.4
v -7.9 1.2 0.4
v -7.9 2.4 0.4
v -7.9 2.8 0.4
v -7.9 4 0.4
v -7.9 4.4 0.4
v -7.9 5.6 0.4
v -7.9 6 0.4
v -7.9 7.2 0.4
v -7.9 7.6 0.4
v -7.9 8.8 0.4
v -7.9 9.2 0.4
v -7.9 10.4 0.4
v -7.9 10.8 0.4
v -7.9 12 0.4
v -7.9 12.4 0.4
v -7.9 13.6 0.4
v -7.9 14 0.4
v -7.9 15.2 0.4
v -7.9 15.6 0.4
v -3.3 4.7 0.4
v -3.3 5.6 0.4
v -3.3 6 0.4
v -3.3 7.2 0.4
v -3.3 7.6 0.4
v -3.3 8.8 0.4
v -3.3 9.2 0.4
v -3.3 10.4 0.4
v -3.3 10.8 0.4
v -3.3 12 0.4
v -3.3 12.4 0.4
v -3.3 12.9 0.4
v -3.1 5 0.4
v -3.1 12.6 0.4
v 3.5 5 0.4
v 3.5 12.6 0.4
v 3.7 4.7 0.4
v 3.7 5.6 0.4
v 3.7 6 0.4
v 3.7 7.2 0.4
v 3.7 7.6 0.4
v 3.7 8.8 0.4
v 3.7 9.2 0.4
v 3.7 10.4 0.4
v 3.7 10.8 0.4
v 3.7 12 0.4
v 3.7 12.4 0.4
v 3.7 12.9 0.4
v 7.9 0.8 0.4
v 7.9 1.2 0.4
v 7.9 2.4 0.4
v 7.9 2.8 0.4
v 7.9 4 0.4
v 7.9 4.4 0.4
v 7.9 5.6 0.4
v 7.9 6 0.4
v 7.9 7.2 0.4
v 7.9 7.6 0.4
v 7.9 8.8 0.4
v 7.9 9.2 0.4
v 7.9 10.4 0.4
v 7.9 10.8 0.4
v 7.9 12 0.4
v 7.9 12.4 0.4
v 7.9 13.6 0.4
v 7.9 14 0.4
v 7.9 15.2 0.4
v 7.9 15.6 0.4
v 8 0 0.4
v 8 16 0.4
v -8 0 -0.4
v -8 16 -0.4
v 8 0 -0.4
v 8 16 -0.4
v -8 0 0.4
v 8 0 0.4
v -8 0 -0.4
v 8 0 -0.4
v -8 16 0.4
v 8 16 0.4
v -8 16 -0.4
v 8 16 -0.4

# faces
f 3/1/1 2/1/1 1/1/1
f 4/1/1 2/1/1 3/1/1
f 5/1/2 6/1/2 7/1/2
f 7/1/2 6/1/2 8/1/2
f 11/1/3 10/1/3 9/1/3
f 12/1/3 10/1/3 11/1/3
f 13/1/3 10/1/3 12/1/3
f 14/1/3 10/1/3 13/1/3
f 15/1/3 10/1/3 14/1/3
f 16/1/3 10/1/3 15/1/3
f 17/1/3 10/1/3 16/1/3
f 18/1/3 10/1/3 17/1/3
f 19/1/3 10/1/3 18/1/3
f 20/1/3 10/1/3 19/1/3
f 21/1/3 10/1/3 20/1/3
f 22/1/3 10/1/3 21/1/3
f 23/1/3 10/1/3 22/1/3
f 24/1/3 10/1/3 23/1/3
f 25/1/3 10/1/3 24/1/3
f 26/1/3 10/1/3 25/1/3
f 27/1/3 10/1/3 26/1/3
f 28/1/3 10/1/3 27/1/3
f 29/1/3 10/1/3 28/1/3
f 30/1/3 10/1/3 29/1/3
f 31/1/3 17/1/3 16/1/3
f 32/4/3 18/4/3 17/4/3
f 32/1/3 17/1/3 31/1/3
f 33/1/3 19/1/3 18/1/3
f 33/4/3 18/4/3 32/4/3
f 34/4/3 20/4/3 19/4/3
f 34/1/3 19/1/3 33/1/3
f 35/1/3 21/1/3 20/1/3
f 35/4/3 20/4/3 34/4/3
f 36/4/3 22/4/3 21/4/3
f 36/1/3 21/1/3 35/1/3
f 37/1/3 23/1/3 22/1/3
f 37/4/3 22/4/3 36/4/3
f 38/4/3 24/4/3 23/4/3
f 38/1/3 23/1/3 37/1/3
f 39/1/3 25/1/3 24/1/3
f 39/4/3 24/4/3 38/4/3
f 40/4/3 26/4/3 25/4/3
f 40/1/3 25/1/3 39/1/3
f 41/1/3 27/1/3 26/1/3
f 41/4/3 26/4/3 40/4/3
f 42/1/3 27/1/3 41/1/3
f 43/3/3 32/3/3 31/3/3
f 43/3/3 33/3/3 32/3/3
f 43/3/3 42/3/3 41/3/3
f 43/3/3 41/3/3 40/3/3
f 43/3/3 34/3/3 33/3/3
f 43/3/3 35/3/3 34/3/3
f 43/3/3 36/3/3 35/3/3
f 43/3/3 40/3/3 39/3/3
f 43/3/3 39/3/3 38/3/3
f 43/3/3 38/3/3 37/3/3
f 43/3/3 37/3/3 36/3/3
f 44/3/3 42/3/3 43/3/3
f 45/3/3 43/3/3 31/3/3
f 45/2/3 44/2/3 43/2/3
f 46/3/3 42/3/3 44/3/3
f 46/2/3 44/2/3 45/2/3
f 47/1/3 31/1/3 16/1/3
f 47/3/3 45/3/3 31/3/3
f 47/3/3 46/3/3 45/3/3
f 48/3/3 46/3/3 47/3/3
f 49/3/3 46/3/3 48/3/3
f 50/3/3 46/3/3 49/3/3
f 51/3/3 46/3/3 50/3/3
f 52/3/3 46/3/3 51/3/3
f 53/3/3 46/3/3 52/3/3
f 54/3/3 46/3/3 53/3/3
f 55/3/3 46/3/3 54/3/3
f 56/3/3 46/3/3 55/3/3
f 57/3/3 46/3/3 56/3/3
f 58/3/3 42/3/3 46/3/3
f 58/3/3 46/3/3 57/3/3
f 58/1/3 27/1/3 42/1/3
f 59/1/3 11/1/3 9/1/3
f 59/4/3 12/4/3 11/4/3
f 60/1/3 13/1/3 12/1/3
f 60/4/3 12/4/3 59/4/3
f 61/4/3 14/4/3 13/4/3
f 61/1/3 13/1/3 60/1/3
f 62/1/3 15/1/3 14/1/3
f 62/4/3 14/4/3 61/4/3
f 63/4/3 16/4/3 15/4/3
f 63/1/3 15/1/3 62/1/3
f 64/1/3 47/1/3 16/1/3
f 64/4/3 16/4/3 63/4/3
f 64/1/3 48/1/3 47/1/3
f 65/4/3 49/4/3 48/4/3
f 65/1/3 48/1/3 64/1/3
f 66/1/3 50/1/3 49/1/3
f 66/4/3 49/4/3 65/4/3
f 67/4/3 51/4/3 50/4/3
f 67/1/3 50/1/3 66/1/3
f 68/1/3 52/1/3 51/1/3
f 68/4/3 51/4/3 67/4/3
f 69/4/3 53/4/3 52/4/3
f 69/1/3 52/1/3 68/1/3
f 70/1/3 54/1/3 53/1/3
f 70/4/3 53/4/3 69/4/3
f 71/4/3 55/4/3 54/4/3
f 71/1/3 54/1/3 70/1/3
f 72/1/3 56/1/3 55/1/3
f 72/4/3 55/4/3 71/4/3
f 73/4/3 57/4/3 56/4/3
f 73/1/3 56/1/3 72/1/3
f 74/1/3 58/1/3 57/1/3
f 74/4/3 57/4/3 73/4/3
f 75/1/3 27/1/3 58/1/3
f 75/1/3 58/1/3 74/1/3
f 75/4/3 28/4/3 27/4/3
f 76/1/3 29/1/3 28/1/3
f 76/4/3 28/4/3 75/4/3
f 77/4/3 30/4/3 29/4/3
f 77/1/3 29/1/3 76/1/3
f 78/1/3 10/1/3 30/1/3
f 78/4/3 30/4/3 77/4/3
f 79/1/3 74/1/3 73/1/3
f 79/1/3 73/1/3 72/1/3
f 79/1/3 78/1/3 77/1/3
f 79/1/3 68/1/3 67/1/3
f 79/1/3 67/1/3 66/1/3
f 79/1/3 66/1/3 65/1/3
f 79/1/3 65/1/3 64/1/3
f 79/1/3 64/1/3 63/1/3
f 79/1/3 70/1/3 69/1/3
f 79/1/3 63/1/3 62/1/3
f 79/1/3 69/1/3 68/1/3
f 79/1/3 75/1/3 74/1/3
f 79/1/3 76/1/3 75/1/3
f 79/1/3 71/1/3 70/1/3
f 79/1/3 72/1/3 71/1/3
f 79/1/3 77/1/3 76/1/3
f 79/1/3 62/1/3 61/1/3
f 79/1/3 61/1/3 60/1/3
f 79/1/3 60/1/3 59/1/3
f 79/1/3 59/1/3 9/1/3
f 80/1/3 10/1/3 78/1/3
f 80/1/3 78/1/3 79/1/3
f 81/1/4 82/1/4 83/1/4
f 83/1/4 82/1/4 84/1/4
f 87/1/5 86/1/5 85/1/5
f 88/1/5 86/1/5 87/1/5
f 89/1/6 90/1/6 91/1/6
f 91/1/6 90/1/6 92/1/6
