# MagicaVoxel @ Ephtracy

# group
o lod1

# material
mtllib wallWithWindow3-2-lod1.mtl
usemtl palette

# normals
vn -1 0 0
vn 1 0 0
vn 0 0 1
vn 0 0 -1
vn 0 -1 0
vn 0 1 0

# texcoords
vt 0.0917969 0.5
vt 0.423828 0.5
vt 0.962891 0.5
vt 0.978516 0.5

# verts
v -8 0 0.4
v -8 0 -0.4
v -8 0.8 0.4
v -8 0.8 0.1
v -8 1.2 0.4
v -8 1.2 0.1
v -8 2.4 0.4
v -8 2.4 0.1
v -8 2.8 0.4
v -8 2.8 0.1
v -8 4 0.4
v -8 4 0.1
v -8 4.4 0.4
v -8 4.4 0.1
v -8 5.6 0.4
v -8 5.6 0.1
v -8 6 0.4
v -8 6 0.1
v -8 7.2 0.4
v -8 7.2 0.1
v -8 7.6 0.4
v -8 7.6 0.1
v -8 8.8 0.4
v -8 8.8 0.1
v -8 9.2 0.4
v -8 9.2 0.1
v -8 10.4 0.4
v -8 10.4 0.1
v -8 10.8 0.4
v -8 10.8 0.1
v -8 12 0.4
v -8 12 0.1
v -8 12.4 0.4
v -8 12.4 0.1
v -8 13.6 0.4
v -8 13.6 0.1
v -8 14 0.4
v -8 14 0.1
v -8 15.2 0.4
v -8 15.2 0.1
v -8 15.6 0.4
v -8 15.6 0.1
v -8 16 0.4
v -8 16 -0.4
v -3.3 4.7 0.5
v -3.3 4.7 0.4
v -3.3 4.8 0.7
v -3.3 4.8 0.5
v -3.3 4.9 0.9
v -3.3 4.9 0.7
v -3.3 5 0.9
v -3.3 5 0.5
v -3.3 12.9 0.5
v -3.3 12.9 0.4
v -0.3 5 0.2
v -0.3 5 0.1
v -0.3 12.6 0.2
v -0.3 12.6 0.1
v 3.5 5 0.5
v 3.5 5 0.1
v 3.5 12.6 0.5
v 3.5 12.6 0.1
v -3.1 5 0.5
v -3.1 5 0.1
v -3.1 12.6 0.5
v -3.1 12.6 0.1
v -0.1 5 0.2
v -0.1 5 0.1
v -0.1 12.6 0.2
v -0.1 12.6 0.1
v 3.7 4.7 0.5
v 3.7 4.7 0.4
v 3.7 4.8 0.7
v 3.7 4.8 0.5
v 3.7 4.9 0.9
v 3.7 4.9 0.7
v 3.7 5 0.9
v 3.7 5 0.5
v 3.7 12.9 0.5
v 3.7 12.9 0.4
v 8 0 0.4
v 8 0 -0.4
v 8 0.8 0.4
v 8 0.8 0.1
v 8 2.8 0.4
v 8 2.8 0.1
v 8 4 0.4
v 8 4 0.1
v 8 6 0.4
v 8 6 0.1
v 8 7.2 0.4
v 8 7.2 0.1
v 8 9.2 0.4
v 8 9.2 0.1
v 8 10.4 0.4
v 8 10.4 0.1
v 8 12.4 0.4
v 8 12.4 0.1
v 8 13.6 0.4
v 8 13.6 0.1
v 8 15.6 0.4
v 8 15.6 0.1
v 8 16 0.4
v 8 16 -0.4
v -3.3 4.9 0.9
v -3.3 5 0.9
v 3.7 4.9 0.9
v 3.7 5 0.9
v -3.3 4.8 0.7
v -3.3 4.9 0.7
v 3.7 4.8 0.7
v 3.7 4.9 0.7
v -3.3 4.7 0.5
v -3.3 4.8 0.5
v -3.3 5 0.5
v -3.3 12.9 0.5
v -3.1 5 0.5
v -3.1 12.6 0.5
v 3.5 5 0.5
v 3.5 12.6 0.5
v 3.7 4.7 0.5
v 3.7 4.8 0.5
v 3.7 5 0.5
v 3.7 12.9 0.5
v -8 0 0.4
v -8 0.8 0.4
v -8 1.2 0.4
v -8 2.4 0.4
v -8 2.8 0.4
v -8 4 0.4
v -8 4.4 0.4
v -8 5.6 0.4
v -8 6 0.4
v -8 7.2 0.4
v -8 7.6 0.4
v -8 8.8 0.4
v -8 9.2 0.4
v -8 10.4 0.4
v -8 10.8 0.4
v -8 12 0.4
v -8 12.4 0.4
v -8 13.6 0.4
v -8 14 0.4
v -8 15.2 0.4
v -8 15.6 0.4
v -8 16 0.4
v -7.2 0 0.4
v -7.2 0.8 0.4
v -7.2 2.8 0.4
v -7.2 4 0.4
v -7.2 15.6 0.4
v -7.2 16 0.4
v -6.8 0 0.4
v -6.8 0.8 0.4
v -6.8 2.8 0.4
v -6.8 4 0.4
v -6.8 6 0.4
v -6.8 7.2 0.4
v -6.8 9.2 0.4
v -6.8 10.4 0.4
v -6.8 12.4 0.4
v -6.8 13.6 0.4
v -6.8 15.6 0.4
v -6.8 16 0.4
v -6.4 6 0.4
v -6.4 7.2 0.4
v -6.4 9.2 0.4
v -6.4 10.4 0.4
v -6.4 12.4 0.4
v -6.4 13.6 0.4
v -5.2 1.2 0.4
v -5.2 2.4 0.4
v -5.2 4.4 0.4
v -5.2 5.6 0.4
v -5.2 7.6 0.4
v -5.2 8.8 0.4
v -5.2 10.8 0.4
v -5.2 12 0.4
v -5.2 14 0.4
v -5.2 15.2 0.4
v -4.8 1.2 0.4
v -4.8 2.4 0.4
v -4.8 4.4 0.4
v -4.8 5.6 0.4
v -4.8 7.6 0.4
v -4.8 8.8 0.4
v -4.8 10.8 0.4
v -4.8 12 0.4
v -4.8 14 0.4
v -4.8 15.2 0.4
v -3.6 0 0.4
v -3.6 0.8 0.4
v -3.6 2.8 0.4
v -3.6 4 0.4
v -3.6 6 0.4
v -3.6 7.2 0.4
v -3.6 9.2 0.4
v -3.6 10.4 0.4
v -3.6 12.4 0.4
v -3.6 13.6 0.4
v -3.6 15.6 0.4
v -3.6 16 0.4
v -3.5 4.5 0.4
v -3.5 5.6 0.4
v -3.5 7.6 0.4
v -3.5 8.8 0.4
v -3.5 10.8 0.4
v -3.5 12 0.4
v -3.3 4.7 0.4
v -3.3 12.9 0.4
v -3.2 0 0.4
v -3.2 0.8 0.4
v -3.2 2.8 0.4
v -3.2 4 0.4
v -3.2 13.1 0.4
v -3.2 13.6 0.4
v -3.2 15.6 0.4
v -3.2 16 0.4
v -2 1.2 0.4
v -2 2.4 0.4
v -2 4.4 0.4
v -2 4.5 0.4
v -2 14 0.4
v -2 15.2 0.4
v -1.6 1.2 0.4
v -1.6 2.4 0.4
v -1.6 4.4 0.4
v -1.6 4.5 0.4
v -1.6 14 0.4
v -1.6 15.2 0.4
v -0.4 0 0.4
v -0.4 0.8 0.4
v -0.4 2.8 0.4
v -0.4 4 0.4
v -0.4 13.1 0.4
v -0.4 13.6 0.4
v -0.4 15.6 0.4
v -0.4 16 0.4
v 0 0 0.4
v 0 0.8 0.4
v 0 2.8 0.4
v 0 4 0.4
v 0 13.1 0.4
v 0 13.6 0.4
v 0 15.6 0.4
v 0 16 0.4
v 1.2 1.2 0.4
v 1.2 2.4 0.4
v 1.2 4.4 0.4
v 1.2 4.5 0.4
v 1.2 14 0.4
v 1.2 15.2 0.4
v 1.6 1.2 0.4
v 1.6 2.4 0.4
v 1.6 4.4 0.4
v 1.6 4.5 0.4
v 1.6 14 0.4
v 1.6 15.2 0.4
v 2.8 0 0.4
v 2.8 0.8 0.4
v 2.8 2.8 0.4
v 2.8 4 0.4
v 2.8 13.1 0.4
v 2.8 13.6 0.4
v 2.8 15.6 0.4
v 2.8 16 0.4
v 3.2 0 0.4
v 3.2 0.8 0.4
v 3.2 2.8 0.4
v 3.2 4 0.4
v 3.2 13.1 0.4
v 3.2 13.6 0.4
v 3.2 15.6 0.4
v 3.2 16 0.4
v 3.7 4.7 0.4
v 3.7 12.9 0.4
v 3.9 4.5 0.4
v 3.9 5.6 0.4
v 3.9 6 0.4
v 3.9 7.2 0.4
v 3.9 7.6 0.4
v 3.9 8.8 0.4
v 3.9 9.2 0.4
v 3.9 10.4 0.4
v 3.9 10.8 0.4
v 3.9 12 0.4
v 3.9 12.4 0.4
v 3.9 13.1 0.4
v 4.4 1.2 0.4
v 4.4 2.4 0.4
v 4.4 4.4 0.4
v 4.4 5.6 0.4
v 4.4 7.6 0.4
v 4.4 8.8 0.4
v 4.4 10.8 0.4
v 4.4 12 0.4
v 4.4 14 0.4
v 4.4 15.2 0.4
v 4.8 1.2 0.4
v 4.8 2.4 0.4
v 4.8 4.4 0.4
v 4.8 5.6 0.4
v 4.8 7.6 0.4
v 4.8 8.8 0.4
v 4.8 10.8 0.4
v 4.8 12 0.4
v 4.8 14 0.4
v 4.8 15.2 0.4
v 6 0 0.4
v 6 0.8 0.4
v 6 2.8 0.4
v 6 4 0.4
v 6 6 0.4
v 6 7.2 0.4
v 6 9.2 0.4
v 6 10.4 0.4
v 6 12.4 0.4
v 6 13.6 0.4
v 6 15.6 0.4
v 6 16 0.4
v 6.4 0 0.4
v 6.4 0.8 0.4
v 6.4 2.8 0.4
v 6.4 4 0.4
v 6.4 6 0.4
v 6.4 7.2 0.4
v 6.4 9.2 0.4
v 6.4 10.4 0.4
v 6.4 12.4 0.4
v 6.4 13.6 0.4
v 6.4 15.6 0.4
v 6.4 16 0.4
v 7.6 1.2 0.4
v 7.6 2.4 0.4
v 7.6 4.4 0.4
v 7.6 5.6 0.4
v 7.6 7.6 0.4
v 7.6 8.8 0.4
v 7.6 10.8 0.4
v 7.6 12 0.4
v 7.6 14 0.4
v 7.6 15.2 0.4
v 8 0 0.4
v 8 0.8 0.4
v 8 2.8 0.4
v 8 4 0.4
v 8 6 0.4
v 8 7.2 0.4
v 8 9.2 0.4
v 8 10.4 0.4
v 8 12.4 0.4
v 8 13.6 0.4
v 8 15.6 0.4
v 8 16 0.4
v -0.3 5 0.2
v -0.3 12.6 0.2
v -0.1 5 0.2
v -0.1 12.6 0.2
v -3.1 5 0.1
v -3.1 12.6 0.1
v -0.3 5 0.1
v -0.3 12.6 0.1
v -0.1 5 0.1
v -0.1 12.6 0.1
v 3.5 5 0.1
v 3.5 12.6 0.1
v -8 0 -0.4
v -8 16 -0.4
v 8 0 -0.4
v 8 16 -0.4
v -8 0 0.4
v -7.2 0 0.4
v -6.8 0 0.4
v -3.6 0 0.4
v -3.2 0 0.4
v -0.4 0 0.4
v 0 0 0.4
v 2.8 0 0.4
v 3.2 0 0.4
v 6 0 0.4
v 6.4 0 0.4
v 8 0 0.4
v -7.2 0 0.1
v -6.8 0 0.1
v -3.6 0 0.1
v -3.2 0 0.1
v -0.4 0 0.1
v 0 0 0.1
v 2.8 0 0.1
v 3.2 0 0.1
v 6 0 0.1
v 6.4 0 0.1
v -8 0 -0.4
v 8 0 -0.4
v -3.3 4.7 0.5
v 3.7 4.7 0.5
v -3.3 4.7 0.4
v 3.7 4.7 0.4
v -3.3 4.8 0.7
v 3.7 4.8 0.7
v -3.3 4.8 0.5
v 3.7 4.8 0.5
v -3.3 4.9 0.9
v 3.7 4.9 0.9
v -3.3 4.9 0.7
v 3.7 4.9 0.7
v -3.1 12.6 0.5
v 3.5 12.6 0.5
v -0.3 12.6 0.2
v -0.1 12.6 0.2
v -3.1 12.6 0.1
v -0.3 12.6 0.1
v -0.1 12.6 0.1
v 3.5 12.6 0.1
v -3.3 5 0.9
v 3.7 5 0.9
v -3.3 5 0.5
v -3.1 5 0.5
v 3.5 5 0.5
v 3.7 5 0.5
v -0.3 5 0.2
v -0.1 5 0.2
v -3.1 5 0.1
v -0.3 5 0.1
v -0.1 5 0.1
v 3.5 5 0.1
v -3.3 12.9 0.5
v 3.7 12.9 0.5
v -3.3 12.9 0.4
v 3.7 12.9 0.4
v -8 16 0.4
v -7.2 16 0.4
v -6.8 16 0.4
v -3.6 16 0.4
v -3.2 16 0.4
v -0.4 16 0.4
v 0 16 0.4
v 2.8 16 0.4
v 3.2 16 0.4
v 6 16 0.4
v 6.4 16 0.4
v 8 16 0.4
v -7.2 16 0.1
v -6.8 16 0.1
v -3.6 16 0.1
v -3.2 16 0.1
v -0.4 16 0.1
v 0 16 0.1
v 2.8 16 0.1
v 3.2 16 0.1
v 6 16 0.1
v 6.4 16 0.1
v -8 16 -0.4
v 8 16 -0.4

# faces
f 3/1/1 2/1/1 1/1/1
f 4/1/1 2/1/1 3/1/1
f 5/4/1 4/4/1 3/4/1
f 6/1/1 2/1/1 4/1/1
f 6/4/1 4/4/1 5/4/1
f 7/1/1 6/1/1 5/1/1
f 8/1/1 2/1/1 6/1/1
f 8/1/1 6/1/1 7/1/1
f 9/4/1 8/4/1 7/4/1
f 10/1/1 2/1/1 8/1/1
f 10/4/1 8/4/1 9/4/1
f 11/1/1 10/1/1 9/1/1
f 12/1/1 2/1/1 10/1/1
f 12/1/1 10/1/1 11/1/1
f 13/4/1 12/4/1 11/4/1
f 14/1/1 2/1/1 12/1/1
f 14/4/1 12/4/1 13/4/1
f 15/1/1 14/1/1 13/1/1
f 16/1/1 2/1/1 14/1/1
f 16/1/1 14/1/1 15/1/1
f 17/4/1 16/4/1 15/4/1
f 18/1/1 2/1/1 16/1/1
f 18/4/1 16/4/1 17/4/1
f 19/1/1 18/1/1 17/1/1
f 20/1/1 2/1/1 18/1/1
f 20/1/1 18/1/1 19/1/1
f 21/4/1 20/4/1 19/4/1
f 22/1/1 2/1/1 20/1/1
f 22/4/1 20/4/1 21/4/1
f 23/1/1 22/1/1 21/1/1
f 24/1/1 2/1/1 22/1/1
f 24/1/1 22/1/1 23/1/1
f 25/4/1 24/4/1 23/4/1
f 26/1/1 2/1/1 24/1/1
f 26/4/1 24/4/1 25/4/1
f 27/1/1 26/1/1 25/1/1
f 28/1/1 2/1/1 26/1/1
f 28/1/1 26/1/1 27/1/1
f 29/4/1 28/4/1 27/4/1
f 30/1/1 2/1/1 28/1/1
f 30/4/1 28/4/1 29/4/1
f 31/1/1 30/1/1 29/1/1
f 32/1/1 2/1/1 30/1/1
f 32/1/1 30/1/1 31/1/1
f 33/4/1 32/4/1 31/4/1
f 34/1/1 2/1/1 32/1/1
f 34/4/1 32/4/1 33/4/1
f 35/1/1 34/1/1 33/1/1
f 36/1/1 2/1/1 34/1/1
f 36/1/1 34/1/1 35/1/1
f 37/4/1 36/4/1 35/4/1
f 38/1/1 2/1/1 36/1/1
f 38/4/1 36/4/1 37/4/1
f 39/1/1 38/1/1 37/1/1
f 40/1/1 2/1/1 38/1/1
f 40/1/1 38/1/1 39/1/1
f 41/4/1 40/4/1 39/4/1
f 42/1/1 2/1/1 40/1/1
f 42/4/1 40/4/1 41/4/1
f 43/1/1 42/1/1 41/1/1
f 44/1/1 2/1/1 42/1/1
f 44/1/1 42/1/1 43/1/1
f 48/3/1 46/3/1 45/3/1
f 50/3/1 48/3/1 47/3/1
f 51/3/1 50/3/1 49/3/1
f 52/3/1 46/3/1 48/3/1
f 52/3/1 50/3/1 51/3/1
f 52/3/1 48/3/1 50/3/1
f 53/3/1 46/3/1 52/3/1
f 54/3/1 46/3/1 53/3/1
f 57/3/1 56/3/1 55/3/1
f 58/3/1 56/3/1 57/3/1
f 61/3/1 60/3/1 59/3/1
f 62/3/1 60/3/1 61/3/1
f 63/3/2 64/3/2 65/3/2
f 65/3/2 64/3/2 66/3/2
f 67/3/2 68/3/2 69/3/2
f 69/3/2 68/3/2 70/3/2
f 71/3/2 72/3/2 74/3/2
f 73/3/2 74/3/2 76/3/2
f 75/3/2 76/3/2 77/3/2
f 74/3/2 72/3/2 78/3/2
f 77/3/2 76/3/2 78/3/2
f 76/3/2 74/3/2 78/3/2
f 78/3/2 72/3/2 79/3/2
f 79/3/2 72/3/2 80/3/2
f 81/1/2 82/1/2 83/1/2
f 83/1/2 82/1/2 84/1/2
f 83/4/2 84/4/2 85/4/2
f 84/1/2 82/1/2 86/1/2
f 85/4/2 84/4/2 86/4/2
f 85/1/2 86/1/2 87/1/2
f 86/1/2 82/1/2 88/1/2
f 87/1/2 86/1/2 88/1/2
f 87/4/2 88/4/2 89/4/2
f 88/1/2 82/1/2 90/1/2
f 89/4/2 88/4/2 90/4/2
f 89/1/2 90/1/2 91/1/2
f 90/1/2 82/1/2 92/1/2
f 91/1/2 90/1/2 92/1/2
f 91/4/2 92/4/2 93/4/2
f 92/1/2 82/1/2 94/1/2
f 93/4/2 92/4/2 94/4/2
f 93/1/2 94/1/2 95/1/2
f 94/1/2 82/1/2 96/1/2
f 95/1/2 94/1/2 96/1/2
f 95/4/2 96/4/2 97/4/2
f 96/1/2 82/1/2 98/1/2
f 97/4/2 96/4/2 98/4/2
f 97/1/2 98/1/2 99/1/2
f 98/1/2 82/1/2 100/1/2
f 99/1/2 98/1/2 100/1/2
f 99/4/2 100/4/2 101/4/2
f 100/1/2 82/1/2 102/1/2
f 101/4/2 100/4/2 102/4/2
f 101/1/2 102/1/2 103/1/2
f 102/1/2 82/1/2 104/1/2
f 103/1/2 102/1/2 104/1/2
f 107/3/3 106/3/3 105/3/3
f 108/3/3 106/3/3 107/3/3
f 111/3/3 110/3/3 109/3/3
f 112/3/3 110/3/3 111/3/3
f 117/3/3 116/3/3 115/3/3
f 118/3/3 116/3/3 117/3/3
f 120/3/3 116/3/3 118/3/3
f 121/3/3 114/3/3 113/3/3
f 122/3/3 114/3/3 121/3/3
f 123/3/3 120/3/3 119/3/3
f 124/3/3 116/3/3 120/3/3
f 124/3/3 120/3/3 123/3/3
f 147/1/3 126/1/3 125/1/3
f 148/4/3 127/4/3 126/4/3
f 148/1/3 126/1/3 147/1/3
f 149/4/3 129/4/3 128/4/3
f 149/1/3 130/1/3 129/1/3
f 150/4/3 131/4/3 130/4/3
f 150/1/3 130/1/3 149/1/3
f 151/1/3 146/1/3 145/1/3
f 151/4/3 145/4/3 144/4/3
f 152/1/3 146/1/3 151/1/3
f 153/4/3 148/4/3 147/4/3
f 154/4/3 127/4/3 148/4/3
f 154/4/3 148/4/3 153/4/3
f 155/4/3 149/4/3 128/4/3
f 155/4/3 150/4/3 149/4/3
f 156/4/3 131/4/3 150/4/3
f 156/4/3 150/4/3 155/4/3
f 157/4/3 133/4/3 132/4/3
f 157/1/3 134/1/3 133/1/3
f 158/4/3 135/4/3 134/4/3
f 158/1/3 134/1/3 157/1/3
f 159/4/3 137/4/3 136/4/3
f 159/1/3 138/1/3 137/1/3
f 160/4/3 139/4/3 138/4/3
f 160/1/3 138/1/3 159/1/3
f 161/4/3 141/4/3 140/4/3
f 161/1/3 142/1/3 141/1/3
f 162/4/3 143/4/3 142/4/3
f 162/1/3 142/1/3 161/1/3
f 163/4/3 151/4/3 144/4/3
f 163/4/3 152/4/3 151/4/3
f 164/4/3 152/4/3 163/4/3
f 165/4/3 157/4/3 132/4/3
f 165/4/3 158/4/3 157/4/3
f 166/4/3 135/4/3 158/4/3
f 166/4/3 158/4/3 165/4/3
f 167/4/3 159/4/3 136/4/3
f 167/4/3 160/4/3 159/4/3
f 168/4/3 139/4/3 160/4/3
f 168/4/3 160/4/3 167/4/3
f 169/4/3 161/4/3 140/4/3
f 169/4/3 162/4/3 161/4/3
f 170/4/3 143/4/3 162/4/3
f 170/4/3 162/4/3 169/4/3
f 171/1/3 128/1/3 127/1/3
f 171/4/3 127/4/3 154/4/3
f 172/4/3 155/4/3 128/4/3
f 172/1/3 128/1/3 171/1/3
f 173/1/3 132/1/3 131/1/3
f 173/4/3 131/4/3 156/4/3
f 174/4/3 165/4/3 132/4/3
f 174/1/3 132/1/3 173/1/3
f 175/1/3 136/1/3 135/1/3
f 175/4/3 135/4/3 166/4/3
f 176/4/3 167/4/3 136/4/3
f 176/1/3 136/1/3 175/1/3
f 177/1/3 140/1/3 139/1/3
f 177/4/3 139/4/3 168/4/3
f 178/4/3 169/4/3 140/4/3
f 178/1/3 140/1/3 177/1/3
f 179/4/3 143/4/3 170/4/3
f 179/1/3 144/1/3 143/1/3
f 180/4/3 163/4/3 144/4/3
f 180/1/3 144/1/3 179/1/3
f 181/4/3 171/4/3 154/4/3
f 181/4/3 172/4/3 171/4/3
f 182/4/3 155/4/3 172/4/3
f 182/4/3 172/4/3 181/4/3
f 183/4/3 173/4/3 156/4/3
f 183/4/3 174/4/3 173/4/3
f 184/4/3 165/4/3 174/4/3
f 184/4/3 174/4/3 183/4/3
f 185/4/3 175/4/3 166/4/3
f 185/4/3 176/4/3 175/4/3
f 186/4/3 167/4/3 176/4/3
f 186/4/3 176/4/3 185/4/3
f 187/4/3 178/4/3 177/4/3
f 187/4/3 177/4/3 168/4/3
f 188/4/3 169/4/3 178/4/3
f 188/4/3 178/4/3 187/4/3
f 189/4/3 180/4/3 179/4/3
f 189/4/3 179/4/3 170/4/3
f 190/4/3 163/4/3 180/4/3
f 190/4/3 180/4/3 189/4/3
f 191/1/3 154/1/3 153/1/3
f 192/4/3 181/4/3 154/4/3
f 192/1/3 154/1/3 191/1/3
f 193/1/3 156/1/3 155/1/3
f 193/4/3 155/4/3 182/4/3
f 194/4/3 183/4/3 156/4/3
f 194/1/3 156/1/3 193/1/3
f 195/4/3 165/4/3 184/4/3
f 195/1/3 166/1/3 165/1/3
f 196/4/3 185/4/3 166/4/3
f 196/1/3 166/1/3 195/1/3
f 197/4/3 167/4/3 186/4/3
f 197/1/3 168/1/3 167/1/3
f 198/4/3 187/4/3 168/4/3
f 198/1/3 168/1/3 197/1/3
f 199/1/3 170/1/3 169/1/3
f 199/4/3 169/4/3 188/4/3
f 200/4/3 189/4/3 170/4/3
f 200/1/3 170/1/3 199/1/3
f 201/1/3 164/1/3 163/1/3
f 201/4/3 163/4/3 190/4/3
f 202/1/3 164/1/3 201/1/3
f 203/1/3 184/1/3 183/1/3
f 204/4/3 195/4/3 184/4/3
f 204/1/3 184/1/3 203/1/3
f 204/4/3 196/4/3 195/4/3
f 205/4/3 185/4/3 196/4/3
f 205/4/3 196/4/3 204/4/3
f 205/1/3 186/1/3 185/1/3
f 206/4/3 197/4/3 186/4/3
f 206/1/3 186/1/3 205/1/3
f 206/4/3 198/4/3 197/4/3
f 207/4/3 187/4/3 198/4/3
f 207/4/3 198/4/3 206/4/3
f 207/1/3 188/1/3 187/1/3
f 208/4/3 199/4/3 188/4/3
f 208/1/3 188/1/3 207/1/3
f 208/4/3 200/4/3 199/4/3
f 209/4/3 207/4/3 206/4/3
f 209/4/3 205/4/3 204/4/3
f 209/4/3 208/4/3 207/4/3
f 209/4/3 206/4/3 205/4/3
f 209/4/3 204/4/3 203/4/3
f 210/4/3 200/4/3 208/4/3
f 210/4/3 208/4/3 209/4/3
f 211/4/3 192/4/3 191/4/3
f 212/4/3 181/4/3 192/4/3
f 212/4/3 192/4/3 211/4/3
f 213/4/3 193/4/3 182/4/3
f 213/4/3 194/4/3 193/4/3
f 214/4/3 183/4/3 194/4/3
f 214/4/3 194/4/3 213/4/3
f 215/4/3 200/4/3 210/4/3
f 216/4/3 189/4/3 200/4/3
f 216/4/3 200/4/3 215/4/3
f 217/4/3 201/4/3 190/4/3
f 217/4/3 202/4/3 201/4/3
f 218/4/3 202/4/3 217/4/3
f 219/4/3 181/4/3 212/4/3
f 219/1/3 182/1/3 181/1/3
f 220/4/3 213/4/3 182/4/3
f 220/1/3 182/1/3 219/1/3
f 221/4/3 183/4/3 214/4/3
f 221/1/3 203/1/3 183/1/3
f 222/4/3 209/4/3 203/4/3
f 222/1/3 203/1/3 221/1/3
f 223/4/3 189/4/3 216/4/3
f 223/1/3 190/1/3 189/1/3
f 224/4/3 217/4/3 190/4/3
f 224/1/3 190/1/3 223/1/3
f 225/4/3 220/4/3 219/4/3
f 225/4/3 219/4/3 212/4/3
f 226/4/3 213/4/3 220/4/3
f 226/4/3 220/4/3 225/4/3
f 227/4/3 221/4/3 214/4/3
f 227/4/3 222/4/3 221/4/3
f 228/4/3 209/4/3 222/4/3
f 228/4/3 222/4/3 227/4/3
f 229/4/3 224/4/3 223/4/3
f 229/4/3 223/4/3 216/4/3
f 230/4/3 217/4/3 224/4/3
f 230/4/3 224/4/3 229/4/3
f 231/1/3 212/1/3 211/1/3
f 232/4/3 225/4/3 212/4/3
f 232/1/3 212/1/3 231/1/3
f 233/4/3 213/4/3 226/4/3
f 233/1/3 214/1/3 213/1/3
f 234/4/3 227/4/3 214/4/3
f 234/1/3 214/1/3 233/1/3
f 235/1/3 216/1/3 215/1/3
f 235/4/3 215/4/3 210/4/3
f 236/4/3 229/4/3 216/4/3
f 236/1/3 216/1/3 235/1/3
f 237/1/3 218/1/3 217/1/3
f 237/4/3 217/4/3 230/4/3
f 238/1/3 218/1/3 237/1/3
f 239/4/3 232/4/3 231/4/3
f 240/4/3 225/4/3 232/4/3
f 240/4/3 232/4/3 239/4/3
f 241/4/3 233/4/3 226/4/3
f 241/4/3 234/4/3 233/4/3
f 242/4/3 227/4/3 234/4/3
f 242/4/3 234/4/3 241/4/3
f 243/4/3 235/4/3 210/4/3
f 243/4/3 236/4/3 235/4/3
f 244/4/3 229/4/3 236/4/3
f 244/4/3 236/4/3 243/4/3
f 245/4/3 237/4/3 230/4/3
f 245/4/3 238/4/3 237/4/3
f 246/4/3 238/4/3 245/4/3
f 247/4/3 225/4/3 240/4/3
f 247/1/3 226/1/3 225/1/3
f 248/4/3 241/4/3 226/4/3
f 248/1/3 226/1/3 247/1/3
f 249/4/3 227/4/3 242/4/3
f 249/1/3 228/1/3 227/1/3
f 250/4/3 209/4/3 228/4/3
f 250/1/3 228/1/3 249/1/3
f 251/1/3 230/1/3 229/1/3
f 251/4/3 229/4/3 244/4/3
f 252/4/3 245/4/3 230/4/3
f 252/1/3 230/1/3 251/1/3
f 253/4/3 247/4/3 240/4/3
f 253/4/3 248/4/3 247/4/3
f 254/4/3 241/4/3 248/4/3
f 254/4/3 248/4/3 253/4/3
f 255/4/3 249/4/3 242/4/3
f 255/4/3 250/4/3 249/4/3
f 256/4/3 209/4/3 250/4/3
f 256/4/3 250/4/3 255/4/3
f 257/4/3 252/4/3 251/4/3
f 257/4/3 251/4/3 244/4/3
f 258/4/3 245/4/3 252/4/3
f 258/4/3 252/4/3 257/4/3
f 259/1/3 240/1/3 239/1/3
f 260/4/3 253/4/3 240/4/3
f 260/1/3 240/1/3 259/1/3
f 261/4/3 241/4/3 254/4/3
f 261/1/3 242/1/3 241/1/3
f 262/4/3 255/4/3 242/4/3
f 262/1/3 242/1/3 261/1/3
f 263/4/3 243/4/3 210/4/3
f 263/1/3 244/1/3 243/1/3
f 264/4/3 257/4/3 244/4/3
f 264/1/3 244/1/3 263/1/3
f 265/1/3 246/1/3 245/1/3
f 265/4/3 245/4/3 258/4/3
f 266/1/3 246/1/3 265/1/3
f 267/4/3 260/4/3 259/4/3
f 268/4/3 253/4/3 260/4/3
f 268/4/3 260/4/3 267/4/3
f 269/4/3 261/4/3 254/4/3
f 269/4/3 262/4/3 261/4/3
f 270/4/3 255/4/3 262/4/3
f 270/4/3 262/4/3 269/4/3
f 271/4/3 263/4/3 210/4/3
f 271/4/3 264/4/3 263/4/3
f 272/4/3 257/4/3 264/4/3
f 272/4/3 264/4/3 271/4/3
f 273/4/3 265/4/3 258/4/3
f 273/4/3 266/4/3 265/4/3
f 274/4/3 266/4/3 273/4/3
f 275/4/3 209/4/3 256/4/3
f 276/4/3 271/4/3 210/4/3
f 277/4/3 275/4/3 256/4/3
f 277/4/3 276/4/3 275/4/3
f 277/1/3 256/1/3 255/1/3
f 278/4/3 276/4/3 277/4/3
f 279/4/3 276/4/3 278/4/3
f 280/4/3 276/4/3 279/4/3
f 281/4/3 276/4/3 280/4/3
f 282/4/3 276/4/3 281/4/3
f 283/4/3 276/4/3 282/4/3
f 284/4/3 276/4/3 283/4/3
f 285/4/3 276/4/3 284/4/3
f 286/4/3 276/4/3 285/4/3
f 287/4/3 276/4/3 286/4/3
f 288/4/3 271/4/3 276/4/3
f 288/4/3 276/4/3 287/4/3
f 288/1/3 272/1/3 271/1/3
f 289/4/3 253/4/3 268/4/3
f 289/1/3 254/1/3 253/1/3
f 290/4/3 269/4/3 254/4/3
f 290/1/3 254/1/3 289/1/3
f 291/4/3 255/4/3 270/4/3
f 291/1/3 277/1/3 255/1/3
f 291/1/3 278/1/3 277/1/3
f 292/4/3 279/4/3 278/4/3
f 292/1/3 278/1/3 291/1/3
f 293/4/3 281/4/3 280/4/3
f 293/1/3 282/1/3 281/1/3
f 294/4/3 283/4/3 282/4/3
f 294/1/3 282/1/3 293/1/3
f 295/1/3 286/1/3 285/1/3
f 295/4/3 285/4/3 284/4/3
f 296/4/3 287/4/3 286/4/3
f 296/1/3 286/1/3 295/1/3
f 297/1/3 258/1/3 257/1/3
f 297/4/3 257/4/3 272/4/3
f 298/4/3 273/4/3 258/4/3
f 298/1/3 258/1/3 297/1/3
f 299/4/3 289/4/3 268/4/3
f 299/4/3 290/4/3 289/4/3
f 300/4/3 269/4/3 290/4/3
f 300/4/3 290/4/3 299/4/3
f 301/4/3 291/4/3 270/4/3
f 301/4/3 292/4/3 291/4/3
f 302/4/3 279/4/3 292/4/3
f 302/4/3 292/4/3 301/4/3
f 303/4/3 294/4/3 293/4/3
f 303/4/3 293/4/3 280/4/3
f 304/4/3 283/4/3 294/4/3
f 304/4/3 294/4/3 303/4/3
f 305/4/3 295/4/3 284/4/3
f 305/4/3 296/4/3 295/4/3
f 306/4/3 287/4/3 296/4/3
f 306/4/3 296/4/3 305/4/3
f 307/4/3 297/4/3 272/4/3
f 307/4/3 298/4/3 297/4/3
f 308/4/3 273/4/3 298/4/3
f 308/4/3 298/4/3 307/4/3
f 309/1/3 268/1/3 267/1/3
f 310/4/3 299/4/3 268/4/3
f 310/1/3 268/1/3 309/1/3
f 311/1/3 270/1/3 269/1/3
f 311/4/3 269/4/3 300/4/3
f 312/4/3 301/4/3 270/4/3
f 312/1/3 270/1/3 311/1/3
f 313/4/3 279/4/3 302/4/3
f 313/1/3 280/1/3 279/1/3
f 314/4/3 303/4/3 280/4/3
f 314/1/3 280/1/3 313/1/3
f 315/4/3 283/4/3 304/4/3
f 315/1/3 284/1/3 283/1/3
f 316/4/3 305/4/3 284/4/3
f 316/1/3 284/1/3 315/1/3
f 317/1/3 288/1/3 287/1/3
f 317/4/3 287/4/3 306/4/3
f 318/4/3 307/4/3 272/4/3
f 318/1/3 288/1/3 317/1/3
f 318/1/3 272/1/3 288/1/3
f 319/4/3 273/4/3 308/4/3
f 319/1/3 274/1/3 273/1/3
f 320/1/3 274/1/3 319/1/3
f 321/4/3 310/4/3 309/4/3
f 322/4/3 299/4/3 310/4/3
f 322/4/3 310/4/3 321/4/3
f 323/4/3 312/4/3 311/4/3
f 323/4/3 311/4/3 300/4/3
f 324/4/3 301/4/3 312/4/3
f 324/4/3 312/4/3 323/4/3
f 325/4/3 313/4/3 302/4/3
f 325/4/3 314/4/3 313/4/3
f 326/4/3 303/4/3 314/4/3
f 326/4/3 314/4/3 325/4/3
f 327/4/3 315/4/3 304/4/3
f 327/4/3 316/4/3 315/4/3
f 328/4/3 305/4/3 316/4/3
f 328/4/3 316/4/3 327/4/3
f 329/4/3 317/4/3 306/4/3
f 329/4/3 318/4/3 317/4/3
f 330/4/3 307/4/3 318/4/3
f 330/4/3 318/4/3 329/4/3
f 331/4/3 319/4/3 308/4/3
f 331/4/3 320/4/3 319/4/3
f 332/4/3 320/4/3 331/4/3
f 333/4/3 299/4/3 322/4/3
f 333/1/3 300/1/3 299/1/3
f 334/4/3 323/4/3 300/4/3
f 334/1/3 300/1/3 333/1/3
f 335/4/3 301/4/3 324/4/3
f 335/1/3 302/1/3 301/1/3
f 336/4/3 325/4/3 302/4/3
f 336/1/3 302/1/3 335/1/3
f 337/4/3 303/4/3 326/4/3
f 337/1/3 304/1/3 303/1/3
f 338/4/3 327/4/3 304/4/3
f 338/1/3 304/1/3 337/1/3
f 339/4/3 305/4/3 328/4/3
f 339/1/3 306/1/3 305/1/3
f 340/4/3 329/4/3 306/4/3
f 340/1/3 306/1/3 339/1/3
f 341/1/3 308/1/3 307/1/3
f 341/4/3 307/4/3 330/4/3
f 342/4/3 331/4/3 308/4/3
f 342/1/3 308/1/3 341/1/3
f 343/1/3 322/1/3 321/1/3
f 344/4/3 333/4/3 322/4/3
f 344/1/3 322/1/3 343/1/3
f 344/4/3 334/4/3 333/4/3
f 345/4/3 323/4/3 334/4/3
f 345/4/3 334/4/3 344/4/3
f 345/1/3 324/1/3 323/1/3
f 346/4/3 335/4/3 324/4/3
f 346/1/3 324/1/3 345/1/3
f 346/4/3 336/4/3 335/4/3
f 347/4/3 325/4/3 336/4/3
f 347/4/3 336/4/3 346/4/3
f 347/1/3 326/1/3 325/1/3
f 348/4/3 337/4/3 326/4/3
f 348/1/3 326/1/3 347/1/3
f 348/4/3 338/4/3 337/4/3
f 349/4/3 327/4/3 338/4/3
f 349/4/3 338/4/3 348/4/3
f 349/1/3 328/1/3 327/1/3
f 350/4/3 339/4/3 328/4/3
f 350/1/3 328/1/3 349/1/3
f 350/4/3 340/4/3 339/4/3
f 351/4/3 329/4/3 340/4/3
f 351/4/3 340/4/3 350/4/3
f 351/1/3 330/1/3 329/1/3
f 352/4/3 342/4/3 341/4/3
f 352/1/3 330/1/3 351/1/3
f 352/4/3 341/4/3 330/4/3
f 353/4/3 331/4/3 342/4/3
f 353/4/3 342/4/3 352/4/3
f 353/1/3 332/1/3 331/1/3
f 354/1/3 332/1/3 353/1/3
f 357/3/3 356/3/3 355/3/3
f 358/3/3 356/3/3 357/3/3
f 361/2/3 360/2/3 359/2/3
f 362/2/3 360/2/3 361/2/3
f 365/2/3 364/2/3 363/2/3
f 366/2/3 364/2/3 365/2/3
f 367/1/4 368/1/4 369/1/4
f 369/1/4 368/1/4 370/1/4
f 383/1/5 372/1/5 371/1/5
f 383/4/5 373/4/5 372/4/5
f 384/1/5 374/1/5 373/1/5
f 384/4/5 373/4/5 383/4/5
f 385/4/5 375/4/5 374/4/5
f 385/1/5 374/1/5 384/1/5
f 386/1/5 376/1/5 375/1/5
f 386/4/5 375/4/5 385/4/5
f 387/4/5 377/4/5 376/4/5
f 387/1/5 376/1/5 386/1/5
f 388/1/5 378/1/5 377/1/5
f 388/4/5 377/4/5 387/4/5
f 389/4/5 379/4/5 378/4/5
f 389/1/5 378/1/5 388/1/5
f 390/1/5 380/1/5 379/1/5
f 390/4/5 379/4/5 389/4/5
f 391/4/5 381/4/5 380/4/5
f 391/1/5 380/1/5 390/1/5
f 392/1/5 382/1/5 381/1/5
f 392/4/5 381/4/5 391/4/5
f 393/1/5 391/1/5 390/1/5
f 393/1/5 390/1/5 389/1/5
f 393/1/5 392/1/5 391/1/5
f 393/1/5 389/1/5 388/1/5
f 393/1/5 388/1/5 387/1/5
f 393/1/5 387/1/5 386/1/5
f 393/1/5 386/1/5 385/1/5
f 393/1/5 385/1/5 384/1/5
f 393/1/5 384/1/5 383/1/5
f 393/1/5 383/1/5 371/1/5
f 394/1/5 382/1/5 392/1/5
f 394/1/5 392/1/5 393/1/5
f 397/3/5 396/3/5 395/3/5
f 398/3/5 396/3/5 397/3/5
f 401/3/5 400/3/5 399/3/5
f 402/3/5 400/3/5 401/3/5
f 405/3/5 404/3/5 403/3/5
f 406/3/5 404/3/5 405/3/5
f 409/3/5 408/3/5 407/3/5
f 410/3/5 408/3/5 409/3/5
f 411/3/5 409/3/5 407/3/5
f 412/3/5 409/3/5 411/3/5
f 413/3/5 408/3/5 410/3/5
f 414/3/5 408/3/5 413/3/5
f 415/3/6 416/3/6 417/3/6
f 417/3/6 416/3/6 418/3/6
f 418/3/6 416/3/6 419/3/6
f 419/3/6 416/3/6 420/3/6
f 418/3/6 419/3/6 421/3/6
f 421/3/6 419/3/6 422/3/6
f 418/3/6 421/3/6 423/3/6
f 423/3/6 421/3/6 424/3/6
f 422/3/6 419/3/6 425/3/6
f 425/3/6 419/3/6 426/3/6
f 427/3/6 428/3/6 429/3/6
f 429/3/6 428/3/6 430/3/6
f 431/1/6 432/1/6 443/1/6
f 432/4/6 433/4/6 443/4/6
f 433/1/6 434/1/6 444/1/6
f 443/4/6 433/4/6 444/4/6
f 434/4/6 435/4/6 445/4/6
f 444/1/6 434/1/6 445/1/6
f 435/1/6 436/1/6 446/1/6
f 445/4/6 435/4/6 446/4/6
f 436/4/6 437/4/6 447/4/6
f 446/1/6 436/1/6 447/1/6
f 437/1/6 438/1/6 448/1/6
f 447/4/6 437/4/6 448/4/6
f 438/4/6 439/4/6 449/4/6
f 448/1/6 438/1/6 449/1/6
f 439/1/6 440/1/6 450/1/6
f 449/4/6 439/4/6 450/4/6
f 440/4/6 441/4/6 451/4/6
f 450/1/6 440/1/6 451/1/6
f 441/1/6 442/1/6 452/1/6
f 451/4/6 441/4/6 452/4/6
f 450/1/6 451/1/6 453/1/6
f 449/1/6 450/1/6 453/1/6
f 451/1/6 452/1/6 453/1/6
f 448/1/6 449/1/6 453/1/6
f 447/1/6 448/1/6 453/1/6
f 446/1/6 447/1/6 453/1/6
f 445/1/6 446/1/6 453/1/6
f 444/1/6 445/1/6 453/1/6
f 443/1/6 444/1/6 453/1/6
f 431/1/6 443/1/6 453/1/6
f 452/1/6 442/1/6 454/1/6
f 453/1/6 452/1/6 454/1/6
